M48
; DRILL file {KiCad 6.0.11+dfsg-1} date Tue 23 Jul 2024 06:01:54 PM CDT
; FORMAT={-:-/ absolute / metric / decimal}
; #@! TF.CreationDate,2024-07-23T18:01:54-05:00
; #@! TF.GenerationSoftware,Kicad,Pcbnew,6.0.11+dfsg-1
; #@! TF.FileFunction,Plated,1,2,PTH
FMAT,2
METRIC
; #@! TA.AperFunction,Plated,PTH,ViaDrill
T1C0.400
; #@! TA.AperFunction,Plated,PTH,ComponentDrill
T2C0.800
; #@! TA.AperFunction,Plated,PTH,ComponentDrill
T3C0.900
; #@! TA.AperFunction,Plated,PTH,ComponentDrill
T4C1.000
; #@! TA.AperFunction,Plated,PTH,ComponentDrill
T5C1.020
; #@! TA.AperFunction,Plated,PTH,ComponentDrill
T6C1.500
; #@! TA.AperFunction,Plated,PTH,ComponentDrill
T7C2.300
; #@! TA.AperFunction,Plated,PTH,ComponentDrill
T8C2.370
; #@! TA.AperFunction,Plated,PTH,ComponentDrill
T9C2.500
; #@! TA.AperFunction,Plated,PTH,ComponentDrill
T10C3.000
%
G90
G05
T1
X72.898Y-83.058
X75.235Y-129.565
X76.2Y-104.775
X77.47Y-106.045
X77.724Y-86.36
X78.99Y-91.444
X78.994Y-86.36
X78.994Y-89.916
X80.01Y-130.175
X80.01Y-132.08
X80.01Y-133.985
X81.28Y-123.825
X81.534Y-84.328
X82.931Y-78.232
X83.185Y-106.68
X83.185Y-123.19
X85.09Y-108.585
X85.979Y-91.567
X86.995Y-130.175
X89.408Y-82.804
X90.17Y-123.825
X90.678Y-90.297
X90.678Y-97.155
X91.821Y-125.095
X91.821Y-126.746
X92.075Y-118.11
X92.964Y-83.058
X96.647Y-122.301
X96.647Y-124.841
X98.806Y-89.154
X101.346Y-84.328
X102.997Y-78.232
X106.045Y-91.44
X109.474Y-83.058
X110.744Y-90.424
X112.522Y-89.154
X112.776Y-83.058
X118.11Y-89.154
X119.888Y-89.154
X119.888Y-93.726
X121.158Y-84.328
X121.412Y-93.726
X122.936Y-78.105
X123.063Y-134.874
X123.063Y-137.414
X123.063Y-142.621
X123.063Y-145.161
X124.714Y-127.254
X124.714Y-132.207
X125.73Y-91.44
X127.635Y-145.161
X128.524Y-127.254
X128.524Y-132.207
X129.54Y-83.058
X130.81Y-94.234
X131.445Y-142.621
X132.334Y-89.027
X132.334Y-127.254
X132.334Y-132.207
X132.461Y-94.234
X133.096Y-83.058
X134.112Y-94.234
X135.255Y-137.414
X136.144Y-127.254
X136.144Y-132.207
X136.271Y-90.424
X137.922Y-90.424
X139.192Y-137.414
X139.954Y-127.254
X139.954Y-132.207
X141.478Y-84.328
X142.875Y-78.359
X143.764Y-127.254
X143.764Y-132.207
X145.415Y-91.186
X149.352Y-83.058
X150.749Y-90.424
X151.13Y-126.492
X154.813Y-121.285
X157.226Y-127.381
T2
X80.645Y-101.346
X83.145Y-101.346
T3
X68.5Y-119.65
X68.5Y-126.35
X71.0Y-119.65
X71.0Y-126.35
X76.65Y-68.5
X76.65Y-71.0
X76.65Y-137.0
X76.65Y-139.5
X83.35Y-68.5
X83.35Y-71.0
X83.35Y-137.0
X83.35Y-139.5
X96.65Y-68.5
X96.65Y-71.0
X103.35Y-68.5
X103.35Y-71.0
X116.65Y-68.5
X116.65Y-71.0
X123.35Y-68.5
X123.35Y-71.0
X136.65Y-68.5
X136.65Y-71.0
X143.35Y-68.5
X143.35Y-71.0
T4
X64.77Y-109.855
X69.215Y-102.87
X69.85Y-109.855
X71.755Y-102.87
X88.265Y-110.49
X88.265Y-113.03
X88.265Y-115.57
X88.265Y-118.11
X91.325Y-137.389
X91.325Y-139.929
X93.865Y-137.389
X93.865Y-139.929
X150.5Y-145.2
X152.4Y-109.23
X152.4Y-116.83
X155.0Y-145.2
X156.718Y-132.583
X156.718Y-135.123
T5
X101.11Y-96.87
X101.11Y-99.41
X101.11Y-101.95
X101.11Y-104.49
X101.11Y-107.03
X101.11Y-109.57
X101.11Y-112.11
X101.11Y-114.65
X101.11Y-117.19
X101.11Y-119.73
X101.11Y-122.27
X101.11Y-124.81
X101.11Y-127.35
X101.11Y-129.89
X101.11Y-132.43
X101.11Y-134.97
X101.11Y-137.51
X101.11Y-140.05
X101.11Y-142.59
X101.11Y-145.13
X107.46Y-97.1
X110.0Y-97.1
X112.54Y-97.1
X118.89Y-96.87
X118.89Y-99.41
X118.89Y-101.95
X118.89Y-104.49
X118.89Y-107.03
X118.89Y-109.57
X118.89Y-112.11
X118.89Y-114.65
X118.89Y-117.19
X118.89Y-119.73
X118.89Y-122.27
X118.89Y-124.81
X118.89Y-127.35
X118.89Y-129.89
X118.89Y-132.43
X118.89Y-134.97
X118.89Y-137.51
X118.89Y-140.05
X118.89Y-142.59
X118.89Y-145.13
T6
X149.25Y-142.7
X156.25Y-142.7
T7
X66.1Y-94.0
T8
X64.7Y-123.0
X65.51Y-116.24
X65.51Y-129.76
X73.24Y-65.51
X73.24Y-142.49
X80.0Y-64.7
X80.0Y-143.3
X86.76Y-65.51
X86.76Y-142.49
X93.24Y-65.51
X100.0Y-64.7
X106.76Y-65.51
X113.24Y-65.51
X120.0Y-64.7
X126.76Y-65.51
X133.24Y-65.51
X140.0Y-64.7
X146.76Y-65.51
T9
X65.1Y-89.5
X65.1Y-98.5
T10
X72.1Y-94.0
T0
M30
