G04 #@! TF.GenerationSoftware,KiCad,Pcbnew,6.0.11+dfsg-1*
G04 #@! TF.CreationDate,2024-07-23T18:01:40-05:00*
G04 #@! TF.ProjectId,hootswitch,686f6f74-7377-4697-9463-682e6b696361,rev?*
G04 #@! TF.SameCoordinates,Original*
G04 #@! TF.FileFunction,Soldermask,Bot*
G04 #@! TF.FilePolarity,Negative*
%FSLAX46Y46*%
G04 Gerber Fmt 4.6, Leading zero omitted, Abs format (unit mm)*
G04 Created by KiCad (PCBNEW 6.0.11+dfsg-1) date 2024-07-23 18:01:40*
%MOMM*%
%LPD*%
G01*
G04 APERTURE LIST*
%ADD10R,1.600000X1.600000*%
%ADD11C,1.600000*%
%ADD12C,2.700000*%
%ADD13C,1.400000*%
%ADD14C,3.200000*%
%ADD15C,2.400000*%
%ADD16C,1.700000*%
%ADD17R,1.700000X1.700000*%
%ADD18O,1.700000X1.700000*%
%ADD19R,4.000000X4.000000*%
%ADD20C,3.300000*%
%ADD21C,3.500000*%
%ADD22O,1.500000X1.500000*%
%ADD23O,1.800000X1.800000*%
%ADD24R,2.000000X2.000000*%
%ADD25C,2.000000*%
G04 APERTURE END LIST*
D10*
X80645000Y-101346000D03*
D11*
X83145000Y-101346000D03*
D12*
X70000000Y-74000000D03*
D13*
X116650000Y-68500000D03*
X123350000Y-68500000D03*
X116650000Y-71000000D03*
X123350000Y-71000000D03*
D14*
X120000000Y-64700000D03*
X113240000Y-65510000D03*
X126760000Y-65510000D03*
D13*
X96650000Y-68500000D03*
X103350000Y-68500000D03*
X96650000Y-71000000D03*
X103350000Y-71000000D03*
D14*
X100000000Y-64700000D03*
X106760000Y-65510000D03*
X93240000Y-65510000D03*
D13*
X68500000Y-126350000D03*
X68500000Y-119650000D03*
X71000000Y-126350000D03*
X71000000Y-119650000D03*
D14*
X64700000Y-123000000D03*
X65510000Y-129760000D03*
X65510000Y-116240000D03*
D15*
X149250000Y-142700000D03*
X156250000Y-142700000D03*
D16*
X155000000Y-145200000D03*
X150500000Y-145200000D03*
D17*
X156718000Y-132583000D03*
D18*
X156718000Y-135123000D03*
D11*
X63100000Y-94000000D03*
D19*
X72100000Y-94000000D03*
D20*
X66100000Y-94000000D03*
D21*
X65100000Y-89500000D03*
X65100000Y-98500000D03*
D22*
X107575000Y-141970000D03*
X112425000Y-141970000D03*
D23*
X107275000Y-145000000D03*
X112725000Y-145000000D03*
D18*
X118890000Y-145130000D03*
X118890000Y-142590000D03*
D17*
X118890000Y-140050000D03*
D18*
X118890000Y-137510000D03*
X118890000Y-134970000D03*
X118890000Y-132430000D03*
X118890000Y-129890000D03*
D17*
X118890000Y-127350000D03*
D18*
X118890000Y-124810000D03*
X118890000Y-122270000D03*
X118890000Y-119730000D03*
X118890000Y-117190000D03*
D17*
X118890000Y-114650000D03*
D18*
X118890000Y-112110000D03*
X118890000Y-109570000D03*
X118890000Y-107030000D03*
X118890000Y-104490000D03*
D17*
X118890000Y-101950000D03*
D18*
X118890000Y-99410000D03*
X118890000Y-96870000D03*
X101110000Y-96870000D03*
X101110000Y-99410000D03*
D17*
X101110000Y-101950000D03*
D18*
X101110000Y-104490000D03*
X101110000Y-107030000D03*
X101110000Y-109570000D03*
X101110000Y-112110000D03*
D17*
X101110000Y-114650000D03*
D18*
X101110000Y-117190000D03*
X101110000Y-119730000D03*
X101110000Y-122270000D03*
X101110000Y-124810000D03*
D17*
X101110000Y-127350000D03*
D18*
X101110000Y-129890000D03*
X101110000Y-132430000D03*
X101110000Y-134970000D03*
X101110000Y-137510000D03*
D17*
X101110000Y-140050000D03*
D18*
X101110000Y-142590000D03*
X101110000Y-145130000D03*
X112540000Y-97100000D03*
D17*
X110000000Y-97100000D03*
D18*
X107460000Y-97100000D03*
D13*
X136650000Y-68500000D03*
X143350000Y-68500000D03*
X136650000Y-71000000D03*
X143350000Y-71000000D03*
D14*
X133240000Y-65510000D03*
X140000000Y-64700000D03*
X146760000Y-65510000D03*
D24*
X152400000Y-109230000D03*
D25*
X152400000Y-116830000D03*
D17*
X88265000Y-110490000D03*
D18*
X88265000Y-113030000D03*
X88265000Y-115570000D03*
X88265000Y-118110000D03*
D12*
X150000000Y-74000000D03*
D25*
X64770000Y-109855000D03*
X69850000Y-109855000D03*
D13*
X76650000Y-68500000D03*
X83350000Y-68500000D03*
X76650000Y-71000000D03*
X83350000Y-71000000D03*
D14*
X80000000Y-64700000D03*
X86760000Y-65510000D03*
X73240000Y-65510000D03*
D12*
X150000000Y-134000000D03*
D13*
X83350000Y-139500000D03*
X76650000Y-139500000D03*
X83350000Y-137000000D03*
X76650000Y-137000000D03*
D14*
X86760000Y-142490000D03*
X80000000Y-143300000D03*
X73240000Y-142490000D03*
D12*
X70000000Y-134000000D03*
D17*
X91325000Y-137389000D03*
D18*
X93865000Y-137389000D03*
X91325000Y-139929000D03*
X93865000Y-139929000D03*
D17*
X71755000Y-102870000D03*
D18*
X69215000Y-102870000D03*
M02*
