%TF.GenerationSoftware,KiCad,Pcbnew,6.0.11+dfsg-1*%
%TF.CreationDate,2024-08-25T21:45:39-05:00*%
%TF.ProjectId,hootswitch,686f6f74-7377-4697-9463-682e6b696361,rev?*%
%TF.SameCoordinates,Original*%
%TF.FileFunction,Drillmap*%
%TF.FilePolarity,Positive*%
%FSLAX45Y45*%
G04 Gerber Fmt 4.5, Leading zero omitted, Abs format (unit mm)*
G04 Created by KiCad (PCBNEW 6.0.11+dfsg-1) date 2024-08-25 21:45:39*
%MOMM*%
%LPD*%
G01*
G04 APERTURE LIST*
%ADD10C,0.100000*%
%ADD11C,0.200000*%
%ADD12C,0.040000*%
%ADD13C,0.080000*%
%ADD14C,0.090000*%
%ADD15C,0.102000*%
%ADD16C,0.150000*%
%ADD17C,0.230000*%
%ADD18C,0.237000*%
%ADD19C,0.250000*%
%ADD20C,0.300000*%
G04 APERTURE END LIST*
D10*
X16000000Y-6000000D02*
X6000000Y-6000000D01*
X6000000Y-14800000D02*
X10400000Y-14800000D01*
X6000000Y-6000000D02*
X6000000Y-14800000D01*
X11500000Y-14700000D02*
X11600000Y-14800000D01*
X11600000Y-14800000D02*
X16000000Y-14800000D01*
X10400000Y-14800000D02*
X10500000Y-14700000D01*
X10500000Y-14700000D02*
X11500000Y-14700000D01*
X16000000Y-6000000D02*
X16000000Y-14800000D01*
D11*
D12*
X7269800Y-8285800D02*
X7309800Y-8325800D01*
X7309800Y-8285800D02*
X7269800Y-8325800D01*
X7503480Y-12936540D02*
X7543480Y-12976540D01*
X7543480Y-12936540D02*
X7503480Y-12976540D01*
X7600000Y-10457500D02*
X7640000Y-10497500D01*
X7640000Y-10457500D02*
X7600000Y-10497500D01*
X7727000Y-10584500D02*
X7767000Y-10624500D01*
X7767000Y-10584500D02*
X7727000Y-10624500D01*
X7752400Y-8616000D02*
X7792400Y-8656000D01*
X7792400Y-8616000D02*
X7752400Y-8656000D01*
X7878970Y-9124430D02*
X7918970Y-9164430D01*
X7918970Y-9124430D02*
X7878970Y-9164430D01*
X7879400Y-8616000D02*
X7919400Y-8656000D01*
X7919400Y-8616000D02*
X7879400Y-8656000D01*
X7879400Y-8971600D02*
X7919400Y-9011600D01*
X7919400Y-8971600D02*
X7879400Y-9011600D01*
X7981000Y-12997500D02*
X8021000Y-13037500D01*
X8021000Y-12997500D02*
X7981000Y-13037500D01*
X7981000Y-13188000D02*
X8021000Y-13228000D01*
X8021000Y-13188000D02*
X7981000Y-13228000D01*
X7981000Y-13378500D02*
X8021000Y-13418500D01*
X8021000Y-13378500D02*
X7981000Y-13418500D01*
X8108000Y-12362500D02*
X8148000Y-12402500D01*
X8148000Y-12362500D02*
X8108000Y-12402500D01*
X8133400Y-8412800D02*
X8173400Y-8452800D01*
X8173400Y-8412800D02*
X8133400Y-8452800D01*
X8273100Y-7803200D02*
X8313100Y-7843200D01*
X8313100Y-7803200D02*
X8273100Y-7843200D01*
X8298500Y-10648000D02*
X8338500Y-10688000D01*
X8338500Y-10648000D02*
X8298500Y-10688000D01*
X8298500Y-12299000D02*
X8338500Y-12339000D01*
X8338500Y-12299000D02*
X8298500Y-12339000D01*
X8489000Y-10838500D02*
X8529000Y-10878500D01*
X8529000Y-10838500D02*
X8489000Y-10878500D01*
X8577900Y-9136700D02*
X8617900Y-9176700D01*
X8617900Y-9136700D02*
X8577900Y-9176700D01*
X8679500Y-12997500D02*
X8719500Y-13037500D01*
X8719500Y-12997500D02*
X8679500Y-13037500D01*
X8920800Y-8260400D02*
X8960800Y-8300400D01*
X8960800Y-8260400D02*
X8920800Y-8300400D01*
X8997000Y-12362500D02*
X9037000Y-12402500D01*
X9037000Y-12362500D02*
X8997000Y-12402500D01*
X9047800Y-9009700D02*
X9087800Y-9049700D01*
X9087800Y-9009700D02*
X9047800Y-9049700D01*
X9047800Y-9695500D02*
X9087800Y-9735500D01*
X9087800Y-9695500D02*
X9047800Y-9735500D01*
X9162100Y-12489500D02*
X9202100Y-12529500D01*
X9202100Y-12489500D02*
X9162100Y-12529500D01*
X9162100Y-12654600D02*
X9202100Y-12694600D01*
X9202100Y-12654600D02*
X9162100Y-12694600D01*
X9187500Y-11791000D02*
X9227500Y-11831000D01*
X9227500Y-11791000D02*
X9187500Y-11831000D01*
X9276400Y-8285800D02*
X9316400Y-8325800D01*
X9316400Y-8285800D02*
X9276400Y-8325800D01*
X9644700Y-12210100D02*
X9684700Y-12250100D01*
X9684700Y-12210100D02*
X9644700Y-12250100D01*
X9644700Y-12464100D02*
X9684700Y-12504100D01*
X9684700Y-12464100D02*
X9644700Y-12504100D01*
X9860600Y-8895400D02*
X9900600Y-8935400D01*
X9900600Y-8895400D02*
X9860600Y-8935400D01*
X10114600Y-8412800D02*
X10154600Y-8452800D01*
X10154600Y-8412800D02*
X10114600Y-8452800D01*
X10279700Y-7803200D02*
X10319700Y-7843200D01*
X10319700Y-7803200D02*
X10279700Y-7843200D01*
X10584500Y-9124000D02*
X10624500Y-9164000D01*
X10624500Y-9124000D02*
X10584500Y-9164000D01*
X10927400Y-8285800D02*
X10967400Y-8325800D01*
X10967400Y-8285800D02*
X10927400Y-8325800D01*
X11054400Y-9022400D02*
X11094400Y-9062400D01*
X11094400Y-9022400D02*
X11054400Y-9062400D01*
X11232200Y-8895400D02*
X11272200Y-8935400D01*
X11272200Y-8895400D02*
X11232200Y-8935400D01*
X11257600Y-8285800D02*
X11297600Y-8325800D01*
X11297600Y-8285800D02*
X11257600Y-8325800D01*
X11791000Y-8895400D02*
X11831000Y-8935400D01*
X11831000Y-8895400D02*
X11791000Y-8935400D01*
X11968800Y-8895400D02*
X12008800Y-8935400D01*
X12008800Y-8895400D02*
X11968800Y-8935400D01*
X11968800Y-9352600D02*
X12008800Y-9392600D01*
X12008800Y-9352600D02*
X11968800Y-9392600D01*
X12095800Y-8412800D02*
X12135800Y-8452800D01*
X12135800Y-8412800D02*
X12095800Y-8452800D01*
X12121200Y-9352600D02*
X12161200Y-9392600D01*
X12161200Y-9352600D02*
X12121200Y-9392600D01*
X12273600Y-7790500D02*
X12313600Y-7830500D01*
X12313600Y-7790500D02*
X12273600Y-7830500D01*
X12286300Y-13467400D02*
X12326300Y-13507400D01*
X12326300Y-13467400D02*
X12286300Y-13507400D01*
X12286300Y-13721400D02*
X12326300Y-13761400D01*
X12326300Y-13721400D02*
X12286300Y-13761400D01*
X12286300Y-14242100D02*
X12326300Y-14282100D01*
X12326300Y-14242100D02*
X12286300Y-14282100D01*
X12286300Y-14496100D02*
X12326300Y-14536100D01*
X12326300Y-14496100D02*
X12286300Y-14536100D01*
X12451400Y-12705400D02*
X12491400Y-12745400D01*
X12491400Y-12705400D02*
X12451400Y-12745400D01*
X12451400Y-13200700D02*
X12491400Y-13240700D01*
X12491400Y-13200700D02*
X12451400Y-13240700D01*
X12553000Y-9124000D02*
X12593000Y-9164000D01*
X12593000Y-9124000D02*
X12553000Y-9164000D01*
X12743500Y-14496100D02*
X12783500Y-14536100D01*
X12783500Y-14496100D02*
X12743500Y-14536100D01*
X12832400Y-12705400D02*
X12872400Y-12745400D01*
X12872400Y-12705400D02*
X12832400Y-12745400D01*
X12832400Y-13200700D02*
X12872400Y-13240700D01*
X12872400Y-13200700D02*
X12832400Y-13240700D01*
X12934000Y-8285800D02*
X12974000Y-8325800D01*
X12974000Y-8285800D02*
X12934000Y-8325800D01*
X13061000Y-9403400D02*
X13101000Y-9443400D01*
X13101000Y-9403400D02*
X13061000Y-9443400D01*
X13124500Y-14242100D02*
X13164500Y-14282100D01*
X13164500Y-14242100D02*
X13124500Y-14282100D01*
X13213400Y-8882700D02*
X13253400Y-8922700D01*
X13253400Y-8882700D02*
X13213400Y-8922700D01*
X13213400Y-12705400D02*
X13253400Y-12745400D01*
X13253400Y-12705400D02*
X13213400Y-12745400D01*
X13213400Y-13200700D02*
X13253400Y-13240700D01*
X13253400Y-13200700D02*
X13213400Y-13240700D01*
X13226100Y-9403400D02*
X13266100Y-9443400D01*
X13266100Y-9403400D02*
X13226100Y-9443400D01*
X13289600Y-8285800D02*
X13329600Y-8325800D01*
X13329600Y-8285800D02*
X13289600Y-8325800D01*
X13391200Y-9403400D02*
X13431200Y-9443400D01*
X13431200Y-9403400D02*
X13391200Y-9443400D01*
X13505500Y-13721400D02*
X13545500Y-13761400D01*
X13545500Y-13721400D02*
X13505500Y-13761400D01*
X13594400Y-12705400D02*
X13634400Y-12745400D01*
X13634400Y-12705400D02*
X13594400Y-12745400D01*
X13594400Y-13200700D02*
X13634400Y-13240700D01*
X13634400Y-13200700D02*
X13594400Y-13240700D01*
X13607100Y-9022400D02*
X13647100Y-9062400D01*
X13647100Y-9022400D02*
X13607100Y-9062400D01*
X13772200Y-9022400D02*
X13812200Y-9062400D01*
X13812200Y-9022400D02*
X13772200Y-9062400D01*
X13899200Y-13721400D02*
X13939200Y-13761400D01*
X13939200Y-13721400D02*
X13899200Y-13761400D01*
X13975400Y-12705400D02*
X14015400Y-12745400D01*
X14015400Y-12705400D02*
X13975400Y-12745400D01*
X13975400Y-13200700D02*
X14015400Y-13240700D01*
X14015400Y-13200700D02*
X13975400Y-13240700D01*
X14127800Y-8412800D02*
X14167800Y-8452800D01*
X14167800Y-8412800D02*
X14127800Y-8452800D01*
X14267500Y-7815900D02*
X14307500Y-7855900D01*
X14307500Y-7815900D02*
X14267500Y-7855900D01*
X14356400Y-12705400D02*
X14396400Y-12745400D01*
X14396400Y-12705400D02*
X14356400Y-12745400D01*
X14356400Y-13200700D02*
X14396400Y-13240700D01*
X14396400Y-13200700D02*
X14356400Y-13240700D01*
X14521500Y-9098600D02*
X14561500Y-9138600D01*
X14561500Y-9098600D02*
X14521500Y-9138600D01*
X14915200Y-8285800D02*
X14955200Y-8325800D01*
X14955200Y-8285800D02*
X14915200Y-8325800D01*
X15054900Y-9022400D02*
X15094900Y-9062400D01*
X15094900Y-9022400D02*
X15054900Y-9062400D01*
X15093000Y-12629200D02*
X15133000Y-12669200D01*
X15133000Y-12629200D02*
X15093000Y-12669200D01*
X15461300Y-12108500D02*
X15501300Y-12148500D01*
X15501300Y-12108500D02*
X15461300Y-12148500D01*
X15702600Y-12718100D02*
X15742600Y-12758100D01*
X15742600Y-12718100D02*
X15702600Y-12758100D01*
D13*
X8104500Y-10134600D02*
G75*
G03*
X8104500Y-10134600I-40000J0D01*
G01*
X8354500Y-10134600D02*
G75*
G03*
X8354500Y-10134600I-40000J0D01*
G01*
D14*
X6850000Y-11920000D02*
X6850000Y-12010000D01*
X6805000Y-11965000D02*
X6895000Y-11965000D01*
X6850000Y-12590000D02*
X6850000Y-12680000D01*
X6805000Y-12635000D02*
X6895000Y-12635000D01*
X7100000Y-11920000D02*
X7100000Y-12010000D01*
X7055000Y-11965000D02*
X7145000Y-11965000D01*
X7100000Y-12590000D02*
X7100000Y-12680000D01*
X7055000Y-12635000D02*
X7145000Y-12635000D01*
X7665000Y-6805000D02*
X7665000Y-6895000D01*
X7620000Y-6850000D02*
X7710000Y-6850000D01*
X7665000Y-7055000D02*
X7665000Y-7145000D01*
X7620000Y-7100000D02*
X7710000Y-7100000D01*
X7665000Y-13655000D02*
X7665000Y-13745000D01*
X7620000Y-13700000D02*
X7710000Y-13700000D01*
X7665000Y-13905000D02*
X7665000Y-13995000D01*
X7620000Y-13950000D02*
X7710000Y-13950000D01*
X8335000Y-6805000D02*
X8335000Y-6895000D01*
X8290000Y-6850000D02*
X8380000Y-6850000D01*
X8335000Y-7055000D02*
X8335000Y-7145000D01*
X8290000Y-7100000D02*
X8380000Y-7100000D01*
X8335000Y-13655000D02*
X8335000Y-13745000D01*
X8290000Y-13700000D02*
X8380000Y-13700000D01*
X8335000Y-13905000D02*
X8335000Y-13995000D01*
X8290000Y-13950000D02*
X8380000Y-13950000D01*
X9665000Y-6805000D02*
X9665000Y-6895000D01*
X9620000Y-6850000D02*
X9710000Y-6850000D01*
X9665000Y-7055000D02*
X9665000Y-7145000D01*
X9620000Y-7100000D02*
X9710000Y-7100000D01*
X10335000Y-6805000D02*
X10335000Y-6895000D01*
X10290000Y-6850000D02*
X10380000Y-6850000D01*
X10335000Y-7055000D02*
X10335000Y-7145000D01*
X10290000Y-7100000D02*
X10380000Y-7100000D01*
X11665000Y-6805000D02*
X11665000Y-6895000D01*
X11620000Y-6850000D02*
X11710000Y-6850000D01*
X11665000Y-7055000D02*
X11665000Y-7145000D01*
X11620000Y-7100000D02*
X11710000Y-7100000D01*
X12335000Y-6805000D02*
X12335000Y-6895000D01*
X12290000Y-6850000D02*
X12380000Y-6850000D01*
X12335000Y-7055000D02*
X12335000Y-7145000D01*
X12290000Y-7100000D02*
X12380000Y-7100000D01*
X13665000Y-6805000D02*
X13665000Y-6895000D01*
X13620000Y-6850000D02*
X13710000Y-6850000D01*
X13665000Y-7055000D02*
X13665000Y-7145000D01*
X13620000Y-7100000D02*
X13710000Y-7100000D01*
X14335000Y-6805000D02*
X14335000Y-6895000D01*
X14290000Y-6850000D02*
X14380000Y-6850000D01*
X14335000Y-7055000D02*
X14335000Y-7145000D01*
X14290000Y-7100000D02*
X14380000Y-7100000D01*
D10*
X6512356Y-11020856D02*
X6512356Y-10950144D01*
X6441644Y-10950144D01*
X6441644Y-11020856D01*
X6512356Y-11020856D01*
X6956856Y-10322356D02*
X6956856Y-10251644D01*
X6886144Y-10251644D01*
X6886144Y-10322356D01*
X6956856Y-10322356D01*
X7020356Y-11020856D02*
X7020356Y-10950144D01*
X6949644Y-10950144D01*
X6949644Y-11020856D01*
X7020356Y-11020856D01*
X7210856Y-10322356D02*
X7210856Y-10251644D01*
X7140144Y-10251644D01*
X7140144Y-10322356D01*
X7210856Y-10322356D01*
X8861856Y-11084356D02*
X8861856Y-11013644D01*
X8791144Y-11013644D01*
X8791144Y-11084356D01*
X8861856Y-11084356D01*
X8861856Y-11338356D02*
X8861856Y-11267644D01*
X8791144Y-11267644D01*
X8791144Y-11338356D01*
X8861856Y-11338356D01*
X8861856Y-11592356D02*
X8861856Y-11521644D01*
X8791144Y-11521644D01*
X8791144Y-11592356D01*
X8861856Y-11592356D01*
X8861856Y-11846356D02*
X8861856Y-11775644D01*
X8791144Y-11775644D01*
X8791144Y-11846356D01*
X8861856Y-11846356D01*
X9167856Y-13774256D02*
X9167856Y-13703544D01*
X9097144Y-13703544D01*
X9097144Y-13774256D01*
X9167856Y-13774256D01*
X9167856Y-14028256D02*
X9167856Y-13957544D01*
X9097144Y-13957544D01*
X9097144Y-14028256D01*
X9167856Y-14028256D01*
X9421856Y-13774256D02*
X9421856Y-13703544D01*
X9351144Y-13703544D01*
X9351144Y-13774256D01*
X9421856Y-13774256D01*
X9421856Y-14028256D02*
X9421856Y-13957544D01*
X9351144Y-13957544D01*
X9351144Y-14028256D01*
X9421856Y-14028256D01*
X15085356Y-14555356D02*
X15085356Y-14484644D01*
X15014644Y-14484644D01*
X15014644Y-14555356D01*
X15085356Y-14555356D01*
X15275356Y-10958356D02*
X15275356Y-10887644D01*
X15204644Y-10887644D01*
X15204644Y-10958356D01*
X15275356Y-10958356D01*
X15275356Y-11718356D02*
X15275356Y-11647644D01*
X15204644Y-11647644D01*
X15204644Y-11718356D01*
X15275356Y-11718356D01*
X15535356Y-14555356D02*
X15535356Y-14484644D01*
X15464644Y-14484644D01*
X15464644Y-14555356D01*
X15535356Y-14555356D01*
X15707156Y-13293656D02*
X15707156Y-13222944D01*
X15636444Y-13222944D01*
X15636444Y-13293656D01*
X15707156Y-13293656D01*
X15707156Y-13547656D02*
X15707156Y-13476944D01*
X15636444Y-13476944D01*
X15636444Y-13547656D01*
X15707156Y-13547656D01*
D15*
X10111000Y-9738000D02*
X10162000Y-9687000D01*
X10111000Y-9636000D01*
X10060000Y-9687000D01*
X10111000Y-9738000D01*
X10111000Y-9992000D02*
X10162000Y-9941000D01*
X10111000Y-9890000D01*
X10060000Y-9941000D01*
X10111000Y-9992000D01*
X10111000Y-10246000D02*
X10162000Y-10195000D01*
X10111000Y-10144000D01*
X10060000Y-10195000D01*
X10111000Y-10246000D01*
X10111000Y-10500000D02*
X10162000Y-10449000D01*
X10111000Y-10398000D01*
X10060000Y-10449000D01*
X10111000Y-10500000D01*
X10111000Y-10754000D02*
X10162000Y-10703000D01*
X10111000Y-10652000D01*
X10060000Y-10703000D01*
X10111000Y-10754000D01*
X10111000Y-11008000D02*
X10162000Y-10957000D01*
X10111000Y-10906000D01*
X10060000Y-10957000D01*
X10111000Y-11008000D01*
X10111000Y-11262000D02*
X10162000Y-11211000D01*
X10111000Y-11160000D01*
X10060000Y-11211000D01*
X10111000Y-11262000D01*
X10111000Y-11516000D02*
X10162000Y-11465000D01*
X10111000Y-11414000D01*
X10060000Y-11465000D01*
X10111000Y-11516000D01*
X10111000Y-11770000D02*
X10162000Y-11719000D01*
X10111000Y-11668000D01*
X10060000Y-11719000D01*
X10111000Y-11770000D01*
X10111000Y-12024000D02*
X10162000Y-11973000D01*
X10111000Y-11922000D01*
X10060000Y-11973000D01*
X10111000Y-12024000D01*
X10111000Y-12278000D02*
X10162000Y-12227000D01*
X10111000Y-12176000D01*
X10060000Y-12227000D01*
X10111000Y-12278000D01*
X10111000Y-12532000D02*
X10162000Y-12481000D01*
X10111000Y-12430000D01*
X10060000Y-12481000D01*
X10111000Y-12532000D01*
X10111000Y-12786000D02*
X10162000Y-12735000D01*
X10111000Y-12684000D01*
X10060000Y-12735000D01*
X10111000Y-12786000D01*
X10111000Y-13040000D02*
X10162000Y-12989000D01*
X10111000Y-12938000D01*
X10060000Y-12989000D01*
X10111000Y-13040000D01*
X10111000Y-13294000D02*
X10162000Y-13243000D01*
X10111000Y-13192000D01*
X10060000Y-13243000D01*
X10111000Y-13294000D01*
X10111000Y-13548000D02*
X10162000Y-13497000D01*
X10111000Y-13446000D01*
X10060000Y-13497000D01*
X10111000Y-13548000D01*
X10111000Y-13802000D02*
X10162000Y-13751000D01*
X10111000Y-13700000D01*
X10060000Y-13751000D01*
X10111000Y-13802000D01*
X10111000Y-14056000D02*
X10162000Y-14005000D01*
X10111000Y-13954000D01*
X10060000Y-14005000D01*
X10111000Y-14056000D01*
X10111000Y-14310000D02*
X10162000Y-14259000D01*
X10111000Y-14208000D01*
X10060000Y-14259000D01*
X10111000Y-14310000D01*
X10111000Y-14564000D02*
X10162000Y-14513000D01*
X10111000Y-14462000D01*
X10060000Y-14513000D01*
X10111000Y-14564000D01*
X10433590Y-11591000D02*
X10484590Y-11540000D01*
X10433590Y-11489000D01*
X10382590Y-11540000D01*
X10433590Y-11591000D01*
X10687590Y-11591000D02*
X10738590Y-11540000D01*
X10687590Y-11489000D01*
X10636590Y-11540000D01*
X10687590Y-11591000D01*
X10941590Y-11591000D02*
X10992590Y-11540000D01*
X10941590Y-11489000D01*
X10890590Y-11540000D01*
X10941590Y-11591000D01*
X11889000Y-9738000D02*
X11940000Y-9687000D01*
X11889000Y-9636000D01*
X11838000Y-9687000D01*
X11889000Y-9738000D01*
X11889000Y-9992000D02*
X11940000Y-9941000D01*
X11889000Y-9890000D01*
X11838000Y-9941000D01*
X11889000Y-9992000D01*
X11889000Y-10246000D02*
X11940000Y-10195000D01*
X11889000Y-10144000D01*
X11838000Y-10195000D01*
X11889000Y-10246000D01*
X11889000Y-10500000D02*
X11940000Y-10449000D01*
X11889000Y-10398000D01*
X11838000Y-10449000D01*
X11889000Y-10500000D01*
X11889000Y-10754000D02*
X11940000Y-10703000D01*
X11889000Y-10652000D01*
X11838000Y-10703000D01*
X11889000Y-10754000D01*
X11889000Y-11008000D02*
X11940000Y-10957000D01*
X11889000Y-10906000D01*
X11838000Y-10957000D01*
X11889000Y-11008000D01*
X11889000Y-11262000D02*
X11940000Y-11211000D01*
X11889000Y-11160000D01*
X11838000Y-11211000D01*
X11889000Y-11262000D01*
X11889000Y-11516000D02*
X11940000Y-11465000D01*
X11889000Y-11414000D01*
X11838000Y-11465000D01*
X11889000Y-11516000D01*
X11889000Y-11770000D02*
X11940000Y-11719000D01*
X11889000Y-11668000D01*
X11838000Y-11719000D01*
X11889000Y-11770000D01*
X11889000Y-12024000D02*
X11940000Y-11973000D01*
X11889000Y-11922000D01*
X11838000Y-11973000D01*
X11889000Y-12024000D01*
X11889000Y-12278000D02*
X11940000Y-12227000D01*
X11889000Y-12176000D01*
X11838000Y-12227000D01*
X11889000Y-12278000D01*
X11889000Y-12532000D02*
X11940000Y-12481000D01*
X11889000Y-12430000D01*
X11838000Y-12481000D01*
X11889000Y-12532000D01*
X11889000Y-12786000D02*
X11940000Y-12735000D01*
X11889000Y-12684000D01*
X11838000Y-12735000D01*
X11889000Y-12786000D01*
X11889000Y-13040000D02*
X11940000Y-12989000D01*
X11889000Y-12938000D01*
X11838000Y-12989000D01*
X11889000Y-13040000D01*
X11889000Y-13294000D02*
X11940000Y-13243000D01*
X11889000Y-13192000D01*
X11838000Y-13243000D01*
X11889000Y-13294000D01*
X11889000Y-13548000D02*
X11940000Y-13497000D01*
X11889000Y-13446000D01*
X11838000Y-13497000D01*
X11889000Y-13548000D01*
X11889000Y-13802000D02*
X11940000Y-13751000D01*
X11889000Y-13700000D01*
X11838000Y-13751000D01*
X11889000Y-13802000D01*
X11889000Y-14056000D02*
X11940000Y-14005000D01*
X11889000Y-13954000D01*
X11838000Y-14005000D01*
X11889000Y-14056000D01*
X11889000Y-14310000D02*
X11940000Y-14259000D01*
X11889000Y-14208000D01*
X11838000Y-14259000D01*
X11889000Y-14310000D01*
X11889000Y-14564000D02*
X11940000Y-14513000D01*
X11889000Y-14462000D01*
X11838000Y-14513000D01*
X11889000Y-14564000D01*
D16*
X14850000Y-14195000D02*
X15000000Y-14345000D01*
X15000000Y-14195000D02*
X14850000Y-14345000D01*
X15000000Y-14270000D02*
G75*
G03*
X15000000Y-14270000I-75000J0D01*
G01*
X15550000Y-14195000D02*
X15700000Y-14345000D01*
X15700000Y-14195000D02*
X15550000Y-14345000D01*
X15700000Y-14270000D02*
G75*
G03*
X15700000Y-14270000I-75000J0D01*
G01*
D17*
X6495000Y-9285000D02*
X6725000Y-9515000D01*
X6725000Y-9285000D02*
X6495000Y-9515000D01*
X6610000Y-9285000D02*
X6610000Y-9515000D01*
X6495000Y-9400000D02*
X6725000Y-9400000D01*
D18*
X6351500Y-12181500D02*
X6588500Y-12418500D01*
X6588500Y-12181500D02*
X6351500Y-12418500D01*
X6553793Y-12383793D02*
X6553793Y-12216207D01*
X6386207Y-12216207D01*
X6386207Y-12383793D01*
X6553793Y-12383793D01*
X6432500Y-11505500D02*
X6669500Y-11742500D01*
X6669500Y-11505500D02*
X6432500Y-11742500D01*
X6634793Y-11707793D02*
X6634793Y-11540207D01*
X6467207Y-11540207D01*
X6467207Y-11707793D01*
X6634793Y-11707793D01*
X6432500Y-12857500D02*
X6669500Y-13094500D01*
X6669500Y-12857500D02*
X6432500Y-13094500D01*
X6634793Y-13059793D02*
X6634793Y-12892207D01*
X6467207Y-12892207D01*
X6467207Y-13059793D01*
X6634793Y-13059793D01*
X7205500Y-6432500D02*
X7442500Y-6669500D01*
X7442500Y-6432500D02*
X7205500Y-6669500D01*
X7407793Y-6634793D02*
X7407793Y-6467207D01*
X7240207Y-6467207D01*
X7240207Y-6634793D01*
X7407793Y-6634793D01*
X7205500Y-14130500D02*
X7442500Y-14367500D01*
X7442500Y-14130500D02*
X7205500Y-14367500D01*
X7407793Y-14332793D02*
X7407793Y-14165207D01*
X7240207Y-14165207D01*
X7240207Y-14332793D01*
X7407793Y-14332793D01*
X7881500Y-6351500D02*
X8118500Y-6588500D01*
X8118500Y-6351500D02*
X7881500Y-6588500D01*
X8083793Y-6553793D02*
X8083793Y-6386207D01*
X7916207Y-6386207D01*
X7916207Y-6553793D01*
X8083793Y-6553793D01*
X7881500Y-14211500D02*
X8118500Y-14448500D01*
X8118500Y-14211500D02*
X7881500Y-14448500D01*
X8083793Y-14413793D02*
X8083793Y-14246207D01*
X7916207Y-14246207D01*
X7916207Y-14413793D01*
X8083793Y-14413793D01*
X8557500Y-6432500D02*
X8794500Y-6669500D01*
X8794500Y-6432500D02*
X8557500Y-6669500D01*
X8759793Y-6634793D02*
X8759793Y-6467207D01*
X8592207Y-6467207D01*
X8592207Y-6634793D01*
X8759793Y-6634793D01*
X8557500Y-14130500D02*
X8794500Y-14367500D01*
X8794500Y-14130500D02*
X8557500Y-14367500D01*
X8759793Y-14332793D02*
X8759793Y-14165207D01*
X8592207Y-14165207D01*
X8592207Y-14332793D01*
X8759793Y-14332793D01*
X9205500Y-6432500D02*
X9442500Y-6669500D01*
X9442500Y-6432500D02*
X9205500Y-6669500D01*
X9407793Y-6634793D02*
X9407793Y-6467207D01*
X9240207Y-6467207D01*
X9240207Y-6634793D01*
X9407793Y-6634793D01*
X9881500Y-6351500D02*
X10118500Y-6588500D01*
X10118500Y-6351500D02*
X9881500Y-6588500D01*
X10083793Y-6553793D02*
X10083793Y-6386207D01*
X9916207Y-6386207D01*
X9916207Y-6553793D01*
X10083793Y-6553793D01*
X10557500Y-6432500D02*
X10794500Y-6669500D01*
X10794500Y-6432500D02*
X10557500Y-6669500D01*
X10759793Y-6634793D02*
X10759793Y-6467207D01*
X10592207Y-6467207D01*
X10592207Y-6634793D01*
X10759793Y-6634793D01*
X11205500Y-6432500D02*
X11442500Y-6669500D01*
X11442500Y-6432500D02*
X11205500Y-6669500D01*
X11407793Y-6634793D02*
X11407793Y-6467207D01*
X11240207Y-6467207D01*
X11240207Y-6634793D01*
X11407793Y-6634793D01*
X11881500Y-6351500D02*
X12118500Y-6588500D01*
X12118500Y-6351500D02*
X11881500Y-6588500D01*
X12083793Y-6553793D02*
X12083793Y-6386207D01*
X11916207Y-6386207D01*
X11916207Y-6553793D01*
X12083793Y-6553793D01*
X12557500Y-6432500D02*
X12794500Y-6669500D01*
X12794500Y-6432500D02*
X12557500Y-6669500D01*
X12759793Y-6634793D02*
X12759793Y-6467207D01*
X12592207Y-6467207D01*
X12592207Y-6634793D01*
X12759793Y-6634793D01*
X13205500Y-6432500D02*
X13442500Y-6669500D01*
X13442500Y-6432500D02*
X13205500Y-6669500D01*
X13407793Y-6634793D02*
X13407793Y-6467207D01*
X13240207Y-6467207D01*
X13240207Y-6634793D01*
X13407793Y-6634793D01*
X13881500Y-6351500D02*
X14118500Y-6588500D01*
X14118500Y-6351500D02*
X13881500Y-6588500D01*
X14083793Y-6553793D02*
X14083793Y-6386207D01*
X13916207Y-6386207D01*
X13916207Y-6553793D01*
X14083793Y-6553793D01*
X14557500Y-6432500D02*
X14794500Y-6669500D01*
X14794500Y-6432500D02*
X14557500Y-6669500D01*
X14759793Y-6634793D02*
X14759793Y-6467207D01*
X14592207Y-6467207D01*
X14592207Y-6634793D01*
X14759793Y-6634793D01*
D19*
X6385000Y-8825000D02*
X6635000Y-9075000D01*
X6635000Y-8825000D02*
X6385000Y-9075000D01*
X6510000Y-9075000D02*
X6635000Y-8950000D01*
X6510000Y-8825000D01*
X6385000Y-8950000D01*
X6510000Y-9075000D01*
X6385000Y-9725000D02*
X6635000Y-9975000D01*
X6635000Y-9725000D02*
X6385000Y-9975000D01*
X6510000Y-9975000D02*
X6635000Y-9850000D01*
X6510000Y-9725000D01*
X6385000Y-9850000D01*
X6510000Y-9975000D01*
D20*
X7210000Y-9250000D02*
X7210000Y-9550000D01*
X7060000Y-9400000D02*
X7360000Y-9400000D01*
X7360000Y-9400000D02*
G75*
G03*
X7360000Y-9400000I-150000J0D01*
G01*
D11*
X6252619Y-15115476D02*
X6252619Y-14915476D01*
X6300238Y-14915476D01*
X6328809Y-14925000D01*
X6347857Y-14944048D01*
X6357381Y-14963095D01*
X6366905Y-15001190D01*
X6366905Y-15029762D01*
X6357381Y-15067857D01*
X6347857Y-15086905D01*
X6328809Y-15105952D01*
X6300238Y-15115476D01*
X6252619Y-15115476D01*
X6452619Y-15115476D02*
X6452619Y-14982143D01*
X6452619Y-15020238D02*
X6462143Y-15001190D01*
X6471667Y-14991667D01*
X6490714Y-14982143D01*
X6509762Y-14982143D01*
X6576428Y-15115476D02*
X6576428Y-14982143D01*
X6576428Y-14915476D02*
X6566905Y-14925000D01*
X6576428Y-14934524D01*
X6585952Y-14925000D01*
X6576428Y-14915476D01*
X6576428Y-14934524D01*
X6700238Y-15115476D02*
X6681190Y-15105952D01*
X6671667Y-15086905D01*
X6671667Y-14915476D01*
X6805000Y-15115476D02*
X6785952Y-15105952D01*
X6776428Y-15086905D01*
X6776428Y-14915476D01*
X7033571Y-15115476D02*
X7033571Y-14915476D01*
X7100238Y-15058333D01*
X7166905Y-14915476D01*
X7166905Y-15115476D01*
X7347857Y-15115476D02*
X7347857Y-15010714D01*
X7338333Y-14991667D01*
X7319286Y-14982143D01*
X7281190Y-14982143D01*
X7262143Y-14991667D01*
X7347857Y-15105952D02*
X7328809Y-15115476D01*
X7281190Y-15115476D01*
X7262143Y-15105952D01*
X7252619Y-15086905D01*
X7252619Y-15067857D01*
X7262143Y-15048809D01*
X7281190Y-15039286D01*
X7328809Y-15039286D01*
X7347857Y-15029762D01*
X7443095Y-14982143D02*
X7443095Y-15182143D01*
X7443095Y-14991667D02*
X7462143Y-14982143D01*
X7500238Y-14982143D01*
X7519286Y-14991667D01*
X7528809Y-15001190D01*
X7538333Y-15020238D01*
X7538333Y-15077381D01*
X7528809Y-15096428D01*
X7519286Y-15105952D01*
X7500238Y-15115476D01*
X7462143Y-15115476D01*
X7443095Y-15105952D01*
X7624048Y-15096428D02*
X7633571Y-15105952D01*
X7624048Y-15115476D01*
X7614524Y-15105952D01*
X7624048Y-15096428D01*
X7624048Y-15115476D01*
X7624048Y-14991667D02*
X7633571Y-15001190D01*
X7624048Y-15010714D01*
X7614524Y-15001190D01*
X7624048Y-14991667D01*
X7624048Y-15010714D01*
D12*
X5955000Y-15425000D02*
X5995000Y-15465000D01*
X5995000Y-15425000D02*
X5955000Y-15465000D01*
D11*
X6290714Y-15335476D02*
X6309762Y-15335476D01*
X6328809Y-15345000D01*
X6338333Y-15354524D01*
X6347857Y-15373571D01*
X6357381Y-15411667D01*
X6357381Y-15459286D01*
X6347857Y-15497381D01*
X6338333Y-15516428D01*
X6328809Y-15525952D01*
X6309762Y-15535476D01*
X6290714Y-15535476D01*
X6271667Y-15525952D01*
X6262143Y-15516428D01*
X6252619Y-15497381D01*
X6243095Y-15459286D01*
X6243095Y-15411667D01*
X6252619Y-15373571D01*
X6262143Y-15354524D01*
X6271667Y-15345000D01*
X6290714Y-15335476D01*
X6443095Y-15516428D02*
X6452619Y-15525952D01*
X6443095Y-15535476D01*
X6433571Y-15525952D01*
X6443095Y-15516428D01*
X6443095Y-15535476D01*
X6624048Y-15402143D02*
X6624048Y-15535476D01*
X6576428Y-15325952D02*
X6528809Y-15468809D01*
X6652619Y-15468809D01*
X6766905Y-15335476D02*
X6785952Y-15335476D01*
X6805000Y-15345000D01*
X6814524Y-15354524D01*
X6824048Y-15373571D01*
X6833571Y-15411667D01*
X6833571Y-15459286D01*
X6824048Y-15497381D01*
X6814524Y-15516428D01*
X6805000Y-15525952D01*
X6785952Y-15535476D01*
X6766905Y-15535476D01*
X6747857Y-15525952D01*
X6738333Y-15516428D01*
X6728809Y-15497381D01*
X6719286Y-15459286D01*
X6719286Y-15411667D01*
X6728809Y-15373571D01*
X6738333Y-15354524D01*
X6747857Y-15345000D01*
X6766905Y-15335476D01*
X6957381Y-15335476D02*
X6976428Y-15335476D01*
X6995476Y-15345000D01*
X7005000Y-15354524D01*
X7014524Y-15373571D01*
X7024048Y-15411667D01*
X7024048Y-15459286D01*
X7014524Y-15497381D01*
X7005000Y-15516428D01*
X6995476Y-15525952D01*
X6976428Y-15535476D01*
X6957381Y-15535476D01*
X6938333Y-15525952D01*
X6928809Y-15516428D01*
X6919286Y-15497381D01*
X6909762Y-15459286D01*
X6909762Y-15411667D01*
X6919286Y-15373571D01*
X6928809Y-15354524D01*
X6938333Y-15345000D01*
X6957381Y-15335476D01*
X7109762Y-15535476D02*
X7109762Y-15402143D01*
X7109762Y-15421190D02*
X7119286Y-15411667D01*
X7138333Y-15402143D01*
X7166905Y-15402143D01*
X7185952Y-15411667D01*
X7195476Y-15430714D01*
X7195476Y-15535476D01*
X7195476Y-15430714D02*
X7205000Y-15411667D01*
X7224048Y-15402143D01*
X7252619Y-15402143D01*
X7271667Y-15411667D01*
X7281190Y-15430714D01*
X7281190Y-15535476D01*
X7376428Y-15535476D02*
X7376428Y-15402143D01*
X7376428Y-15421190D02*
X7385952Y-15411667D01*
X7405000Y-15402143D01*
X7433571Y-15402143D01*
X7452619Y-15411667D01*
X7462143Y-15430714D01*
X7462143Y-15535476D01*
X7462143Y-15430714D02*
X7471667Y-15411667D01*
X7490714Y-15402143D01*
X7519286Y-15402143D01*
X7538333Y-15411667D01*
X7547857Y-15430714D01*
X7547857Y-15535476D01*
X7938333Y-15325952D02*
X7766905Y-15583095D01*
X8195476Y-15335476D02*
X8214524Y-15335476D01*
X8233571Y-15345000D01*
X8243095Y-15354524D01*
X8252619Y-15373571D01*
X8262143Y-15411667D01*
X8262143Y-15459286D01*
X8252619Y-15497381D01*
X8243095Y-15516428D01*
X8233571Y-15525952D01*
X8214524Y-15535476D01*
X8195476Y-15535476D01*
X8176428Y-15525952D01*
X8166905Y-15516428D01*
X8157381Y-15497381D01*
X8147857Y-15459286D01*
X8147857Y-15411667D01*
X8157381Y-15373571D01*
X8166905Y-15354524D01*
X8176428Y-15345000D01*
X8195476Y-15335476D01*
X8347857Y-15516428D02*
X8357381Y-15525952D01*
X8347857Y-15535476D01*
X8338333Y-15525952D01*
X8347857Y-15516428D01*
X8347857Y-15535476D01*
X8481190Y-15335476D02*
X8500238Y-15335476D01*
X8519286Y-15345000D01*
X8528810Y-15354524D01*
X8538333Y-15373571D01*
X8547857Y-15411667D01*
X8547857Y-15459286D01*
X8538333Y-15497381D01*
X8528810Y-15516428D01*
X8519286Y-15525952D01*
X8500238Y-15535476D01*
X8481190Y-15535476D01*
X8462143Y-15525952D01*
X8452619Y-15516428D01*
X8443095Y-15497381D01*
X8433571Y-15459286D01*
X8433571Y-15411667D01*
X8443095Y-15373571D01*
X8452619Y-15354524D01*
X8462143Y-15345000D01*
X8481190Y-15335476D01*
X8738333Y-15535476D02*
X8624048Y-15535476D01*
X8681190Y-15535476D02*
X8681190Y-15335476D01*
X8662143Y-15364048D01*
X8643095Y-15383095D01*
X8624048Y-15392619D01*
X8919286Y-15335476D02*
X8824048Y-15335476D01*
X8814524Y-15430714D01*
X8824048Y-15421190D01*
X8843095Y-15411667D01*
X8890714Y-15411667D01*
X8909762Y-15421190D01*
X8919286Y-15430714D01*
X8928810Y-15449762D01*
X8928810Y-15497381D01*
X8919286Y-15516428D01*
X8909762Y-15525952D01*
X8890714Y-15535476D01*
X8843095Y-15535476D01*
X8824048Y-15525952D01*
X8814524Y-15516428D01*
X8995476Y-15335476D02*
X9128810Y-15335476D01*
X9043095Y-15535476D01*
X9195476Y-15335476D02*
X9195476Y-15373571D01*
X9271667Y-15335476D02*
X9271667Y-15373571D01*
X9566905Y-15611667D02*
X9557381Y-15602143D01*
X9538333Y-15573571D01*
X9528810Y-15554524D01*
X9519286Y-15525952D01*
X9509762Y-15478333D01*
X9509762Y-15440238D01*
X9519286Y-15392619D01*
X9528810Y-15364048D01*
X9538333Y-15345000D01*
X9557381Y-15316428D01*
X9566905Y-15306905D01*
X9671667Y-15421190D02*
X9652619Y-15411667D01*
X9643095Y-15402143D01*
X9633571Y-15383095D01*
X9633571Y-15373571D01*
X9643095Y-15354524D01*
X9652619Y-15345000D01*
X9671667Y-15335476D01*
X9709762Y-15335476D01*
X9728810Y-15345000D01*
X9738333Y-15354524D01*
X9747857Y-15373571D01*
X9747857Y-15383095D01*
X9738333Y-15402143D01*
X9728810Y-15411667D01*
X9709762Y-15421190D01*
X9671667Y-15421190D01*
X9652619Y-15430714D01*
X9643095Y-15440238D01*
X9633571Y-15459286D01*
X9633571Y-15497381D01*
X9643095Y-15516428D01*
X9652619Y-15525952D01*
X9671667Y-15535476D01*
X9709762Y-15535476D01*
X9728810Y-15525952D01*
X9738333Y-15516428D01*
X9747857Y-15497381D01*
X9747857Y-15459286D01*
X9738333Y-15440238D01*
X9728810Y-15430714D01*
X9709762Y-15421190D01*
X9871667Y-15335476D02*
X9890714Y-15335476D01*
X9909762Y-15345000D01*
X9919286Y-15354524D01*
X9928810Y-15373571D01*
X9938333Y-15411667D01*
X9938333Y-15459286D01*
X9928810Y-15497381D01*
X9919286Y-15516428D01*
X9909762Y-15525952D01*
X9890714Y-15535476D01*
X9871667Y-15535476D01*
X9852619Y-15525952D01*
X9843095Y-15516428D01*
X9833571Y-15497381D01*
X9824048Y-15459286D01*
X9824048Y-15411667D01*
X9833571Y-15373571D01*
X9843095Y-15354524D01*
X9852619Y-15345000D01*
X9871667Y-15335476D01*
X10176429Y-15535476D02*
X10176429Y-15335476D01*
X10262143Y-15535476D02*
X10262143Y-15430714D01*
X10252619Y-15411667D01*
X10233571Y-15402143D01*
X10205000Y-15402143D01*
X10185952Y-15411667D01*
X10176429Y-15421190D01*
X10385952Y-15535476D02*
X10366905Y-15525952D01*
X10357381Y-15516428D01*
X10347857Y-15497381D01*
X10347857Y-15440238D01*
X10357381Y-15421190D01*
X10366905Y-15411667D01*
X10385952Y-15402143D01*
X10414524Y-15402143D01*
X10433571Y-15411667D01*
X10443095Y-15421190D01*
X10452619Y-15440238D01*
X10452619Y-15497381D01*
X10443095Y-15516428D01*
X10433571Y-15525952D01*
X10414524Y-15535476D01*
X10385952Y-15535476D01*
X10566905Y-15535476D02*
X10547857Y-15525952D01*
X10538333Y-15506905D01*
X10538333Y-15335476D01*
X10719286Y-15525952D02*
X10700238Y-15535476D01*
X10662143Y-15535476D01*
X10643095Y-15525952D01*
X10633571Y-15506905D01*
X10633571Y-15430714D01*
X10643095Y-15411667D01*
X10662143Y-15402143D01*
X10700238Y-15402143D01*
X10719286Y-15411667D01*
X10728810Y-15430714D01*
X10728810Y-15449762D01*
X10633571Y-15468809D01*
X10805000Y-15525952D02*
X10824048Y-15535476D01*
X10862143Y-15535476D01*
X10881190Y-15525952D01*
X10890714Y-15506905D01*
X10890714Y-15497381D01*
X10881190Y-15478333D01*
X10862143Y-15468809D01*
X10833571Y-15468809D01*
X10814524Y-15459286D01*
X10805000Y-15440238D01*
X10805000Y-15430714D01*
X10814524Y-15411667D01*
X10833571Y-15402143D01*
X10862143Y-15402143D01*
X10881190Y-15411667D01*
X10957381Y-15611667D02*
X10966905Y-15602143D01*
X10985952Y-15573571D01*
X10995476Y-15554524D01*
X11005000Y-15525952D01*
X11014524Y-15478333D01*
X11014524Y-15440238D01*
X11005000Y-15392619D01*
X10995476Y-15364048D01*
X10985952Y-15345000D01*
X10966905Y-15316428D01*
X10957381Y-15306905D01*
D13*
X5995000Y-15709000D02*
G75*
G03*
X5995000Y-15709000I-40000J0D01*
G01*
D11*
X6290714Y-15599476D02*
X6309762Y-15599476D01*
X6328809Y-15609000D01*
X6338333Y-15618524D01*
X6347857Y-15637571D01*
X6357381Y-15675667D01*
X6357381Y-15723286D01*
X6347857Y-15761381D01*
X6338333Y-15780428D01*
X6328809Y-15789952D01*
X6309762Y-15799476D01*
X6290714Y-15799476D01*
X6271667Y-15789952D01*
X6262143Y-15780428D01*
X6252619Y-15761381D01*
X6243095Y-15723286D01*
X6243095Y-15675667D01*
X6252619Y-15637571D01*
X6262143Y-15618524D01*
X6271667Y-15609000D01*
X6290714Y-15599476D01*
X6443095Y-15780428D02*
X6452619Y-15789952D01*
X6443095Y-15799476D01*
X6433571Y-15789952D01*
X6443095Y-15780428D01*
X6443095Y-15799476D01*
X6566905Y-15685190D02*
X6547857Y-15675667D01*
X6538333Y-15666143D01*
X6528809Y-15647095D01*
X6528809Y-15637571D01*
X6538333Y-15618524D01*
X6547857Y-15609000D01*
X6566905Y-15599476D01*
X6605000Y-15599476D01*
X6624048Y-15609000D01*
X6633571Y-15618524D01*
X6643095Y-15637571D01*
X6643095Y-15647095D01*
X6633571Y-15666143D01*
X6624048Y-15675667D01*
X6605000Y-15685190D01*
X6566905Y-15685190D01*
X6547857Y-15694714D01*
X6538333Y-15704238D01*
X6528809Y-15723286D01*
X6528809Y-15761381D01*
X6538333Y-15780428D01*
X6547857Y-15789952D01*
X6566905Y-15799476D01*
X6605000Y-15799476D01*
X6624048Y-15789952D01*
X6633571Y-15780428D01*
X6643095Y-15761381D01*
X6643095Y-15723286D01*
X6633571Y-15704238D01*
X6624048Y-15694714D01*
X6605000Y-15685190D01*
X6766905Y-15599476D02*
X6785952Y-15599476D01*
X6805000Y-15609000D01*
X6814524Y-15618524D01*
X6824048Y-15637571D01*
X6833571Y-15675667D01*
X6833571Y-15723286D01*
X6824048Y-15761381D01*
X6814524Y-15780428D01*
X6805000Y-15789952D01*
X6785952Y-15799476D01*
X6766905Y-15799476D01*
X6747857Y-15789952D01*
X6738333Y-15780428D01*
X6728809Y-15761381D01*
X6719286Y-15723286D01*
X6719286Y-15675667D01*
X6728809Y-15637571D01*
X6738333Y-15618524D01*
X6747857Y-15609000D01*
X6766905Y-15599476D01*
X6957381Y-15599476D02*
X6976428Y-15599476D01*
X6995476Y-15609000D01*
X7005000Y-15618524D01*
X7014524Y-15637571D01*
X7024048Y-15675667D01*
X7024048Y-15723286D01*
X7014524Y-15761381D01*
X7005000Y-15780428D01*
X6995476Y-15789952D01*
X6976428Y-15799476D01*
X6957381Y-15799476D01*
X6938333Y-15789952D01*
X6928809Y-15780428D01*
X6919286Y-15761381D01*
X6909762Y-15723286D01*
X6909762Y-15675667D01*
X6919286Y-15637571D01*
X6928809Y-15618524D01*
X6938333Y-15609000D01*
X6957381Y-15599476D01*
X7109762Y-15799476D02*
X7109762Y-15666143D01*
X7109762Y-15685190D02*
X7119286Y-15675667D01*
X7138333Y-15666143D01*
X7166905Y-15666143D01*
X7185952Y-15675667D01*
X7195476Y-15694714D01*
X7195476Y-15799476D01*
X7195476Y-15694714D02*
X7205000Y-15675667D01*
X7224048Y-15666143D01*
X7252619Y-15666143D01*
X7271667Y-15675667D01*
X7281190Y-15694714D01*
X7281190Y-15799476D01*
X7376428Y-15799476D02*
X7376428Y-15666143D01*
X7376428Y-15685190D02*
X7385952Y-15675667D01*
X7405000Y-15666143D01*
X7433571Y-15666143D01*
X7452619Y-15675667D01*
X7462143Y-15694714D01*
X7462143Y-15799476D01*
X7462143Y-15694714D02*
X7471667Y-15675667D01*
X7490714Y-15666143D01*
X7519286Y-15666143D01*
X7538333Y-15675667D01*
X7547857Y-15694714D01*
X7547857Y-15799476D01*
X7938333Y-15589952D02*
X7766905Y-15847095D01*
X8195476Y-15599476D02*
X8214524Y-15599476D01*
X8233571Y-15609000D01*
X8243095Y-15618524D01*
X8252619Y-15637571D01*
X8262143Y-15675667D01*
X8262143Y-15723286D01*
X8252619Y-15761381D01*
X8243095Y-15780428D01*
X8233571Y-15789952D01*
X8214524Y-15799476D01*
X8195476Y-15799476D01*
X8176428Y-15789952D01*
X8166905Y-15780428D01*
X8157381Y-15761381D01*
X8147857Y-15723286D01*
X8147857Y-15675667D01*
X8157381Y-15637571D01*
X8166905Y-15618524D01*
X8176428Y-15609000D01*
X8195476Y-15599476D01*
X8347857Y-15780428D02*
X8357381Y-15789952D01*
X8347857Y-15799476D01*
X8338333Y-15789952D01*
X8347857Y-15780428D01*
X8347857Y-15799476D01*
X8481190Y-15599476D02*
X8500238Y-15599476D01*
X8519286Y-15609000D01*
X8528810Y-15618524D01*
X8538333Y-15637571D01*
X8547857Y-15675667D01*
X8547857Y-15723286D01*
X8538333Y-15761381D01*
X8528810Y-15780428D01*
X8519286Y-15789952D01*
X8500238Y-15799476D01*
X8481190Y-15799476D01*
X8462143Y-15789952D01*
X8452619Y-15780428D01*
X8443095Y-15761381D01*
X8433571Y-15723286D01*
X8433571Y-15675667D01*
X8443095Y-15637571D01*
X8452619Y-15618524D01*
X8462143Y-15609000D01*
X8481190Y-15599476D01*
X8614524Y-15599476D02*
X8738333Y-15599476D01*
X8671667Y-15675667D01*
X8700238Y-15675667D01*
X8719286Y-15685190D01*
X8728810Y-15694714D01*
X8738333Y-15713762D01*
X8738333Y-15761381D01*
X8728810Y-15780428D01*
X8719286Y-15789952D01*
X8700238Y-15799476D01*
X8643095Y-15799476D01*
X8624048Y-15789952D01*
X8614524Y-15780428D01*
X8928810Y-15799476D02*
X8814524Y-15799476D01*
X8871667Y-15799476D02*
X8871667Y-15599476D01*
X8852619Y-15628048D01*
X8833571Y-15647095D01*
X8814524Y-15656619D01*
X9109762Y-15599476D02*
X9014524Y-15599476D01*
X9005000Y-15694714D01*
X9014524Y-15685190D01*
X9033571Y-15675667D01*
X9081190Y-15675667D01*
X9100238Y-15685190D01*
X9109762Y-15694714D01*
X9119286Y-15713762D01*
X9119286Y-15761381D01*
X9109762Y-15780428D01*
X9100238Y-15789952D01*
X9081190Y-15799476D01*
X9033571Y-15799476D01*
X9014524Y-15789952D01*
X9005000Y-15780428D01*
X9195476Y-15599476D02*
X9195476Y-15637571D01*
X9271667Y-15599476D02*
X9271667Y-15637571D01*
X9566905Y-15875667D02*
X9557381Y-15866143D01*
X9538333Y-15837571D01*
X9528810Y-15818524D01*
X9519286Y-15789952D01*
X9509762Y-15742333D01*
X9509762Y-15704238D01*
X9519286Y-15656619D01*
X9528810Y-15628048D01*
X9538333Y-15609000D01*
X9557381Y-15580428D01*
X9566905Y-15570905D01*
X9633571Y-15618524D02*
X9643095Y-15609000D01*
X9662143Y-15599476D01*
X9709762Y-15599476D01*
X9728810Y-15609000D01*
X9738333Y-15618524D01*
X9747857Y-15637571D01*
X9747857Y-15656619D01*
X9738333Y-15685190D01*
X9624048Y-15799476D01*
X9747857Y-15799476D01*
X9985952Y-15799476D02*
X9985952Y-15599476D01*
X10071667Y-15799476D02*
X10071667Y-15694714D01*
X10062143Y-15675667D01*
X10043095Y-15666143D01*
X10014524Y-15666143D01*
X9995476Y-15675667D01*
X9985952Y-15685190D01*
X10195476Y-15799476D02*
X10176429Y-15789952D01*
X10166905Y-15780428D01*
X10157381Y-15761381D01*
X10157381Y-15704238D01*
X10166905Y-15685190D01*
X10176429Y-15675667D01*
X10195476Y-15666143D01*
X10224048Y-15666143D01*
X10243095Y-15675667D01*
X10252619Y-15685190D01*
X10262143Y-15704238D01*
X10262143Y-15761381D01*
X10252619Y-15780428D01*
X10243095Y-15789952D01*
X10224048Y-15799476D01*
X10195476Y-15799476D01*
X10376429Y-15799476D02*
X10357381Y-15789952D01*
X10347857Y-15770905D01*
X10347857Y-15599476D01*
X10528810Y-15789952D02*
X10509762Y-15799476D01*
X10471667Y-15799476D01*
X10452619Y-15789952D01*
X10443095Y-15770905D01*
X10443095Y-15694714D01*
X10452619Y-15675667D01*
X10471667Y-15666143D01*
X10509762Y-15666143D01*
X10528810Y-15675667D01*
X10538333Y-15694714D01*
X10538333Y-15713762D01*
X10443095Y-15732809D01*
X10614524Y-15789952D02*
X10633571Y-15799476D01*
X10671667Y-15799476D01*
X10690714Y-15789952D01*
X10700238Y-15770905D01*
X10700238Y-15761381D01*
X10690714Y-15742333D01*
X10671667Y-15732809D01*
X10643095Y-15732809D01*
X10624048Y-15723286D01*
X10614524Y-15704238D01*
X10614524Y-15694714D01*
X10624048Y-15675667D01*
X10643095Y-15666143D01*
X10671667Y-15666143D01*
X10690714Y-15675667D01*
X10766905Y-15875667D02*
X10776429Y-15866143D01*
X10795476Y-15837571D01*
X10805000Y-15818524D01*
X10814524Y-15789952D01*
X10824048Y-15742333D01*
X10824048Y-15704238D01*
X10814524Y-15656619D01*
X10805000Y-15628048D01*
X10795476Y-15609000D01*
X10776429Y-15580428D01*
X10766905Y-15570905D01*
D14*
X5950000Y-15928000D02*
X5950000Y-16018000D01*
X5905000Y-15973000D02*
X5995000Y-15973000D01*
D11*
X6290714Y-15863476D02*
X6309762Y-15863476D01*
X6328809Y-15873000D01*
X6338333Y-15882524D01*
X6347857Y-15901571D01*
X6357381Y-15939667D01*
X6357381Y-15987286D01*
X6347857Y-16025381D01*
X6338333Y-16044428D01*
X6328809Y-16053952D01*
X6309762Y-16063476D01*
X6290714Y-16063476D01*
X6271667Y-16053952D01*
X6262143Y-16044428D01*
X6252619Y-16025381D01*
X6243095Y-15987286D01*
X6243095Y-15939667D01*
X6252619Y-15901571D01*
X6262143Y-15882524D01*
X6271667Y-15873000D01*
X6290714Y-15863476D01*
X6443095Y-16044428D02*
X6452619Y-16053952D01*
X6443095Y-16063476D01*
X6433571Y-16053952D01*
X6443095Y-16044428D01*
X6443095Y-16063476D01*
X6547857Y-16063476D02*
X6585952Y-16063476D01*
X6605000Y-16053952D01*
X6614524Y-16044428D01*
X6633571Y-16015857D01*
X6643095Y-15977762D01*
X6643095Y-15901571D01*
X6633571Y-15882524D01*
X6624048Y-15873000D01*
X6605000Y-15863476D01*
X6566905Y-15863476D01*
X6547857Y-15873000D01*
X6538333Y-15882524D01*
X6528809Y-15901571D01*
X6528809Y-15949190D01*
X6538333Y-15968238D01*
X6547857Y-15977762D01*
X6566905Y-15987286D01*
X6605000Y-15987286D01*
X6624048Y-15977762D01*
X6633571Y-15968238D01*
X6643095Y-15949190D01*
X6766905Y-15863476D02*
X6785952Y-15863476D01*
X6805000Y-15873000D01*
X6814524Y-15882524D01*
X6824048Y-15901571D01*
X6833571Y-15939667D01*
X6833571Y-15987286D01*
X6824048Y-16025381D01*
X6814524Y-16044428D01*
X6805000Y-16053952D01*
X6785952Y-16063476D01*
X6766905Y-16063476D01*
X6747857Y-16053952D01*
X6738333Y-16044428D01*
X6728809Y-16025381D01*
X6719286Y-15987286D01*
X6719286Y-15939667D01*
X6728809Y-15901571D01*
X6738333Y-15882524D01*
X6747857Y-15873000D01*
X6766905Y-15863476D01*
X6957381Y-15863476D02*
X6976428Y-15863476D01*
X6995476Y-15873000D01*
X7005000Y-15882524D01*
X7014524Y-15901571D01*
X7024048Y-15939667D01*
X7024048Y-15987286D01*
X7014524Y-16025381D01*
X7005000Y-16044428D01*
X6995476Y-16053952D01*
X6976428Y-16063476D01*
X6957381Y-16063476D01*
X6938333Y-16053952D01*
X6928809Y-16044428D01*
X6919286Y-16025381D01*
X6909762Y-15987286D01*
X6909762Y-15939667D01*
X6919286Y-15901571D01*
X6928809Y-15882524D01*
X6938333Y-15873000D01*
X6957381Y-15863476D01*
X7109762Y-16063476D02*
X7109762Y-15930143D01*
X7109762Y-15949190D02*
X7119286Y-15939667D01*
X7138333Y-15930143D01*
X7166905Y-15930143D01*
X7185952Y-15939667D01*
X7195476Y-15958714D01*
X7195476Y-16063476D01*
X7195476Y-15958714D02*
X7205000Y-15939667D01*
X7224048Y-15930143D01*
X7252619Y-15930143D01*
X7271667Y-15939667D01*
X7281190Y-15958714D01*
X7281190Y-16063476D01*
X7376428Y-16063476D02*
X7376428Y-15930143D01*
X7376428Y-15949190D02*
X7385952Y-15939667D01*
X7405000Y-15930143D01*
X7433571Y-15930143D01*
X7452619Y-15939667D01*
X7462143Y-15958714D01*
X7462143Y-16063476D01*
X7462143Y-15958714D02*
X7471667Y-15939667D01*
X7490714Y-15930143D01*
X7519286Y-15930143D01*
X7538333Y-15939667D01*
X7547857Y-15958714D01*
X7547857Y-16063476D01*
X7938333Y-15853952D02*
X7766905Y-16111095D01*
X8195476Y-15863476D02*
X8214524Y-15863476D01*
X8233571Y-15873000D01*
X8243095Y-15882524D01*
X8252619Y-15901571D01*
X8262143Y-15939667D01*
X8262143Y-15987286D01*
X8252619Y-16025381D01*
X8243095Y-16044428D01*
X8233571Y-16053952D01*
X8214524Y-16063476D01*
X8195476Y-16063476D01*
X8176428Y-16053952D01*
X8166905Y-16044428D01*
X8157381Y-16025381D01*
X8147857Y-15987286D01*
X8147857Y-15939667D01*
X8157381Y-15901571D01*
X8166905Y-15882524D01*
X8176428Y-15873000D01*
X8195476Y-15863476D01*
X8347857Y-16044428D02*
X8357381Y-16053952D01*
X8347857Y-16063476D01*
X8338333Y-16053952D01*
X8347857Y-16044428D01*
X8347857Y-16063476D01*
X8481190Y-15863476D02*
X8500238Y-15863476D01*
X8519286Y-15873000D01*
X8528810Y-15882524D01*
X8538333Y-15901571D01*
X8547857Y-15939667D01*
X8547857Y-15987286D01*
X8538333Y-16025381D01*
X8528810Y-16044428D01*
X8519286Y-16053952D01*
X8500238Y-16063476D01*
X8481190Y-16063476D01*
X8462143Y-16053952D01*
X8452619Y-16044428D01*
X8443095Y-16025381D01*
X8433571Y-15987286D01*
X8433571Y-15939667D01*
X8443095Y-15901571D01*
X8452619Y-15882524D01*
X8462143Y-15873000D01*
X8481190Y-15863476D01*
X8614524Y-15863476D02*
X8738333Y-15863476D01*
X8671667Y-15939667D01*
X8700238Y-15939667D01*
X8719286Y-15949190D01*
X8728810Y-15958714D01*
X8738333Y-15977762D01*
X8738333Y-16025381D01*
X8728810Y-16044428D01*
X8719286Y-16053952D01*
X8700238Y-16063476D01*
X8643095Y-16063476D01*
X8624048Y-16053952D01*
X8614524Y-16044428D01*
X8919286Y-15863476D02*
X8824048Y-15863476D01*
X8814524Y-15958714D01*
X8824048Y-15949190D01*
X8843095Y-15939667D01*
X8890714Y-15939667D01*
X8909762Y-15949190D01*
X8919286Y-15958714D01*
X8928810Y-15977762D01*
X8928810Y-16025381D01*
X8919286Y-16044428D01*
X8909762Y-16053952D01*
X8890714Y-16063476D01*
X8843095Y-16063476D01*
X8824048Y-16053952D01*
X8814524Y-16044428D01*
X9100238Y-15930143D02*
X9100238Y-16063476D01*
X9052619Y-15853952D02*
X9005000Y-15996809D01*
X9128810Y-15996809D01*
X9195476Y-15863476D02*
X9195476Y-15901571D01*
X9271667Y-15863476D02*
X9271667Y-15901571D01*
X9566905Y-16139667D02*
X9557381Y-16130143D01*
X9538333Y-16101571D01*
X9528810Y-16082524D01*
X9519286Y-16053952D01*
X9509762Y-16006333D01*
X9509762Y-15968238D01*
X9519286Y-15920619D01*
X9528810Y-15892048D01*
X9538333Y-15873000D01*
X9557381Y-15844428D01*
X9566905Y-15834905D01*
X9633571Y-15882524D02*
X9643095Y-15873000D01*
X9662143Y-15863476D01*
X9709762Y-15863476D01*
X9728810Y-15873000D01*
X9738333Y-15882524D01*
X9747857Y-15901571D01*
X9747857Y-15920619D01*
X9738333Y-15949190D01*
X9624048Y-16063476D01*
X9747857Y-16063476D01*
X9919286Y-15930143D02*
X9919286Y-16063476D01*
X9871667Y-15853952D02*
X9824048Y-15996809D01*
X9947857Y-15996809D01*
X10176429Y-16063476D02*
X10176429Y-15863476D01*
X10262143Y-16063476D02*
X10262143Y-15958714D01*
X10252619Y-15939667D01*
X10233571Y-15930143D01*
X10205000Y-15930143D01*
X10185952Y-15939667D01*
X10176429Y-15949190D01*
X10385952Y-16063476D02*
X10366905Y-16053952D01*
X10357381Y-16044428D01*
X10347857Y-16025381D01*
X10347857Y-15968238D01*
X10357381Y-15949190D01*
X10366905Y-15939667D01*
X10385952Y-15930143D01*
X10414524Y-15930143D01*
X10433571Y-15939667D01*
X10443095Y-15949190D01*
X10452619Y-15968238D01*
X10452619Y-16025381D01*
X10443095Y-16044428D01*
X10433571Y-16053952D01*
X10414524Y-16063476D01*
X10385952Y-16063476D01*
X10566905Y-16063476D02*
X10547857Y-16053952D01*
X10538333Y-16034905D01*
X10538333Y-15863476D01*
X10719286Y-16053952D02*
X10700238Y-16063476D01*
X10662143Y-16063476D01*
X10643095Y-16053952D01*
X10633571Y-16034905D01*
X10633571Y-15958714D01*
X10643095Y-15939667D01*
X10662143Y-15930143D01*
X10700238Y-15930143D01*
X10719286Y-15939667D01*
X10728810Y-15958714D01*
X10728810Y-15977762D01*
X10633571Y-15996809D01*
X10805000Y-16053952D02*
X10824048Y-16063476D01*
X10862143Y-16063476D01*
X10881190Y-16053952D01*
X10890714Y-16034905D01*
X10890714Y-16025381D01*
X10881190Y-16006333D01*
X10862143Y-15996809D01*
X10833571Y-15996809D01*
X10814524Y-15987286D01*
X10805000Y-15968238D01*
X10805000Y-15958714D01*
X10814524Y-15939667D01*
X10833571Y-15930143D01*
X10862143Y-15930143D01*
X10881190Y-15939667D01*
X10957381Y-16139667D02*
X10966905Y-16130143D01*
X10985952Y-16101571D01*
X10995476Y-16082524D01*
X11005000Y-16053952D01*
X11014524Y-16006333D01*
X11014524Y-15968238D01*
X11005000Y-15920619D01*
X10995476Y-15892048D01*
X10985952Y-15873000D01*
X10966905Y-15844428D01*
X10957381Y-15834905D01*
D10*
X5980356Y-16272356D02*
X5980356Y-16201644D01*
X5909644Y-16201644D01*
X5909644Y-16272356D01*
X5980356Y-16272356D01*
D11*
X6357381Y-16327476D02*
X6243095Y-16327476D01*
X6300238Y-16327476D02*
X6300238Y-16127476D01*
X6281190Y-16156048D01*
X6262143Y-16175095D01*
X6243095Y-16184619D01*
X6443095Y-16308428D02*
X6452619Y-16317952D01*
X6443095Y-16327476D01*
X6433571Y-16317952D01*
X6443095Y-16308428D01*
X6443095Y-16327476D01*
X6576428Y-16127476D02*
X6595476Y-16127476D01*
X6614524Y-16137000D01*
X6624048Y-16146524D01*
X6633571Y-16165571D01*
X6643095Y-16203667D01*
X6643095Y-16251286D01*
X6633571Y-16289381D01*
X6624048Y-16308428D01*
X6614524Y-16317952D01*
X6595476Y-16327476D01*
X6576428Y-16327476D01*
X6557381Y-16317952D01*
X6547857Y-16308428D01*
X6538333Y-16289381D01*
X6528809Y-16251286D01*
X6528809Y-16203667D01*
X6538333Y-16165571D01*
X6547857Y-16146524D01*
X6557381Y-16137000D01*
X6576428Y-16127476D01*
X6766905Y-16127476D02*
X6785952Y-16127476D01*
X6805000Y-16137000D01*
X6814524Y-16146524D01*
X6824048Y-16165571D01*
X6833571Y-16203667D01*
X6833571Y-16251286D01*
X6824048Y-16289381D01*
X6814524Y-16308428D01*
X6805000Y-16317952D01*
X6785952Y-16327476D01*
X6766905Y-16327476D01*
X6747857Y-16317952D01*
X6738333Y-16308428D01*
X6728809Y-16289381D01*
X6719286Y-16251286D01*
X6719286Y-16203667D01*
X6728809Y-16165571D01*
X6738333Y-16146524D01*
X6747857Y-16137000D01*
X6766905Y-16127476D01*
X6957381Y-16127476D02*
X6976428Y-16127476D01*
X6995476Y-16137000D01*
X7005000Y-16146524D01*
X7014524Y-16165571D01*
X7024048Y-16203667D01*
X7024048Y-16251286D01*
X7014524Y-16289381D01*
X7005000Y-16308428D01*
X6995476Y-16317952D01*
X6976428Y-16327476D01*
X6957381Y-16327476D01*
X6938333Y-16317952D01*
X6928809Y-16308428D01*
X6919286Y-16289381D01*
X6909762Y-16251286D01*
X6909762Y-16203667D01*
X6919286Y-16165571D01*
X6928809Y-16146524D01*
X6938333Y-16137000D01*
X6957381Y-16127476D01*
X7109762Y-16327476D02*
X7109762Y-16194143D01*
X7109762Y-16213190D02*
X7119286Y-16203667D01*
X7138333Y-16194143D01*
X7166905Y-16194143D01*
X7185952Y-16203667D01*
X7195476Y-16222714D01*
X7195476Y-16327476D01*
X7195476Y-16222714D02*
X7205000Y-16203667D01*
X7224048Y-16194143D01*
X7252619Y-16194143D01*
X7271667Y-16203667D01*
X7281190Y-16222714D01*
X7281190Y-16327476D01*
X7376428Y-16327476D02*
X7376428Y-16194143D01*
X7376428Y-16213190D02*
X7385952Y-16203667D01*
X7405000Y-16194143D01*
X7433571Y-16194143D01*
X7452619Y-16203667D01*
X7462143Y-16222714D01*
X7462143Y-16327476D01*
X7462143Y-16222714D02*
X7471667Y-16203667D01*
X7490714Y-16194143D01*
X7519286Y-16194143D01*
X7538333Y-16203667D01*
X7547857Y-16222714D01*
X7547857Y-16327476D01*
X7938333Y-16117952D02*
X7766905Y-16375095D01*
X8195476Y-16127476D02*
X8214524Y-16127476D01*
X8233571Y-16137000D01*
X8243095Y-16146524D01*
X8252619Y-16165571D01*
X8262143Y-16203667D01*
X8262143Y-16251286D01*
X8252619Y-16289381D01*
X8243095Y-16308428D01*
X8233571Y-16317952D01*
X8214524Y-16327476D01*
X8195476Y-16327476D01*
X8176428Y-16317952D01*
X8166905Y-16308428D01*
X8157381Y-16289381D01*
X8147857Y-16251286D01*
X8147857Y-16203667D01*
X8157381Y-16165571D01*
X8166905Y-16146524D01*
X8176428Y-16137000D01*
X8195476Y-16127476D01*
X8347857Y-16308428D02*
X8357381Y-16317952D01*
X8347857Y-16327476D01*
X8338333Y-16317952D01*
X8347857Y-16308428D01*
X8347857Y-16327476D01*
X8481190Y-16127476D02*
X8500238Y-16127476D01*
X8519286Y-16137000D01*
X8528810Y-16146524D01*
X8538333Y-16165571D01*
X8547857Y-16203667D01*
X8547857Y-16251286D01*
X8538333Y-16289381D01*
X8528810Y-16308428D01*
X8519286Y-16317952D01*
X8500238Y-16327476D01*
X8481190Y-16327476D01*
X8462143Y-16317952D01*
X8452619Y-16308428D01*
X8443095Y-16289381D01*
X8433571Y-16251286D01*
X8433571Y-16203667D01*
X8443095Y-16165571D01*
X8452619Y-16146524D01*
X8462143Y-16137000D01*
X8481190Y-16127476D01*
X8614524Y-16127476D02*
X8738333Y-16127476D01*
X8671667Y-16203667D01*
X8700238Y-16203667D01*
X8719286Y-16213190D01*
X8728810Y-16222714D01*
X8738333Y-16241762D01*
X8738333Y-16289381D01*
X8728810Y-16308428D01*
X8719286Y-16317952D01*
X8700238Y-16327476D01*
X8643095Y-16327476D01*
X8624048Y-16317952D01*
X8614524Y-16308428D01*
X8833571Y-16327476D02*
X8871667Y-16327476D01*
X8890714Y-16317952D01*
X8900238Y-16308428D01*
X8919286Y-16279857D01*
X8928810Y-16241762D01*
X8928810Y-16165571D01*
X8919286Y-16146524D01*
X8909762Y-16137000D01*
X8890714Y-16127476D01*
X8852619Y-16127476D01*
X8833571Y-16137000D01*
X8824048Y-16146524D01*
X8814524Y-16165571D01*
X8814524Y-16213190D01*
X8824048Y-16232238D01*
X8833571Y-16241762D01*
X8852619Y-16251286D01*
X8890714Y-16251286D01*
X8909762Y-16241762D01*
X8919286Y-16232238D01*
X8928810Y-16213190D01*
X9100238Y-16194143D02*
X9100238Y-16327476D01*
X9052619Y-16117952D02*
X9005000Y-16260809D01*
X9128810Y-16260809D01*
X9195476Y-16127476D02*
X9195476Y-16165571D01*
X9271667Y-16127476D02*
X9271667Y-16165571D01*
X9566905Y-16403667D02*
X9557381Y-16394143D01*
X9538333Y-16365571D01*
X9528810Y-16346524D01*
X9519286Y-16317952D01*
X9509762Y-16270333D01*
X9509762Y-16232238D01*
X9519286Y-16184619D01*
X9528810Y-16156048D01*
X9538333Y-16137000D01*
X9557381Y-16108428D01*
X9566905Y-16098905D01*
X9747857Y-16327476D02*
X9633571Y-16327476D01*
X9690714Y-16327476D02*
X9690714Y-16127476D01*
X9671667Y-16156048D01*
X9652619Y-16175095D01*
X9633571Y-16184619D01*
X9862143Y-16213190D02*
X9843095Y-16203667D01*
X9833571Y-16194143D01*
X9824048Y-16175095D01*
X9824048Y-16165571D01*
X9833571Y-16146524D01*
X9843095Y-16137000D01*
X9862143Y-16127476D01*
X9900238Y-16127476D01*
X9919286Y-16137000D01*
X9928810Y-16146524D01*
X9938333Y-16165571D01*
X9938333Y-16175095D01*
X9928810Y-16194143D01*
X9919286Y-16203667D01*
X9900238Y-16213190D01*
X9862143Y-16213190D01*
X9843095Y-16222714D01*
X9833571Y-16232238D01*
X9824048Y-16251286D01*
X9824048Y-16289381D01*
X9833571Y-16308428D01*
X9843095Y-16317952D01*
X9862143Y-16327476D01*
X9900238Y-16327476D01*
X9919286Y-16317952D01*
X9928810Y-16308428D01*
X9938333Y-16289381D01*
X9938333Y-16251286D01*
X9928810Y-16232238D01*
X9919286Y-16222714D01*
X9900238Y-16213190D01*
X10176429Y-16327476D02*
X10176429Y-16127476D01*
X10262143Y-16327476D02*
X10262143Y-16222714D01*
X10252619Y-16203667D01*
X10233571Y-16194143D01*
X10205000Y-16194143D01*
X10185952Y-16203667D01*
X10176429Y-16213190D01*
X10385952Y-16327476D02*
X10366905Y-16317952D01*
X10357381Y-16308428D01*
X10347857Y-16289381D01*
X10347857Y-16232238D01*
X10357381Y-16213190D01*
X10366905Y-16203667D01*
X10385952Y-16194143D01*
X10414524Y-16194143D01*
X10433571Y-16203667D01*
X10443095Y-16213190D01*
X10452619Y-16232238D01*
X10452619Y-16289381D01*
X10443095Y-16308428D01*
X10433571Y-16317952D01*
X10414524Y-16327476D01*
X10385952Y-16327476D01*
X10566905Y-16327476D02*
X10547857Y-16317952D01*
X10538333Y-16298905D01*
X10538333Y-16127476D01*
X10719286Y-16317952D02*
X10700238Y-16327476D01*
X10662143Y-16327476D01*
X10643095Y-16317952D01*
X10633571Y-16298905D01*
X10633571Y-16222714D01*
X10643095Y-16203667D01*
X10662143Y-16194143D01*
X10700238Y-16194143D01*
X10719286Y-16203667D01*
X10728810Y-16222714D01*
X10728810Y-16241762D01*
X10633571Y-16260809D01*
X10805000Y-16317952D02*
X10824048Y-16327476D01*
X10862143Y-16327476D01*
X10881190Y-16317952D01*
X10890714Y-16298905D01*
X10890714Y-16289381D01*
X10881190Y-16270333D01*
X10862143Y-16260809D01*
X10833571Y-16260809D01*
X10814524Y-16251286D01*
X10805000Y-16232238D01*
X10805000Y-16222714D01*
X10814524Y-16203667D01*
X10833571Y-16194143D01*
X10862143Y-16194143D01*
X10881190Y-16203667D01*
X10957381Y-16403667D02*
X10966905Y-16394143D01*
X10985952Y-16365571D01*
X10995476Y-16346524D01*
X11005000Y-16317952D01*
X11014524Y-16270333D01*
X11014524Y-16232238D01*
X11005000Y-16184619D01*
X10995476Y-16156048D01*
X10985952Y-16137000D01*
X10966905Y-16108428D01*
X10957381Y-16098905D01*
D15*
X5944000Y-16552000D02*
X5995000Y-16501000D01*
X5944000Y-16450000D01*
X5893000Y-16501000D01*
X5944000Y-16552000D01*
D11*
X6357381Y-16591476D02*
X6243095Y-16591476D01*
X6300238Y-16591476D02*
X6300238Y-16391476D01*
X6281190Y-16420048D01*
X6262143Y-16439095D01*
X6243095Y-16448619D01*
X6443095Y-16572428D02*
X6452619Y-16581952D01*
X6443095Y-16591476D01*
X6433571Y-16581952D01*
X6443095Y-16572428D01*
X6443095Y-16591476D01*
X6576428Y-16391476D02*
X6595476Y-16391476D01*
X6614524Y-16401000D01*
X6624048Y-16410524D01*
X6633571Y-16429571D01*
X6643095Y-16467667D01*
X6643095Y-16515286D01*
X6633571Y-16553381D01*
X6624048Y-16572428D01*
X6614524Y-16581952D01*
X6595476Y-16591476D01*
X6576428Y-16591476D01*
X6557381Y-16581952D01*
X6547857Y-16572428D01*
X6538333Y-16553381D01*
X6528809Y-16515286D01*
X6528809Y-16467667D01*
X6538333Y-16429571D01*
X6547857Y-16410524D01*
X6557381Y-16401000D01*
X6576428Y-16391476D01*
X6719286Y-16410524D02*
X6728809Y-16401000D01*
X6747857Y-16391476D01*
X6795476Y-16391476D01*
X6814524Y-16401000D01*
X6824048Y-16410524D01*
X6833571Y-16429571D01*
X6833571Y-16448619D01*
X6824048Y-16477190D01*
X6709762Y-16591476D01*
X6833571Y-16591476D01*
X6957381Y-16391476D02*
X6976428Y-16391476D01*
X6995476Y-16401000D01*
X7005000Y-16410524D01*
X7014524Y-16429571D01*
X7024048Y-16467667D01*
X7024048Y-16515286D01*
X7014524Y-16553381D01*
X7005000Y-16572428D01*
X6995476Y-16581952D01*
X6976428Y-16591476D01*
X6957381Y-16591476D01*
X6938333Y-16581952D01*
X6928809Y-16572428D01*
X6919286Y-16553381D01*
X6909762Y-16515286D01*
X6909762Y-16467667D01*
X6919286Y-16429571D01*
X6928809Y-16410524D01*
X6938333Y-16401000D01*
X6957381Y-16391476D01*
X7109762Y-16591476D02*
X7109762Y-16458143D01*
X7109762Y-16477190D02*
X7119286Y-16467667D01*
X7138333Y-16458143D01*
X7166905Y-16458143D01*
X7185952Y-16467667D01*
X7195476Y-16486714D01*
X7195476Y-16591476D01*
X7195476Y-16486714D02*
X7205000Y-16467667D01*
X7224048Y-16458143D01*
X7252619Y-16458143D01*
X7271667Y-16467667D01*
X7281190Y-16486714D01*
X7281190Y-16591476D01*
X7376428Y-16591476D02*
X7376428Y-16458143D01*
X7376428Y-16477190D02*
X7385952Y-16467667D01*
X7405000Y-16458143D01*
X7433571Y-16458143D01*
X7452619Y-16467667D01*
X7462143Y-16486714D01*
X7462143Y-16591476D01*
X7462143Y-16486714D02*
X7471667Y-16467667D01*
X7490714Y-16458143D01*
X7519286Y-16458143D01*
X7538333Y-16467667D01*
X7547857Y-16486714D01*
X7547857Y-16591476D01*
X7938333Y-16381952D02*
X7766905Y-16639095D01*
X8195476Y-16391476D02*
X8214524Y-16391476D01*
X8233571Y-16401000D01*
X8243095Y-16410524D01*
X8252619Y-16429571D01*
X8262143Y-16467667D01*
X8262143Y-16515286D01*
X8252619Y-16553381D01*
X8243095Y-16572428D01*
X8233571Y-16581952D01*
X8214524Y-16591476D01*
X8195476Y-16591476D01*
X8176428Y-16581952D01*
X8166905Y-16572428D01*
X8157381Y-16553381D01*
X8147857Y-16515286D01*
X8147857Y-16467667D01*
X8157381Y-16429571D01*
X8166905Y-16410524D01*
X8176428Y-16401000D01*
X8195476Y-16391476D01*
X8347857Y-16572428D02*
X8357381Y-16581952D01*
X8347857Y-16591476D01*
X8338333Y-16581952D01*
X8347857Y-16572428D01*
X8347857Y-16591476D01*
X8481190Y-16391476D02*
X8500238Y-16391476D01*
X8519286Y-16401000D01*
X8528810Y-16410524D01*
X8538333Y-16429571D01*
X8547857Y-16467667D01*
X8547857Y-16515286D01*
X8538333Y-16553381D01*
X8528810Y-16572428D01*
X8519286Y-16581952D01*
X8500238Y-16591476D01*
X8481190Y-16591476D01*
X8462143Y-16581952D01*
X8452619Y-16572428D01*
X8443095Y-16553381D01*
X8433571Y-16515286D01*
X8433571Y-16467667D01*
X8443095Y-16429571D01*
X8452619Y-16410524D01*
X8462143Y-16401000D01*
X8481190Y-16391476D01*
X8719286Y-16458143D02*
X8719286Y-16591476D01*
X8671667Y-16381952D02*
X8624048Y-16524809D01*
X8747857Y-16524809D01*
X8862143Y-16391476D02*
X8881190Y-16391476D01*
X8900238Y-16401000D01*
X8909762Y-16410524D01*
X8919286Y-16429571D01*
X8928810Y-16467667D01*
X8928810Y-16515286D01*
X8919286Y-16553381D01*
X8909762Y-16572428D01*
X8900238Y-16581952D01*
X8881190Y-16591476D01*
X8862143Y-16591476D01*
X8843095Y-16581952D01*
X8833571Y-16572428D01*
X8824048Y-16553381D01*
X8814524Y-16515286D01*
X8814524Y-16467667D01*
X8824048Y-16429571D01*
X8833571Y-16410524D01*
X8843095Y-16401000D01*
X8862143Y-16391476D01*
X9005000Y-16410524D02*
X9014524Y-16401000D01*
X9033571Y-16391476D01*
X9081190Y-16391476D01*
X9100238Y-16401000D01*
X9109762Y-16410524D01*
X9119286Y-16429571D01*
X9119286Y-16448619D01*
X9109762Y-16477190D01*
X8995476Y-16591476D01*
X9119286Y-16591476D01*
X9195476Y-16391476D02*
X9195476Y-16429571D01*
X9271667Y-16391476D02*
X9271667Y-16429571D01*
X9566905Y-16667667D02*
X9557381Y-16658143D01*
X9538333Y-16629571D01*
X9528810Y-16610524D01*
X9519286Y-16581952D01*
X9509762Y-16534333D01*
X9509762Y-16496238D01*
X9519286Y-16448619D01*
X9528810Y-16420048D01*
X9538333Y-16401000D01*
X9557381Y-16372428D01*
X9566905Y-16362905D01*
X9728810Y-16458143D02*
X9728810Y-16591476D01*
X9681190Y-16381952D02*
X9633571Y-16524809D01*
X9757381Y-16524809D01*
X9814524Y-16391476D02*
X9938333Y-16391476D01*
X9871667Y-16467667D01*
X9900238Y-16467667D01*
X9919286Y-16477190D01*
X9928810Y-16486714D01*
X9938333Y-16505762D01*
X9938333Y-16553381D01*
X9928810Y-16572428D01*
X9919286Y-16581952D01*
X9900238Y-16591476D01*
X9843095Y-16591476D01*
X9824048Y-16581952D01*
X9814524Y-16572428D01*
X10176429Y-16591476D02*
X10176429Y-16391476D01*
X10262143Y-16591476D02*
X10262143Y-16486714D01*
X10252619Y-16467667D01*
X10233571Y-16458143D01*
X10205000Y-16458143D01*
X10185952Y-16467667D01*
X10176429Y-16477190D01*
X10385952Y-16591476D02*
X10366905Y-16581952D01*
X10357381Y-16572428D01*
X10347857Y-16553381D01*
X10347857Y-16496238D01*
X10357381Y-16477190D01*
X10366905Y-16467667D01*
X10385952Y-16458143D01*
X10414524Y-16458143D01*
X10433571Y-16467667D01*
X10443095Y-16477190D01*
X10452619Y-16496238D01*
X10452619Y-16553381D01*
X10443095Y-16572428D01*
X10433571Y-16581952D01*
X10414524Y-16591476D01*
X10385952Y-16591476D01*
X10566905Y-16591476D02*
X10547857Y-16581952D01*
X10538333Y-16562905D01*
X10538333Y-16391476D01*
X10719286Y-16581952D02*
X10700238Y-16591476D01*
X10662143Y-16591476D01*
X10643095Y-16581952D01*
X10633571Y-16562905D01*
X10633571Y-16486714D01*
X10643095Y-16467667D01*
X10662143Y-16458143D01*
X10700238Y-16458143D01*
X10719286Y-16467667D01*
X10728810Y-16486714D01*
X10728810Y-16505762D01*
X10633571Y-16524809D01*
X10805000Y-16581952D02*
X10824048Y-16591476D01*
X10862143Y-16591476D01*
X10881190Y-16581952D01*
X10890714Y-16562905D01*
X10890714Y-16553381D01*
X10881190Y-16534333D01*
X10862143Y-16524809D01*
X10833571Y-16524809D01*
X10814524Y-16515286D01*
X10805000Y-16496238D01*
X10805000Y-16486714D01*
X10814524Y-16467667D01*
X10833571Y-16458143D01*
X10862143Y-16458143D01*
X10881190Y-16467667D01*
X10957381Y-16667667D02*
X10966905Y-16658143D01*
X10985952Y-16629571D01*
X10995476Y-16610524D01*
X11005000Y-16581952D01*
X11014524Y-16534333D01*
X11014524Y-16496238D01*
X11005000Y-16448619D01*
X10995476Y-16420048D01*
X10985952Y-16401000D01*
X10966905Y-16372428D01*
X10957381Y-16362905D01*
D16*
X5845000Y-16690000D02*
X5995000Y-16840000D01*
X5995000Y-16690000D02*
X5845000Y-16840000D01*
X5995000Y-16765000D02*
G75*
G03*
X5995000Y-16765000I-75000J0D01*
G01*
D11*
X6357381Y-16855476D02*
X6243095Y-16855476D01*
X6300238Y-16855476D02*
X6300238Y-16655476D01*
X6281190Y-16684048D01*
X6262143Y-16703095D01*
X6243095Y-16712619D01*
X6443095Y-16836429D02*
X6452619Y-16845952D01*
X6443095Y-16855476D01*
X6433571Y-16845952D01*
X6443095Y-16836429D01*
X6443095Y-16855476D01*
X6633571Y-16655476D02*
X6538333Y-16655476D01*
X6528809Y-16750714D01*
X6538333Y-16741190D01*
X6557381Y-16731667D01*
X6605000Y-16731667D01*
X6624048Y-16741190D01*
X6633571Y-16750714D01*
X6643095Y-16769762D01*
X6643095Y-16817381D01*
X6633571Y-16836429D01*
X6624048Y-16845952D01*
X6605000Y-16855476D01*
X6557381Y-16855476D01*
X6538333Y-16845952D01*
X6528809Y-16836429D01*
X6766905Y-16655476D02*
X6785952Y-16655476D01*
X6805000Y-16665000D01*
X6814524Y-16674524D01*
X6824048Y-16693571D01*
X6833571Y-16731667D01*
X6833571Y-16779286D01*
X6824048Y-16817381D01*
X6814524Y-16836429D01*
X6805000Y-16845952D01*
X6785952Y-16855476D01*
X6766905Y-16855476D01*
X6747857Y-16845952D01*
X6738333Y-16836429D01*
X6728809Y-16817381D01*
X6719286Y-16779286D01*
X6719286Y-16731667D01*
X6728809Y-16693571D01*
X6738333Y-16674524D01*
X6747857Y-16665000D01*
X6766905Y-16655476D01*
X6957381Y-16655476D02*
X6976428Y-16655476D01*
X6995476Y-16665000D01*
X7005000Y-16674524D01*
X7014524Y-16693571D01*
X7024048Y-16731667D01*
X7024048Y-16779286D01*
X7014524Y-16817381D01*
X7005000Y-16836429D01*
X6995476Y-16845952D01*
X6976428Y-16855476D01*
X6957381Y-16855476D01*
X6938333Y-16845952D01*
X6928809Y-16836429D01*
X6919286Y-16817381D01*
X6909762Y-16779286D01*
X6909762Y-16731667D01*
X6919286Y-16693571D01*
X6928809Y-16674524D01*
X6938333Y-16665000D01*
X6957381Y-16655476D01*
X7109762Y-16855476D02*
X7109762Y-16722143D01*
X7109762Y-16741190D02*
X7119286Y-16731667D01*
X7138333Y-16722143D01*
X7166905Y-16722143D01*
X7185952Y-16731667D01*
X7195476Y-16750714D01*
X7195476Y-16855476D01*
X7195476Y-16750714D02*
X7205000Y-16731667D01*
X7224048Y-16722143D01*
X7252619Y-16722143D01*
X7271667Y-16731667D01*
X7281190Y-16750714D01*
X7281190Y-16855476D01*
X7376428Y-16855476D02*
X7376428Y-16722143D01*
X7376428Y-16741190D02*
X7385952Y-16731667D01*
X7405000Y-16722143D01*
X7433571Y-16722143D01*
X7452619Y-16731667D01*
X7462143Y-16750714D01*
X7462143Y-16855476D01*
X7462143Y-16750714D02*
X7471667Y-16731667D01*
X7490714Y-16722143D01*
X7519286Y-16722143D01*
X7538333Y-16731667D01*
X7547857Y-16750714D01*
X7547857Y-16855476D01*
X7938333Y-16645952D02*
X7766905Y-16903095D01*
X8195476Y-16655476D02*
X8214524Y-16655476D01*
X8233571Y-16665000D01*
X8243095Y-16674524D01*
X8252619Y-16693571D01*
X8262143Y-16731667D01*
X8262143Y-16779286D01*
X8252619Y-16817381D01*
X8243095Y-16836429D01*
X8233571Y-16845952D01*
X8214524Y-16855476D01*
X8195476Y-16855476D01*
X8176428Y-16845952D01*
X8166905Y-16836429D01*
X8157381Y-16817381D01*
X8147857Y-16779286D01*
X8147857Y-16731667D01*
X8157381Y-16693571D01*
X8166905Y-16674524D01*
X8176428Y-16665000D01*
X8195476Y-16655476D01*
X8347857Y-16836429D02*
X8357381Y-16845952D01*
X8347857Y-16855476D01*
X8338333Y-16845952D01*
X8347857Y-16836429D01*
X8347857Y-16855476D01*
X8481190Y-16655476D02*
X8500238Y-16655476D01*
X8519286Y-16665000D01*
X8528810Y-16674524D01*
X8538333Y-16693571D01*
X8547857Y-16731667D01*
X8547857Y-16779286D01*
X8538333Y-16817381D01*
X8528810Y-16836429D01*
X8519286Y-16845952D01*
X8500238Y-16855476D01*
X8481190Y-16855476D01*
X8462143Y-16845952D01*
X8452619Y-16836429D01*
X8443095Y-16817381D01*
X8433571Y-16779286D01*
X8433571Y-16731667D01*
X8443095Y-16693571D01*
X8452619Y-16674524D01*
X8462143Y-16665000D01*
X8481190Y-16655476D01*
X8728810Y-16655476D02*
X8633571Y-16655476D01*
X8624048Y-16750714D01*
X8633571Y-16741190D01*
X8652619Y-16731667D01*
X8700238Y-16731667D01*
X8719286Y-16741190D01*
X8728810Y-16750714D01*
X8738333Y-16769762D01*
X8738333Y-16817381D01*
X8728810Y-16836429D01*
X8719286Y-16845952D01*
X8700238Y-16855476D01*
X8652619Y-16855476D01*
X8633571Y-16845952D01*
X8624048Y-16836429D01*
X8833571Y-16855476D02*
X8871667Y-16855476D01*
X8890714Y-16845952D01*
X8900238Y-16836429D01*
X8919286Y-16807857D01*
X8928810Y-16769762D01*
X8928810Y-16693571D01*
X8919286Y-16674524D01*
X8909762Y-16665000D01*
X8890714Y-16655476D01*
X8852619Y-16655476D01*
X8833571Y-16665000D01*
X8824048Y-16674524D01*
X8814524Y-16693571D01*
X8814524Y-16741190D01*
X8824048Y-16760238D01*
X8833571Y-16769762D01*
X8852619Y-16779286D01*
X8890714Y-16779286D01*
X8909762Y-16769762D01*
X8919286Y-16760238D01*
X8928810Y-16741190D01*
X9119286Y-16855476D02*
X9005000Y-16855476D01*
X9062143Y-16855476D02*
X9062143Y-16655476D01*
X9043095Y-16684048D01*
X9024048Y-16703095D01*
X9005000Y-16712619D01*
X9195476Y-16655476D02*
X9195476Y-16693571D01*
X9271667Y-16655476D02*
X9271667Y-16693571D01*
X9566905Y-16931667D02*
X9557381Y-16922143D01*
X9538333Y-16893571D01*
X9528810Y-16874524D01*
X9519286Y-16845952D01*
X9509762Y-16798333D01*
X9509762Y-16760238D01*
X9519286Y-16712619D01*
X9528810Y-16684048D01*
X9538333Y-16665000D01*
X9557381Y-16636428D01*
X9566905Y-16626905D01*
X9633571Y-16674524D02*
X9643095Y-16665000D01*
X9662143Y-16655476D01*
X9709762Y-16655476D01*
X9728810Y-16665000D01*
X9738333Y-16674524D01*
X9747857Y-16693571D01*
X9747857Y-16712619D01*
X9738333Y-16741190D01*
X9624048Y-16855476D01*
X9747857Y-16855476D01*
X9985952Y-16855476D02*
X9985952Y-16655476D01*
X10071667Y-16855476D02*
X10071667Y-16750714D01*
X10062143Y-16731667D01*
X10043095Y-16722143D01*
X10014524Y-16722143D01*
X9995476Y-16731667D01*
X9985952Y-16741190D01*
X10195476Y-16855476D02*
X10176429Y-16845952D01*
X10166905Y-16836429D01*
X10157381Y-16817381D01*
X10157381Y-16760238D01*
X10166905Y-16741190D01*
X10176429Y-16731667D01*
X10195476Y-16722143D01*
X10224048Y-16722143D01*
X10243095Y-16731667D01*
X10252619Y-16741190D01*
X10262143Y-16760238D01*
X10262143Y-16817381D01*
X10252619Y-16836429D01*
X10243095Y-16845952D01*
X10224048Y-16855476D01*
X10195476Y-16855476D01*
X10376429Y-16855476D02*
X10357381Y-16845952D01*
X10347857Y-16826905D01*
X10347857Y-16655476D01*
X10528810Y-16845952D02*
X10509762Y-16855476D01*
X10471667Y-16855476D01*
X10452619Y-16845952D01*
X10443095Y-16826905D01*
X10443095Y-16750714D01*
X10452619Y-16731667D01*
X10471667Y-16722143D01*
X10509762Y-16722143D01*
X10528810Y-16731667D01*
X10538333Y-16750714D01*
X10538333Y-16769762D01*
X10443095Y-16788810D01*
X10614524Y-16845952D02*
X10633571Y-16855476D01*
X10671667Y-16855476D01*
X10690714Y-16845952D01*
X10700238Y-16826905D01*
X10700238Y-16817381D01*
X10690714Y-16798333D01*
X10671667Y-16788810D01*
X10643095Y-16788810D01*
X10624048Y-16779286D01*
X10614524Y-16760238D01*
X10614524Y-16750714D01*
X10624048Y-16731667D01*
X10643095Y-16722143D01*
X10671667Y-16722143D01*
X10690714Y-16731667D01*
X10766905Y-16931667D02*
X10776429Y-16922143D01*
X10795476Y-16893571D01*
X10805000Y-16874524D01*
X10814524Y-16845952D01*
X10824048Y-16798333D01*
X10824048Y-16760238D01*
X10814524Y-16712619D01*
X10805000Y-16684048D01*
X10795476Y-16665000D01*
X10776429Y-16636428D01*
X10766905Y-16626905D01*
X5795000Y-16935000D02*
X5995000Y-17135000D01*
X5995000Y-16935000D02*
X5795000Y-17135000D01*
X5895000Y-16935000D02*
X5895000Y-17135000D01*
X5795000Y-17035000D02*
X5995000Y-17035000D01*
X6243095Y-16944524D02*
X6252619Y-16935000D01*
X6271667Y-16925476D01*
X6319286Y-16925476D01*
X6338333Y-16935000D01*
X6347857Y-16944524D01*
X6357381Y-16963571D01*
X6357381Y-16982619D01*
X6347857Y-17011190D01*
X6233571Y-17125476D01*
X6357381Y-17125476D01*
X6443095Y-17106429D02*
X6452619Y-17115952D01*
X6443095Y-17125476D01*
X6433571Y-17115952D01*
X6443095Y-17106429D01*
X6443095Y-17125476D01*
X6519286Y-16925476D02*
X6643095Y-16925476D01*
X6576428Y-17001667D01*
X6605000Y-17001667D01*
X6624048Y-17011190D01*
X6633571Y-17020714D01*
X6643095Y-17039762D01*
X6643095Y-17087381D01*
X6633571Y-17106429D01*
X6624048Y-17115952D01*
X6605000Y-17125476D01*
X6547857Y-17125476D01*
X6528809Y-17115952D01*
X6519286Y-17106429D01*
X6766905Y-16925476D02*
X6785952Y-16925476D01*
X6805000Y-16935000D01*
X6814524Y-16944524D01*
X6824048Y-16963571D01*
X6833571Y-17001667D01*
X6833571Y-17049286D01*
X6824048Y-17087381D01*
X6814524Y-17106429D01*
X6805000Y-17115952D01*
X6785952Y-17125476D01*
X6766905Y-17125476D01*
X6747857Y-17115952D01*
X6738333Y-17106429D01*
X6728809Y-17087381D01*
X6719286Y-17049286D01*
X6719286Y-17001667D01*
X6728809Y-16963571D01*
X6738333Y-16944524D01*
X6747857Y-16935000D01*
X6766905Y-16925476D01*
X6957381Y-16925476D02*
X6976428Y-16925476D01*
X6995476Y-16935000D01*
X7005000Y-16944524D01*
X7014524Y-16963571D01*
X7024048Y-17001667D01*
X7024048Y-17049286D01*
X7014524Y-17087381D01*
X7005000Y-17106429D01*
X6995476Y-17115952D01*
X6976428Y-17125476D01*
X6957381Y-17125476D01*
X6938333Y-17115952D01*
X6928809Y-17106429D01*
X6919286Y-17087381D01*
X6909762Y-17049286D01*
X6909762Y-17001667D01*
X6919286Y-16963571D01*
X6928809Y-16944524D01*
X6938333Y-16935000D01*
X6957381Y-16925476D01*
X7109762Y-17125476D02*
X7109762Y-16992143D01*
X7109762Y-17011190D02*
X7119286Y-17001667D01*
X7138333Y-16992143D01*
X7166905Y-16992143D01*
X7185952Y-17001667D01*
X7195476Y-17020714D01*
X7195476Y-17125476D01*
X7195476Y-17020714D02*
X7205000Y-17001667D01*
X7224048Y-16992143D01*
X7252619Y-16992143D01*
X7271667Y-17001667D01*
X7281190Y-17020714D01*
X7281190Y-17125476D01*
X7376428Y-17125476D02*
X7376428Y-16992143D01*
X7376428Y-17011190D02*
X7385952Y-17001667D01*
X7405000Y-16992143D01*
X7433571Y-16992143D01*
X7452619Y-17001667D01*
X7462143Y-17020714D01*
X7462143Y-17125476D01*
X7462143Y-17020714D02*
X7471667Y-17001667D01*
X7490714Y-16992143D01*
X7519286Y-16992143D01*
X7538333Y-17001667D01*
X7547857Y-17020714D01*
X7547857Y-17125476D01*
X7938333Y-16915952D02*
X7766905Y-17173095D01*
X8195476Y-16925476D02*
X8214524Y-16925476D01*
X8233571Y-16935000D01*
X8243095Y-16944524D01*
X8252619Y-16963571D01*
X8262143Y-17001667D01*
X8262143Y-17049286D01*
X8252619Y-17087381D01*
X8243095Y-17106429D01*
X8233571Y-17115952D01*
X8214524Y-17125476D01*
X8195476Y-17125476D01*
X8176428Y-17115952D01*
X8166905Y-17106429D01*
X8157381Y-17087381D01*
X8147857Y-17049286D01*
X8147857Y-17001667D01*
X8157381Y-16963571D01*
X8166905Y-16944524D01*
X8176428Y-16935000D01*
X8195476Y-16925476D01*
X8347857Y-17106429D02*
X8357381Y-17115952D01*
X8347857Y-17125476D01*
X8338333Y-17115952D01*
X8347857Y-17106429D01*
X8347857Y-17125476D01*
X8481190Y-16925476D02*
X8500238Y-16925476D01*
X8519286Y-16935000D01*
X8528810Y-16944524D01*
X8538333Y-16963571D01*
X8547857Y-17001667D01*
X8547857Y-17049286D01*
X8538333Y-17087381D01*
X8528810Y-17106429D01*
X8519286Y-17115952D01*
X8500238Y-17125476D01*
X8481190Y-17125476D01*
X8462143Y-17115952D01*
X8452619Y-17106429D01*
X8443095Y-17087381D01*
X8433571Y-17049286D01*
X8433571Y-17001667D01*
X8443095Y-16963571D01*
X8452619Y-16944524D01*
X8462143Y-16935000D01*
X8481190Y-16925476D01*
X8643095Y-17125476D02*
X8681190Y-17125476D01*
X8700238Y-17115952D01*
X8709762Y-17106429D01*
X8728810Y-17077857D01*
X8738333Y-17039762D01*
X8738333Y-16963571D01*
X8728810Y-16944524D01*
X8719286Y-16935000D01*
X8700238Y-16925476D01*
X8662143Y-16925476D01*
X8643095Y-16935000D01*
X8633571Y-16944524D01*
X8624048Y-16963571D01*
X8624048Y-17011190D01*
X8633571Y-17030238D01*
X8643095Y-17039762D01*
X8662143Y-17049286D01*
X8700238Y-17049286D01*
X8719286Y-17039762D01*
X8728810Y-17030238D01*
X8738333Y-17011190D01*
X8862143Y-16925476D02*
X8881190Y-16925476D01*
X8900238Y-16935000D01*
X8909762Y-16944524D01*
X8919286Y-16963571D01*
X8928810Y-17001667D01*
X8928810Y-17049286D01*
X8919286Y-17087381D01*
X8909762Y-17106429D01*
X8900238Y-17115952D01*
X8881190Y-17125476D01*
X8862143Y-17125476D01*
X8843095Y-17115952D01*
X8833571Y-17106429D01*
X8824048Y-17087381D01*
X8814524Y-17049286D01*
X8814524Y-17001667D01*
X8824048Y-16963571D01*
X8833571Y-16944524D01*
X8843095Y-16935000D01*
X8862143Y-16925476D01*
X9100238Y-16925476D02*
X9062143Y-16925476D01*
X9043095Y-16935000D01*
X9033571Y-16944524D01*
X9014524Y-16973095D01*
X9005000Y-17011190D01*
X9005000Y-17087381D01*
X9014524Y-17106429D01*
X9024048Y-17115952D01*
X9043095Y-17125476D01*
X9081190Y-17125476D01*
X9100238Y-17115952D01*
X9109762Y-17106429D01*
X9119286Y-17087381D01*
X9119286Y-17039762D01*
X9109762Y-17020714D01*
X9100238Y-17011190D01*
X9081190Y-17001667D01*
X9043095Y-17001667D01*
X9024048Y-17011190D01*
X9014524Y-17020714D01*
X9005000Y-17039762D01*
X9195476Y-16925476D02*
X9195476Y-16963571D01*
X9271667Y-16925476D02*
X9271667Y-16963571D01*
X9566905Y-17201667D02*
X9557381Y-17192143D01*
X9538333Y-17163571D01*
X9528810Y-17144524D01*
X9519286Y-17115952D01*
X9509762Y-17068333D01*
X9509762Y-17030238D01*
X9519286Y-16982619D01*
X9528810Y-16954048D01*
X9538333Y-16935000D01*
X9557381Y-16906429D01*
X9566905Y-16896905D01*
X9747857Y-17125476D02*
X9633571Y-17125476D01*
X9690714Y-17125476D02*
X9690714Y-16925476D01*
X9671667Y-16954048D01*
X9652619Y-16973095D01*
X9633571Y-16982619D01*
X9985952Y-17125476D02*
X9985952Y-16925476D01*
X10071667Y-17125476D02*
X10071667Y-17020714D01*
X10062143Y-17001667D01*
X10043095Y-16992143D01*
X10014524Y-16992143D01*
X9995476Y-17001667D01*
X9985952Y-17011190D01*
X10195476Y-17125476D02*
X10176429Y-17115952D01*
X10166905Y-17106429D01*
X10157381Y-17087381D01*
X10157381Y-17030238D01*
X10166905Y-17011190D01*
X10176429Y-17001667D01*
X10195476Y-16992143D01*
X10224048Y-16992143D01*
X10243095Y-17001667D01*
X10252619Y-17011190D01*
X10262143Y-17030238D01*
X10262143Y-17087381D01*
X10252619Y-17106429D01*
X10243095Y-17115952D01*
X10224048Y-17125476D01*
X10195476Y-17125476D01*
X10376429Y-17125476D02*
X10357381Y-17115952D01*
X10347857Y-17096905D01*
X10347857Y-16925476D01*
X10528810Y-17115952D02*
X10509762Y-17125476D01*
X10471667Y-17125476D01*
X10452619Y-17115952D01*
X10443095Y-17096905D01*
X10443095Y-17020714D01*
X10452619Y-17001667D01*
X10471667Y-16992143D01*
X10509762Y-16992143D01*
X10528810Y-17001667D01*
X10538333Y-17020714D01*
X10538333Y-17039762D01*
X10443095Y-17058810D01*
X10605000Y-17201667D02*
X10614524Y-17192143D01*
X10633571Y-17163571D01*
X10643095Y-17144524D01*
X10652619Y-17115952D01*
X10662143Y-17068333D01*
X10662143Y-17030238D01*
X10652619Y-16982619D01*
X10643095Y-16954048D01*
X10633571Y-16935000D01*
X10614524Y-16906429D01*
X10605000Y-16896905D01*
X5795000Y-17255000D02*
X5995000Y-17455000D01*
X5995000Y-17255000D02*
X5795000Y-17455000D01*
X5965711Y-17425711D02*
X5965711Y-17284289D01*
X5824289Y-17284289D01*
X5824289Y-17425711D01*
X5965711Y-17425711D01*
X6243095Y-17264524D02*
X6252619Y-17255000D01*
X6271667Y-17245476D01*
X6319286Y-17245476D01*
X6338333Y-17255000D01*
X6347857Y-17264524D01*
X6357381Y-17283571D01*
X6357381Y-17302619D01*
X6347857Y-17331190D01*
X6233571Y-17445476D01*
X6357381Y-17445476D01*
X6443095Y-17426429D02*
X6452619Y-17435952D01*
X6443095Y-17445476D01*
X6433571Y-17435952D01*
X6443095Y-17426429D01*
X6443095Y-17445476D01*
X6519286Y-17245476D02*
X6643095Y-17245476D01*
X6576428Y-17321667D01*
X6605000Y-17321667D01*
X6624048Y-17331190D01*
X6633571Y-17340714D01*
X6643095Y-17359762D01*
X6643095Y-17407381D01*
X6633571Y-17426429D01*
X6624048Y-17435952D01*
X6605000Y-17445476D01*
X6547857Y-17445476D01*
X6528809Y-17435952D01*
X6519286Y-17426429D01*
X6709762Y-17245476D02*
X6843095Y-17245476D01*
X6757381Y-17445476D01*
X6957381Y-17245476D02*
X6976428Y-17245476D01*
X6995476Y-17255000D01*
X7005000Y-17264524D01*
X7014524Y-17283571D01*
X7024048Y-17321667D01*
X7024048Y-17369286D01*
X7014524Y-17407381D01*
X7005000Y-17426429D01*
X6995476Y-17435952D01*
X6976428Y-17445476D01*
X6957381Y-17445476D01*
X6938333Y-17435952D01*
X6928809Y-17426429D01*
X6919286Y-17407381D01*
X6909762Y-17369286D01*
X6909762Y-17321667D01*
X6919286Y-17283571D01*
X6928809Y-17264524D01*
X6938333Y-17255000D01*
X6957381Y-17245476D01*
X7109762Y-17445476D02*
X7109762Y-17312143D01*
X7109762Y-17331190D02*
X7119286Y-17321667D01*
X7138333Y-17312143D01*
X7166905Y-17312143D01*
X7185952Y-17321667D01*
X7195476Y-17340714D01*
X7195476Y-17445476D01*
X7195476Y-17340714D02*
X7205000Y-17321667D01*
X7224048Y-17312143D01*
X7252619Y-17312143D01*
X7271667Y-17321667D01*
X7281190Y-17340714D01*
X7281190Y-17445476D01*
X7376428Y-17445476D02*
X7376428Y-17312143D01*
X7376428Y-17331190D02*
X7385952Y-17321667D01*
X7405000Y-17312143D01*
X7433571Y-17312143D01*
X7452619Y-17321667D01*
X7462143Y-17340714D01*
X7462143Y-17445476D01*
X7462143Y-17340714D02*
X7471667Y-17321667D01*
X7490714Y-17312143D01*
X7519286Y-17312143D01*
X7538333Y-17321667D01*
X7547857Y-17340714D01*
X7547857Y-17445476D01*
X7938333Y-17235952D02*
X7766905Y-17493095D01*
X8195476Y-17245476D02*
X8214524Y-17245476D01*
X8233571Y-17255000D01*
X8243095Y-17264524D01*
X8252619Y-17283571D01*
X8262143Y-17321667D01*
X8262143Y-17369286D01*
X8252619Y-17407381D01*
X8243095Y-17426429D01*
X8233571Y-17435952D01*
X8214524Y-17445476D01*
X8195476Y-17445476D01*
X8176428Y-17435952D01*
X8166905Y-17426429D01*
X8157381Y-17407381D01*
X8147857Y-17369286D01*
X8147857Y-17321667D01*
X8157381Y-17283571D01*
X8166905Y-17264524D01*
X8176428Y-17255000D01*
X8195476Y-17245476D01*
X8347857Y-17426429D02*
X8357381Y-17435952D01*
X8347857Y-17445476D01*
X8338333Y-17435952D01*
X8347857Y-17426429D01*
X8347857Y-17445476D01*
X8481190Y-17245476D02*
X8500238Y-17245476D01*
X8519286Y-17255000D01*
X8528810Y-17264524D01*
X8538333Y-17283571D01*
X8547857Y-17321667D01*
X8547857Y-17369286D01*
X8538333Y-17407381D01*
X8528810Y-17426429D01*
X8519286Y-17435952D01*
X8500238Y-17445476D01*
X8481190Y-17445476D01*
X8462143Y-17435952D01*
X8452619Y-17426429D01*
X8443095Y-17407381D01*
X8433571Y-17369286D01*
X8433571Y-17321667D01*
X8443095Y-17283571D01*
X8452619Y-17264524D01*
X8462143Y-17255000D01*
X8481190Y-17245476D01*
X8643095Y-17445476D02*
X8681190Y-17445476D01*
X8700238Y-17435952D01*
X8709762Y-17426429D01*
X8728810Y-17397857D01*
X8738333Y-17359762D01*
X8738333Y-17283571D01*
X8728810Y-17264524D01*
X8719286Y-17255000D01*
X8700238Y-17245476D01*
X8662143Y-17245476D01*
X8643095Y-17255000D01*
X8633571Y-17264524D01*
X8624048Y-17283571D01*
X8624048Y-17331190D01*
X8633571Y-17350238D01*
X8643095Y-17359762D01*
X8662143Y-17369286D01*
X8700238Y-17369286D01*
X8719286Y-17359762D01*
X8728810Y-17350238D01*
X8738333Y-17331190D01*
X8805000Y-17245476D02*
X8928810Y-17245476D01*
X8862143Y-17321667D01*
X8890714Y-17321667D01*
X8909762Y-17331190D01*
X8919286Y-17340714D01*
X8928810Y-17359762D01*
X8928810Y-17407381D01*
X8919286Y-17426429D01*
X8909762Y-17435952D01*
X8890714Y-17445476D01*
X8833571Y-17445476D01*
X8814524Y-17435952D01*
X8805000Y-17426429D01*
X8995476Y-17245476D02*
X9119286Y-17245476D01*
X9052619Y-17321667D01*
X9081190Y-17321667D01*
X9100238Y-17331190D01*
X9109762Y-17340714D01*
X9119286Y-17359762D01*
X9119286Y-17407381D01*
X9109762Y-17426429D01*
X9100238Y-17435952D01*
X9081190Y-17445476D01*
X9024048Y-17445476D01*
X9005000Y-17435952D01*
X8995476Y-17426429D01*
X9195476Y-17245476D02*
X9195476Y-17283571D01*
X9271667Y-17245476D02*
X9271667Y-17283571D01*
X9566905Y-17521667D02*
X9557381Y-17512143D01*
X9538333Y-17483571D01*
X9528810Y-17464524D01*
X9519286Y-17435952D01*
X9509762Y-17388333D01*
X9509762Y-17350238D01*
X9519286Y-17302619D01*
X9528810Y-17274048D01*
X9538333Y-17255000D01*
X9557381Y-17226429D01*
X9566905Y-17216905D01*
X9747857Y-17445476D02*
X9633571Y-17445476D01*
X9690714Y-17445476D02*
X9690714Y-17245476D01*
X9671667Y-17274048D01*
X9652619Y-17293095D01*
X9633571Y-17302619D01*
X9862143Y-17331190D02*
X9843095Y-17321667D01*
X9833571Y-17312143D01*
X9824048Y-17293095D01*
X9824048Y-17283571D01*
X9833571Y-17264524D01*
X9843095Y-17255000D01*
X9862143Y-17245476D01*
X9900238Y-17245476D01*
X9919286Y-17255000D01*
X9928810Y-17264524D01*
X9938333Y-17283571D01*
X9938333Y-17293095D01*
X9928810Y-17312143D01*
X9919286Y-17321667D01*
X9900238Y-17331190D01*
X9862143Y-17331190D01*
X9843095Y-17340714D01*
X9833571Y-17350238D01*
X9824048Y-17369286D01*
X9824048Y-17407381D01*
X9833571Y-17426429D01*
X9843095Y-17435952D01*
X9862143Y-17445476D01*
X9900238Y-17445476D01*
X9919286Y-17435952D01*
X9928810Y-17426429D01*
X9938333Y-17407381D01*
X9938333Y-17369286D01*
X9928810Y-17350238D01*
X9919286Y-17340714D01*
X9900238Y-17331190D01*
X10176429Y-17445476D02*
X10176429Y-17245476D01*
X10262143Y-17445476D02*
X10262143Y-17340714D01*
X10252619Y-17321667D01*
X10233571Y-17312143D01*
X10205000Y-17312143D01*
X10185952Y-17321667D01*
X10176429Y-17331190D01*
X10385952Y-17445476D02*
X10366905Y-17435952D01*
X10357381Y-17426429D01*
X10347857Y-17407381D01*
X10347857Y-17350238D01*
X10357381Y-17331190D01*
X10366905Y-17321667D01*
X10385952Y-17312143D01*
X10414524Y-17312143D01*
X10433571Y-17321667D01*
X10443095Y-17331190D01*
X10452619Y-17350238D01*
X10452619Y-17407381D01*
X10443095Y-17426429D01*
X10433571Y-17435952D01*
X10414524Y-17445476D01*
X10385952Y-17445476D01*
X10566905Y-17445476D02*
X10547857Y-17435952D01*
X10538333Y-17416905D01*
X10538333Y-17245476D01*
X10719286Y-17435952D02*
X10700238Y-17445476D01*
X10662143Y-17445476D01*
X10643095Y-17435952D01*
X10633571Y-17416905D01*
X10633571Y-17340714D01*
X10643095Y-17321667D01*
X10662143Y-17312143D01*
X10700238Y-17312143D01*
X10719286Y-17321667D01*
X10728810Y-17340714D01*
X10728810Y-17359762D01*
X10633571Y-17378810D01*
X10805000Y-17435952D02*
X10824048Y-17445476D01*
X10862143Y-17445476D01*
X10881190Y-17435952D01*
X10890714Y-17416905D01*
X10890714Y-17407381D01*
X10881190Y-17388333D01*
X10862143Y-17378810D01*
X10833571Y-17378810D01*
X10814524Y-17369286D01*
X10805000Y-17350238D01*
X10805000Y-17340714D01*
X10814524Y-17321667D01*
X10833571Y-17312143D01*
X10862143Y-17312143D01*
X10881190Y-17321667D01*
X10957381Y-17521667D02*
X10966905Y-17512143D01*
X10985952Y-17483571D01*
X10995476Y-17464524D01*
X11005000Y-17435952D01*
X11014524Y-17388333D01*
X11014524Y-17350238D01*
X11005000Y-17302619D01*
X10995476Y-17274048D01*
X10985952Y-17255000D01*
X10966905Y-17226429D01*
X10957381Y-17216905D01*
X5795000Y-17575000D02*
X5995000Y-17775000D01*
X5995000Y-17575000D02*
X5795000Y-17775000D01*
X5895000Y-17775000D02*
X5995000Y-17675000D01*
X5895000Y-17575000D01*
X5795000Y-17675000D01*
X5895000Y-17775000D01*
X6243095Y-17584524D02*
X6252619Y-17575000D01*
X6271667Y-17565476D01*
X6319286Y-17565476D01*
X6338333Y-17575000D01*
X6347857Y-17584524D01*
X6357381Y-17603571D01*
X6357381Y-17622619D01*
X6347857Y-17651190D01*
X6233571Y-17765476D01*
X6357381Y-17765476D01*
X6443095Y-17746429D02*
X6452619Y-17755952D01*
X6443095Y-17765476D01*
X6433571Y-17755952D01*
X6443095Y-17746429D01*
X6443095Y-17765476D01*
X6633571Y-17565476D02*
X6538333Y-17565476D01*
X6528809Y-17660714D01*
X6538333Y-17651190D01*
X6557381Y-17641667D01*
X6605000Y-17641667D01*
X6624048Y-17651190D01*
X6633571Y-17660714D01*
X6643095Y-17679762D01*
X6643095Y-17727381D01*
X6633571Y-17746429D01*
X6624048Y-17755952D01*
X6605000Y-17765476D01*
X6557381Y-17765476D01*
X6538333Y-17755952D01*
X6528809Y-17746429D01*
X6766905Y-17565476D02*
X6785952Y-17565476D01*
X6805000Y-17575000D01*
X6814524Y-17584524D01*
X6824048Y-17603571D01*
X6833571Y-17641667D01*
X6833571Y-17689286D01*
X6824048Y-17727381D01*
X6814524Y-17746429D01*
X6805000Y-17755952D01*
X6785952Y-17765476D01*
X6766905Y-17765476D01*
X6747857Y-17755952D01*
X6738333Y-17746429D01*
X6728809Y-17727381D01*
X6719286Y-17689286D01*
X6719286Y-17641667D01*
X6728809Y-17603571D01*
X6738333Y-17584524D01*
X6747857Y-17575000D01*
X6766905Y-17565476D01*
X6957381Y-17565476D02*
X6976428Y-17565476D01*
X6995476Y-17575000D01*
X7005000Y-17584524D01*
X7014524Y-17603571D01*
X7024048Y-17641667D01*
X7024048Y-17689286D01*
X7014524Y-17727381D01*
X7005000Y-17746429D01*
X6995476Y-17755952D01*
X6976428Y-17765476D01*
X6957381Y-17765476D01*
X6938333Y-17755952D01*
X6928809Y-17746429D01*
X6919286Y-17727381D01*
X6909762Y-17689286D01*
X6909762Y-17641667D01*
X6919286Y-17603571D01*
X6928809Y-17584524D01*
X6938333Y-17575000D01*
X6957381Y-17565476D01*
X7109762Y-17765476D02*
X7109762Y-17632143D01*
X7109762Y-17651190D02*
X7119286Y-17641667D01*
X7138333Y-17632143D01*
X7166905Y-17632143D01*
X7185952Y-17641667D01*
X7195476Y-17660714D01*
X7195476Y-17765476D01*
X7195476Y-17660714D02*
X7205000Y-17641667D01*
X7224048Y-17632143D01*
X7252619Y-17632143D01*
X7271667Y-17641667D01*
X7281190Y-17660714D01*
X7281190Y-17765476D01*
X7376428Y-17765476D02*
X7376428Y-17632143D01*
X7376428Y-17651190D02*
X7385952Y-17641667D01*
X7405000Y-17632143D01*
X7433571Y-17632143D01*
X7452619Y-17641667D01*
X7462143Y-17660714D01*
X7462143Y-17765476D01*
X7462143Y-17660714D02*
X7471667Y-17641667D01*
X7490714Y-17632143D01*
X7519286Y-17632143D01*
X7538333Y-17641667D01*
X7547857Y-17660714D01*
X7547857Y-17765476D01*
X7938333Y-17555952D02*
X7766905Y-17813095D01*
X8195476Y-17565476D02*
X8214524Y-17565476D01*
X8233571Y-17575000D01*
X8243095Y-17584524D01*
X8252619Y-17603571D01*
X8262143Y-17641667D01*
X8262143Y-17689286D01*
X8252619Y-17727381D01*
X8243095Y-17746429D01*
X8233571Y-17755952D01*
X8214524Y-17765476D01*
X8195476Y-17765476D01*
X8176428Y-17755952D01*
X8166905Y-17746429D01*
X8157381Y-17727381D01*
X8147857Y-17689286D01*
X8147857Y-17641667D01*
X8157381Y-17603571D01*
X8166905Y-17584524D01*
X8176428Y-17575000D01*
X8195476Y-17565476D01*
X8347857Y-17746429D02*
X8357381Y-17755952D01*
X8347857Y-17765476D01*
X8338333Y-17755952D01*
X8347857Y-17746429D01*
X8347857Y-17765476D01*
X8481190Y-17565476D02*
X8500238Y-17565476D01*
X8519286Y-17575000D01*
X8528810Y-17584524D01*
X8538333Y-17603571D01*
X8547857Y-17641667D01*
X8547857Y-17689286D01*
X8538333Y-17727381D01*
X8528810Y-17746429D01*
X8519286Y-17755952D01*
X8500238Y-17765476D01*
X8481190Y-17765476D01*
X8462143Y-17755952D01*
X8452619Y-17746429D01*
X8443095Y-17727381D01*
X8433571Y-17689286D01*
X8433571Y-17641667D01*
X8443095Y-17603571D01*
X8452619Y-17584524D01*
X8462143Y-17575000D01*
X8481190Y-17565476D01*
X8643095Y-17765476D02*
X8681190Y-17765476D01*
X8700238Y-17755952D01*
X8709762Y-17746429D01*
X8728810Y-17717857D01*
X8738333Y-17679762D01*
X8738333Y-17603571D01*
X8728810Y-17584524D01*
X8719286Y-17575000D01*
X8700238Y-17565476D01*
X8662143Y-17565476D01*
X8643095Y-17575000D01*
X8633571Y-17584524D01*
X8624048Y-17603571D01*
X8624048Y-17651190D01*
X8633571Y-17670238D01*
X8643095Y-17679762D01*
X8662143Y-17689286D01*
X8700238Y-17689286D01*
X8719286Y-17679762D01*
X8728810Y-17670238D01*
X8738333Y-17651190D01*
X8852619Y-17651190D02*
X8833571Y-17641667D01*
X8824048Y-17632143D01*
X8814524Y-17613095D01*
X8814524Y-17603571D01*
X8824048Y-17584524D01*
X8833571Y-17575000D01*
X8852619Y-17565476D01*
X8890714Y-17565476D01*
X8909762Y-17575000D01*
X8919286Y-17584524D01*
X8928810Y-17603571D01*
X8928810Y-17613095D01*
X8919286Y-17632143D01*
X8909762Y-17641667D01*
X8890714Y-17651190D01*
X8852619Y-17651190D01*
X8833571Y-17660714D01*
X8824048Y-17670238D01*
X8814524Y-17689286D01*
X8814524Y-17727381D01*
X8824048Y-17746429D01*
X8833571Y-17755952D01*
X8852619Y-17765476D01*
X8890714Y-17765476D01*
X8909762Y-17755952D01*
X8919286Y-17746429D01*
X8928810Y-17727381D01*
X8928810Y-17689286D01*
X8919286Y-17670238D01*
X8909762Y-17660714D01*
X8890714Y-17651190D01*
X9100238Y-17632143D02*
X9100238Y-17765476D01*
X9052619Y-17555952D02*
X9005000Y-17698810D01*
X9128810Y-17698810D01*
X9195476Y-17565476D02*
X9195476Y-17603571D01*
X9271667Y-17565476D02*
X9271667Y-17603571D01*
X9566905Y-17841667D02*
X9557381Y-17832143D01*
X9538333Y-17803571D01*
X9528810Y-17784524D01*
X9519286Y-17755952D01*
X9509762Y-17708333D01*
X9509762Y-17670238D01*
X9519286Y-17622619D01*
X9528810Y-17594048D01*
X9538333Y-17575000D01*
X9557381Y-17546429D01*
X9566905Y-17536905D01*
X9633571Y-17584524D02*
X9643095Y-17575000D01*
X9662143Y-17565476D01*
X9709762Y-17565476D01*
X9728810Y-17575000D01*
X9738333Y-17584524D01*
X9747857Y-17603571D01*
X9747857Y-17622619D01*
X9738333Y-17651190D01*
X9624048Y-17765476D01*
X9747857Y-17765476D01*
X9985952Y-17765476D02*
X9985952Y-17565476D01*
X10071667Y-17765476D02*
X10071667Y-17660714D01*
X10062143Y-17641667D01*
X10043095Y-17632143D01*
X10014524Y-17632143D01*
X9995476Y-17641667D01*
X9985952Y-17651190D01*
X10195476Y-17765476D02*
X10176429Y-17755952D01*
X10166905Y-17746429D01*
X10157381Y-17727381D01*
X10157381Y-17670238D01*
X10166905Y-17651190D01*
X10176429Y-17641667D01*
X10195476Y-17632143D01*
X10224048Y-17632143D01*
X10243095Y-17641667D01*
X10252619Y-17651190D01*
X10262143Y-17670238D01*
X10262143Y-17727381D01*
X10252619Y-17746429D01*
X10243095Y-17755952D01*
X10224048Y-17765476D01*
X10195476Y-17765476D01*
X10376429Y-17765476D02*
X10357381Y-17755952D01*
X10347857Y-17736905D01*
X10347857Y-17565476D01*
X10528810Y-17755952D02*
X10509762Y-17765476D01*
X10471667Y-17765476D01*
X10452619Y-17755952D01*
X10443095Y-17736905D01*
X10443095Y-17660714D01*
X10452619Y-17641667D01*
X10471667Y-17632143D01*
X10509762Y-17632143D01*
X10528810Y-17641667D01*
X10538333Y-17660714D01*
X10538333Y-17679762D01*
X10443095Y-17698810D01*
X10614524Y-17755952D02*
X10633571Y-17765476D01*
X10671667Y-17765476D01*
X10690714Y-17755952D01*
X10700238Y-17736905D01*
X10700238Y-17727381D01*
X10690714Y-17708333D01*
X10671667Y-17698810D01*
X10643095Y-17698810D01*
X10624048Y-17689286D01*
X10614524Y-17670238D01*
X10614524Y-17660714D01*
X10624048Y-17641667D01*
X10643095Y-17632143D01*
X10671667Y-17632143D01*
X10690714Y-17641667D01*
X10766905Y-17841667D02*
X10776429Y-17832143D01*
X10795476Y-17803571D01*
X10805000Y-17784524D01*
X10814524Y-17755952D01*
X10824048Y-17708333D01*
X10824048Y-17670238D01*
X10814524Y-17622619D01*
X10805000Y-17594048D01*
X10795476Y-17575000D01*
X10776429Y-17546429D01*
X10766905Y-17536905D01*
X5895000Y-17895000D02*
X5895000Y-18095000D01*
X5795000Y-17995000D02*
X5995000Y-17995000D01*
X5995000Y-17995000D02*
G75*
G03*
X5995000Y-17995000I-100000J0D01*
G01*
X6233571Y-17885476D02*
X6357381Y-17885476D01*
X6290714Y-17961667D01*
X6319286Y-17961667D01*
X6338333Y-17971190D01*
X6347857Y-17980714D01*
X6357381Y-17999762D01*
X6357381Y-18047381D01*
X6347857Y-18066429D01*
X6338333Y-18075952D01*
X6319286Y-18085476D01*
X6262143Y-18085476D01*
X6243095Y-18075952D01*
X6233571Y-18066429D01*
X6443095Y-18066429D02*
X6452619Y-18075952D01*
X6443095Y-18085476D01*
X6433571Y-18075952D01*
X6443095Y-18066429D01*
X6443095Y-18085476D01*
X6576428Y-17885476D02*
X6595476Y-17885476D01*
X6614524Y-17895000D01*
X6624048Y-17904524D01*
X6633571Y-17923571D01*
X6643095Y-17961667D01*
X6643095Y-18009286D01*
X6633571Y-18047381D01*
X6624048Y-18066429D01*
X6614524Y-18075952D01*
X6595476Y-18085476D01*
X6576428Y-18085476D01*
X6557381Y-18075952D01*
X6547857Y-18066429D01*
X6538333Y-18047381D01*
X6528809Y-18009286D01*
X6528809Y-17961667D01*
X6538333Y-17923571D01*
X6547857Y-17904524D01*
X6557381Y-17895000D01*
X6576428Y-17885476D01*
X6766905Y-17885476D02*
X6785952Y-17885476D01*
X6805000Y-17895000D01*
X6814524Y-17904524D01*
X6824048Y-17923571D01*
X6833571Y-17961667D01*
X6833571Y-18009286D01*
X6824048Y-18047381D01*
X6814524Y-18066429D01*
X6805000Y-18075952D01*
X6785952Y-18085476D01*
X6766905Y-18085476D01*
X6747857Y-18075952D01*
X6738333Y-18066429D01*
X6728809Y-18047381D01*
X6719286Y-18009286D01*
X6719286Y-17961667D01*
X6728809Y-17923571D01*
X6738333Y-17904524D01*
X6747857Y-17895000D01*
X6766905Y-17885476D01*
X6957381Y-17885476D02*
X6976428Y-17885476D01*
X6995476Y-17895000D01*
X7005000Y-17904524D01*
X7014524Y-17923571D01*
X7024048Y-17961667D01*
X7024048Y-18009286D01*
X7014524Y-18047381D01*
X7005000Y-18066429D01*
X6995476Y-18075952D01*
X6976428Y-18085476D01*
X6957381Y-18085476D01*
X6938333Y-18075952D01*
X6928809Y-18066429D01*
X6919286Y-18047381D01*
X6909762Y-18009286D01*
X6909762Y-17961667D01*
X6919286Y-17923571D01*
X6928809Y-17904524D01*
X6938333Y-17895000D01*
X6957381Y-17885476D01*
X7109762Y-18085476D02*
X7109762Y-17952143D01*
X7109762Y-17971190D02*
X7119286Y-17961667D01*
X7138333Y-17952143D01*
X7166905Y-17952143D01*
X7185952Y-17961667D01*
X7195476Y-17980714D01*
X7195476Y-18085476D01*
X7195476Y-17980714D02*
X7205000Y-17961667D01*
X7224048Y-17952143D01*
X7252619Y-17952143D01*
X7271667Y-17961667D01*
X7281190Y-17980714D01*
X7281190Y-18085476D01*
X7376428Y-18085476D02*
X7376428Y-17952143D01*
X7376428Y-17971190D02*
X7385952Y-17961667D01*
X7405000Y-17952143D01*
X7433571Y-17952143D01*
X7452619Y-17961667D01*
X7462143Y-17980714D01*
X7462143Y-18085476D01*
X7462143Y-17980714D02*
X7471667Y-17961667D01*
X7490714Y-17952143D01*
X7519286Y-17952143D01*
X7538333Y-17961667D01*
X7547857Y-17980714D01*
X7547857Y-18085476D01*
X7938333Y-17875952D02*
X7766905Y-18133095D01*
X8195476Y-17885476D02*
X8214524Y-17885476D01*
X8233571Y-17895000D01*
X8243095Y-17904524D01*
X8252619Y-17923571D01*
X8262143Y-17961667D01*
X8262143Y-18009286D01*
X8252619Y-18047381D01*
X8243095Y-18066429D01*
X8233571Y-18075952D01*
X8214524Y-18085476D01*
X8195476Y-18085476D01*
X8176428Y-18075952D01*
X8166905Y-18066429D01*
X8157381Y-18047381D01*
X8147857Y-18009286D01*
X8147857Y-17961667D01*
X8157381Y-17923571D01*
X8166905Y-17904524D01*
X8176428Y-17895000D01*
X8195476Y-17885476D01*
X8347857Y-18066429D02*
X8357381Y-18075952D01*
X8347857Y-18085476D01*
X8338333Y-18075952D01*
X8347857Y-18066429D01*
X8347857Y-18085476D01*
X8547857Y-18085476D02*
X8433571Y-18085476D01*
X8490714Y-18085476D02*
X8490714Y-17885476D01*
X8471667Y-17914048D01*
X8452619Y-17933095D01*
X8433571Y-17942619D01*
X8738333Y-18085476D02*
X8624048Y-18085476D01*
X8681190Y-18085476D02*
X8681190Y-17885476D01*
X8662143Y-17914048D01*
X8643095Y-17933095D01*
X8624048Y-17942619D01*
X8852619Y-17971190D02*
X8833571Y-17961667D01*
X8824048Y-17952143D01*
X8814524Y-17933095D01*
X8814524Y-17923571D01*
X8824048Y-17904524D01*
X8833571Y-17895000D01*
X8852619Y-17885476D01*
X8890714Y-17885476D01*
X8909762Y-17895000D01*
X8919286Y-17904524D01*
X8928810Y-17923571D01*
X8928810Y-17933095D01*
X8919286Y-17952143D01*
X8909762Y-17961667D01*
X8890714Y-17971190D01*
X8852619Y-17971190D01*
X8833571Y-17980714D01*
X8824048Y-17990238D01*
X8814524Y-18009286D01*
X8814524Y-18047381D01*
X8824048Y-18066429D01*
X8833571Y-18075952D01*
X8852619Y-18085476D01*
X8890714Y-18085476D01*
X8909762Y-18075952D01*
X8919286Y-18066429D01*
X8928810Y-18047381D01*
X8928810Y-18009286D01*
X8919286Y-17990238D01*
X8909762Y-17980714D01*
X8890714Y-17971190D01*
X9119286Y-18085476D02*
X9005000Y-18085476D01*
X9062143Y-18085476D02*
X9062143Y-17885476D01*
X9043095Y-17914048D01*
X9024048Y-17933095D01*
X9005000Y-17942619D01*
X9195476Y-17885476D02*
X9195476Y-17923571D01*
X9271667Y-17885476D02*
X9271667Y-17923571D01*
X9566905Y-18161667D02*
X9557381Y-18152143D01*
X9538333Y-18123571D01*
X9528810Y-18104524D01*
X9519286Y-18075952D01*
X9509762Y-18028333D01*
X9509762Y-17990238D01*
X9519286Y-17942619D01*
X9528810Y-17914048D01*
X9538333Y-17895000D01*
X9557381Y-17866429D01*
X9566905Y-17856905D01*
X9747857Y-18085476D02*
X9633571Y-18085476D01*
X9690714Y-18085476D02*
X9690714Y-17885476D01*
X9671667Y-17914048D01*
X9652619Y-17933095D01*
X9633571Y-17942619D01*
X9985952Y-18085476D02*
X9985952Y-17885476D01*
X10071667Y-18085476D02*
X10071667Y-17980714D01*
X10062143Y-17961667D01*
X10043095Y-17952143D01*
X10014524Y-17952143D01*
X9995476Y-17961667D01*
X9985952Y-17971190D01*
X10195476Y-18085476D02*
X10176429Y-18075952D01*
X10166905Y-18066429D01*
X10157381Y-18047381D01*
X10157381Y-17990238D01*
X10166905Y-17971190D01*
X10176429Y-17961667D01*
X10195476Y-17952143D01*
X10224048Y-17952143D01*
X10243095Y-17961667D01*
X10252619Y-17971190D01*
X10262143Y-17990238D01*
X10262143Y-18047381D01*
X10252619Y-18066429D01*
X10243095Y-18075952D01*
X10224048Y-18085476D01*
X10195476Y-18085476D01*
X10376429Y-18085476D02*
X10357381Y-18075952D01*
X10347857Y-18056905D01*
X10347857Y-17885476D01*
X10528810Y-18075952D02*
X10509762Y-18085476D01*
X10471667Y-18085476D01*
X10452619Y-18075952D01*
X10443095Y-18056905D01*
X10443095Y-17980714D01*
X10452619Y-17961667D01*
X10471667Y-17952143D01*
X10509762Y-17952143D01*
X10528810Y-17961667D01*
X10538333Y-17980714D01*
X10538333Y-17999762D01*
X10443095Y-18018810D01*
X10605000Y-18161667D02*
X10614524Y-18152143D01*
X10633571Y-18123571D01*
X10643095Y-18104524D01*
X10652619Y-18075952D01*
X10662143Y-18028333D01*
X10662143Y-17990238D01*
X10652619Y-17942619D01*
X10643095Y-17914048D01*
X10633571Y-17895000D01*
X10614524Y-17866429D01*
X10605000Y-17856905D01*
M02*
