%TF.GenerationSoftware,KiCad,Pcbnew,6.0.11+dfsg-1*%
%TF.CreationDate,2024-07-23T18:01:55-05:00*%
%TF.ProjectId,hootswitch,686f6f74-7377-4697-9463-682e6b696361,rev?*%
%TF.SameCoordinates,Original*%
%TF.FileFunction,Drillmap*%
%TF.FilePolarity,Positive*%
%FSLAX45Y45*%
G04 Gerber Fmt 4.5, Leading zero omitted, Abs format (unit mm)*
G04 Created by KiCad (PCBNEW 6.0.11+dfsg-1) date 2024-07-23 18:01:55*
%MOMM*%
%LPD*%
G01*
G04 APERTURE LIST*
%ADD10C,0.100000*%
%ADD11C,0.200000*%
%ADD12C,0.150000*%
%ADD13C,0.160000*%
%ADD14C,0.180000*%
%ADD15C,0.270000*%
G04 APERTURE END LIST*
D10*
X16000000Y-6000000D02*
X6000000Y-6000000D01*
X6000000Y-14800000D02*
X10400000Y-14800000D01*
X6000000Y-6000000D02*
X6000000Y-14800000D01*
X11500000Y-14700000D02*
X11600000Y-14800000D01*
X11600000Y-14800000D02*
X16000000Y-14800000D01*
X10400000Y-14800000D02*
X10500000Y-14700000D01*
X10500000Y-14700000D02*
X11500000Y-14700000D01*
X16000000Y-6000000D02*
X16000000Y-14800000D01*
D11*
D12*
X10682500Y-14122000D02*
X10832500Y-14272000D01*
X10832500Y-14122000D02*
X10682500Y-14272000D01*
X11167500Y-14122000D02*
X11317500Y-14272000D01*
X11317500Y-14122000D02*
X11167500Y-14272000D01*
D13*
X6390000Y-9400000D02*
G75*
G03*
X6390000Y-9400000I-80000J0D01*
G01*
D14*
X10727500Y-14410000D02*
X10727500Y-14590000D01*
X10637500Y-14500000D02*
X10817500Y-14500000D01*
X11272500Y-14410000D02*
X11272500Y-14590000D01*
X11182500Y-14500000D02*
X11362500Y-14500000D01*
D15*
X7095460Y-7495460D02*
X7095460Y-7304540D01*
X6904540Y-7304540D01*
X6904540Y-7495460D01*
X7095460Y-7495460D01*
X7095460Y-13495460D02*
X7095460Y-13304540D01*
X6904540Y-13304540D01*
X6904540Y-13495460D01*
X7095460Y-13495460D01*
X15095460Y-7495460D02*
X15095460Y-7304540D01*
X14904540Y-7304540D01*
X14904540Y-7495460D01*
X15095460Y-7495460D01*
X15095460Y-13495460D02*
X15095460Y-13304540D01*
X14904540Y-13304540D01*
X14904540Y-13495460D01*
X15095460Y-13495460D01*
D11*
X6252619Y-15115476D02*
X6252619Y-14915476D01*
X6300238Y-14915476D01*
X6328809Y-14925000D01*
X6347857Y-14944048D01*
X6357381Y-14963095D01*
X6366905Y-15001190D01*
X6366905Y-15029762D01*
X6357381Y-15067857D01*
X6347857Y-15086905D01*
X6328809Y-15105952D01*
X6300238Y-15115476D01*
X6252619Y-15115476D01*
X6452619Y-15115476D02*
X6452619Y-14982143D01*
X6452619Y-15020238D02*
X6462143Y-15001190D01*
X6471667Y-14991667D01*
X6490714Y-14982143D01*
X6509762Y-14982143D01*
X6576428Y-15115476D02*
X6576428Y-14982143D01*
X6576428Y-14915476D02*
X6566905Y-14925000D01*
X6576428Y-14934524D01*
X6585952Y-14925000D01*
X6576428Y-14915476D01*
X6576428Y-14934524D01*
X6700238Y-15115476D02*
X6681190Y-15105952D01*
X6671667Y-15086905D01*
X6671667Y-14915476D01*
X6805000Y-15115476D02*
X6785952Y-15105952D01*
X6776428Y-15086905D01*
X6776428Y-14915476D01*
X7033571Y-15115476D02*
X7033571Y-14915476D01*
X7100238Y-15058333D01*
X7166905Y-14915476D01*
X7166905Y-15115476D01*
X7347857Y-15115476D02*
X7347857Y-15010714D01*
X7338333Y-14991667D01*
X7319286Y-14982143D01*
X7281190Y-14982143D01*
X7262143Y-14991667D01*
X7347857Y-15105952D02*
X7328809Y-15115476D01*
X7281190Y-15115476D01*
X7262143Y-15105952D01*
X7252619Y-15086905D01*
X7252619Y-15067857D01*
X7262143Y-15048809D01*
X7281190Y-15039286D01*
X7328809Y-15039286D01*
X7347857Y-15029762D01*
X7443095Y-14982143D02*
X7443095Y-15182143D01*
X7443095Y-14991667D02*
X7462143Y-14982143D01*
X7500238Y-14982143D01*
X7519286Y-14991667D01*
X7528809Y-15001190D01*
X7538333Y-15020238D01*
X7538333Y-15077381D01*
X7528809Y-15096428D01*
X7519286Y-15105952D01*
X7500238Y-15115476D01*
X7462143Y-15115476D01*
X7443095Y-15105952D01*
X7624048Y-15096428D02*
X7633571Y-15105952D01*
X7624048Y-15115476D01*
X7614524Y-15105952D01*
X7624048Y-15096428D01*
X7624048Y-15115476D01*
X7624048Y-14991667D02*
X7633571Y-15001190D01*
X7624048Y-15010714D01*
X7614524Y-15001190D01*
X7624048Y-14991667D01*
X7624048Y-15010714D01*
D12*
X5845000Y-15370000D02*
X5995000Y-15520000D01*
X5995000Y-15370000D02*
X5845000Y-15520000D01*
D11*
X6357381Y-15535476D02*
X6243095Y-15535476D01*
X6300238Y-15535476D02*
X6300238Y-15335476D01*
X6281190Y-15364048D01*
X6262143Y-15383095D01*
X6243095Y-15392619D01*
X6443095Y-15516428D02*
X6452619Y-15525952D01*
X6443095Y-15535476D01*
X6433571Y-15525952D01*
X6443095Y-15516428D01*
X6443095Y-15535476D01*
X6633571Y-15335476D02*
X6538333Y-15335476D01*
X6528809Y-15430714D01*
X6538333Y-15421190D01*
X6557381Y-15411667D01*
X6605000Y-15411667D01*
X6624048Y-15421190D01*
X6633571Y-15430714D01*
X6643095Y-15449762D01*
X6643095Y-15497381D01*
X6633571Y-15516428D01*
X6624048Y-15525952D01*
X6605000Y-15535476D01*
X6557381Y-15535476D01*
X6538333Y-15525952D01*
X6528809Y-15516428D01*
X6766905Y-15335476D02*
X6785952Y-15335476D01*
X6805000Y-15345000D01*
X6814524Y-15354524D01*
X6824048Y-15373571D01*
X6833571Y-15411667D01*
X6833571Y-15459286D01*
X6824048Y-15497381D01*
X6814524Y-15516428D01*
X6805000Y-15525952D01*
X6785952Y-15535476D01*
X6766905Y-15535476D01*
X6747857Y-15525952D01*
X6738333Y-15516428D01*
X6728809Y-15497381D01*
X6719286Y-15459286D01*
X6719286Y-15411667D01*
X6728809Y-15373571D01*
X6738333Y-15354524D01*
X6747857Y-15345000D01*
X6766905Y-15335476D01*
X6957381Y-15335476D02*
X6976428Y-15335476D01*
X6995476Y-15345000D01*
X7005000Y-15354524D01*
X7014524Y-15373571D01*
X7024048Y-15411667D01*
X7024048Y-15459286D01*
X7014524Y-15497381D01*
X7005000Y-15516428D01*
X6995476Y-15525952D01*
X6976428Y-15535476D01*
X6957381Y-15535476D01*
X6938333Y-15525952D01*
X6928809Y-15516428D01*
X6919286Y-15497381D01*
X6909762Y-15459286D01*
X6909762Y-15411667D01*
X6919286Y-15373571D01*
X6928809Y-15354524D01*
X6938333Y-15345000D01*
X6957381Y-15335476D01*
X7109762Y-15535476D02*
X7109762Y-15402143D01*
X7109762Y-15421190D02*
X7119286Y-15411667D01*
X7138333Y-15402143D01*
X7166905Y-15402143D01*
X7185952Y-15411667D01*
X7195476Y-15430714D01*
X7195476Y-15535476D01*
X7195476Y-15430714D02*
X7205000Y-15411667D01*
X7224048Y-15402143D01*
X7252619Y-15402143D01*
X7271667Y-15411667D01*
X7281190Y-15430714D01*
X7281190Y-15535476D01*
X7376428Y-15535476D02*
X7376428Y-15402143D01*
X7376428Y-15421190D02*
X7385952Y-15411667D01*
X7405000Y-15402143D01*
X7433571Y-15402143D01*
X7452619Y-15411667D01*
X7462143Y-15430714D01*
X7462143Y-15535476D01*
X7462143Y-15430714D02*
X7471667Y-15411667D01*
X7490714Y-15402143D01*
X7519286Y-15402143D01*
X7538333Y-15411667D01*
X7547857Y-15430714D01*
X7547857Y-15535476D01*
X7938333Y-15325952D02*
X7766905Y-15583095D01*
X8195476Y-15335476D02*
X8214524Y-15335476D01*
X8233571Y-15345000D01*
X8243095Y-15354524D01*
X8252619Y-15373571D01*
X8262143Y-15411667D01*
X8262143Y-15459286D01*
X8252619Y-15497381D01*
X8243095Y-15516428D01*
X8233571Y-15525952D01*
X8214524Y-15535476D01*
X8195476Y-15535476D01*
X8176428Y-15525952D01*
X8166905Y-15516428D01*
X8157381Y-15497381D01*
X8147857Y-15459286D01*
X8147857Y-15411667D01*
X8157381Y-15373571D01*
X8166905Y-15354524D01*
X8176428Y-15345000D01*
X8195476Y-15335476D01*
X8347857Y-15516428D02*
X8357381Y-15525952D01*
X8347857Y-15535476D01*
X8338333Y-15525952D01*
X8347857Y-15516428D01*
X8347857Y-15535476D01*
X8481190Y-15335476D02*
X8500238Y-15335476D01*
X8519286Y-15345000D01*
X8528810Y-15354524D01*
X8538333Y-15373571D01*
X8547857Y-15411667D01*
X8547857Y-15459286D01*
X8538333Y-15497381D01*
X8528810Y-15516428D01*
X8519286Y-15525952D01*
X8500238Y-15535476D01*
X8481190Y-15535476D01*
X8462143Y-15525952D01*
X8452619Y-15516428D01*
X8443095Y-15497381D01*
X8433571Y-15459286D01*
X8433571Y-15411667D01*
X8443095Y-15373571D01*
X8452619Y-15354524D01*
X8462143Y-15345000D01*
X8481190Y-15335476D01*
X8728810Y-15335476D02*
X8633571Y-15335476D01*
X8624048Y-15430714D01*
X8633571Y-15421190D01*
X8652619Y-15411667D01*
X8700238Y-15411667D01*
X8719286Y-15421190D01*
X8728810Y-15430714D01*
X8738333Y-15449762D01*
X8738333Y-15497381D01*
X8728810Y-15516428D01*
X8719286Y-15525952D01*
X8700238Y-15535476D01*
X8652619Y-15535476D01*
X8633571Y-15525952D01*
X8624048Y-15516428D01*
X8833571Y-15535476D02*
X8871667Y-15535476D01*
X8890714Y-15525952D01*
X8900238Y-15516428D01*
X8919286Y-15487857D01*
X8928810Y-15449762D01*
X8928810Y-15373571D01*
X8919286Y-15354524D01*
X8909762Y-15345000D01*
X8890714Y-15335476D01*
X8852619Y-15335476D01*
X8833571Y-15345000D01*
X8824048Y-15354524D01*
X8814524Y-15373571D01*
X8814524Y-15421190D01*
X8824048Y-15440238D01*
X8833571Y-15449762D01*
X8852619Y-15459286D01*
X8890714Y-15459286D01*
X8909762Y-15449762D01*
X8919286Y-15440238D01*
X8928810Y-15421190D01*
X9119286Y-15535476D02*
X9005000Y-15535476D01*
X9062143Y-15535476D02*
X9062143Y-15335476D01*
X9043095Y-15364048D01*
X9024048Y-15383095D01*
X9005000Y-15392619D01*
X9195476Y-15335476D02*
X9195476Y-15373571D01*
X9271667Y-15335476D02*
X9271667Y-15373571D01*
X9566905Y-15611667D02*
X9557381Y-15602143D01*
X9538333Y-15573571D01*
X9528810Y-15554524D01*
X9519286Y-15525952D01*
X9509762Y-15478333D01*
X9509762Y-15440238D01*
X9519286Y-15392619D01*
X9528810Y-15364048D01*
X9538333Y-15345000D01*
X9557381Y-15316428D01*
X9566905Y-15306905D01*
X9633571Y-15354524D02*
X9643095Y-15345000D01*
X9662143Y-15335476D01*
X9709762Y-15335476D01*
X9728810Y-15345000D01*
X9738333Y-15354524D01*
X9747857Y-15373571D01*
X9747857Y-15392619D01*
X9738333Y-15421190D01*
X9624048Y-15535476D01*
X9747857Y-15535476D01*
X9985952Y-15535476D02*
X9985952Y-15335476D01*
X10071667Y-15535476D02*
X10071667Y-15430714D01*
X10062143Y-15411667D01*
X10043095Y-15402143D01*
X10014524Y-15402143D01*
X9995476Y-15411667D01*
X9985952Y-15421190D01*
X10195476Y-15535476D02*
X10176429Y-15525952D01*
X10166905Y-15516428D01*
X10157381Y-15497381D01*
X10157381Y-15440238D01*
X10166905Y-15421190D01*
X10176429Y-15411667D01*
X10195476Y-15402143D01*
X10224048Y-15402143D01*
X10243095Y-15411667D01*
X10252619Y-15421190D01*
X10262143Y-15440238D01*
X10262143Y-15497381D01*
X10252619Y-15516428D01*
X10243095Y-15525952D01*
X10224048Y-15535476D01*
X10195476Y-15535476D01*
X10376429Y-15535476D02*
X10357381Y-15525952D01*
X10347857Y-15506905D01*
X10347857Y-15335476D01*
X10528810Y-15525952D02*
X10509762Y-15535476D01*
X10471667Y-15535476D01*
X10452619Y-15525952D01*
X10443095Y-15506905D01*
X10443095Y-15430714D01*
X10452619Y-15411667D01*
X10471667Y-15402143D01*
X10509762Y-15402143D01*
X10528810Y-15411667D01*
X10538333Y-15430714D01*
X10538333Y-15449762D01*
X10443095Y-15468809D01*
X10614524Y-15525952D02*
X10633571Y-15535476D01*
X10671667Y-15535476D01*
X10690714Y-15525952D01*
X10700238Y-15506905D01*
X10700238Y-15497381D01*
X10690714Y-15478333D01*
X10671667Y-15468809D01*
X10643095Y-15468809D01*
X10624048Y-15459286D01*
X10614524Y-15440238D01*
X10614524Y-15430714D01*
X10624048Y-15411667D01*
X10643095Y-15402143D01*
X10671667Y-15402143D01*
X10690714Y-15411667D01*
X10766905Y-15611667D02*
X10776429Y-15602143D01*
X10795476Y-15573571D01*
X10805000Y-15554524D01*
X10814524Y-15525952D01*
X10824048Y-15478333D01*
X10824048Y-15440238D01*
X10814524Y-15392619D01*
X10805000Y-15364048D01*
X10795476Y-15345000D01*
X10776429Y-15316428D01*
X10766905Y-15306905D01*
X11128810Y-15611667D02*
X11119286Y-15602143D01*
X11100238Y-15573571D01*
X11090714Y-15554524D01*
X11081190Y-15525952D01*
X11071667Y-15478333D01*
X11071667Y-15440238D01*
X11081190Y-15392619D01*
X11090714Y-15364048D01*
X11100238Y-15345000D01*
X11119286Y-15316428D01*
X11128810Y-15306905D01*
X11205000Y-15402143D02*
X11205000Y-15535476D01*
X11205000Y-15421190D02*
X11214524Y-15411667D01*
X11233571Y-15402143D01*
X11262143Y-15402143D01*
X11281190Y-15411667D01*
X11290714Y-15430714D01*
X11290714Y-15535476D01*
X11414524Y-15535476D02*
X11395476Y-15525952D01*
X11385952Y-15516428D01*
X11376428Y-15497381D01*
X11376428Y-15440238D01*
X11385952Y-15421190D01*
X11395476Y-15411667D01*
X11414524Y-15402143D01*
X11443095Y-15402143D01*
X11462143Y-15411667D01*
X11471667Y-15421190D01*
X11481190Y-15440238D01*
X11481190Y-15497381D01*
X11471667Y-15516428D01*
X11462143Y-15525952D01*
X11443095Y-15535476D01*
X11414524Y-15535476D01*
X11538333Y-15402143D02*
X11614524Y-15402143D01*
X11566905Y-15335476D02*
X11566905Y-15506905D01*
X11576428Y-15525952D01*
X11595476Y-15535476D01*
X11614524Y-15535476D01*
X11833571Y-15402143D02*
X11833571Y-15602143D01*
X11833571Y-15411667D02*
X11852619Y-15402143D01*
X11890714Y-15402143D01*
X11909762Y-15411667D01*
X11919286Y-15421190D01*
X11928809Y-15440238D01*
X11928809Y-15497381D01*
X11919286Y-15516428D01*
X11909762Y-15525952D01*
X11890714Y-15535476D01*
X11852619Y-15535476D01*
X11833571Y-15525952D01*
X12043095Y-15535476D02*
X12024048Y-15525952D01*
X12014524Y-15506905D01*
X12014524Y-15335476D01*
X12205000Y-15535476D02*
X12205000Y-15430714D01*
X12195476Y-15411667D01*
X12176428Y-15402143D01*
X12138333Y-15402143D01*
X12119286Y-15411667D01*
X12205000Y-15525952D02*
X12185952Y-15535476D01*
X12138333Y-15535476D01*
X12119286Y-15525952D01*
X12109762Y-15506905D01*
X12109762Y-15487857D01*
X12119286Y-15468809D01*
X12138333Y-15459286D01*
X12185952Y-15459286D01*
X12205000Y-15449762D01*
X12271667Y-15402143D02*
X12347857Y-15402143D01*
X12300238Y-15335476D02*
X12300238Y-15506905D01*
X12309762Y-15525952D01*
X12328809Y-15535476D01*
X12347857Y-15535476D01*
X12490714Y-15525952D02*
X12471667Y-15535476D01*
X12433571Y-15535476D01*
X12414524Y-15525952D01*
X12405000Y-15506905D01*
X12405000Y-15430714D01*
X12414524Y-15411667D01*
X12433571Y-15402143D01*
X12471667Y-15402143D01*
X12490714Y-15411667D01*
X12500238Y-15430714D01*
X12500238Y-15449762D01*
X12405000Y-15468809D01*
X12671667Y-15535476D02*
X12671667Y-15335476D01*
X12671667Y-15525952D02*
X12652619Y-15535476D01*
X12614524Y-15535476D01*
X12595476Y-15525952D01*
X12585952Y-15516428D01*
X12576428Y-15497381D01*
X12576428Y-15440238D01*
X12585952Y-15421190D01*
X12595476Y-15411667D01*
X12614524Y-15402143D01*
X12652619Y-15402143D01*
X12671667Y-15411667D01*
X12747857Y-15611667D02*
X12757381Y-15602143D01*
X12776428Y-15573571D01*
X12785952Y-15554524D01*
X12795476Y-15525952D01*
X12805000Y-15478333D01*
X12805000Y-15440238D01*
X12795476Y-15392619D01*
X12785952Y-15364048D01*
X12776428Y-15345000D01*
X12757381Y-15316428D01*
X12747857Y-15306905D01*
D13*
X5995000Y-15715000D02*
G75*
G03*
X5995000Y-15715000I-80000J0D01*
G01*
D11*
X6357381Y-15805476D02*
X6243095Y-15805476D01*
X6300238Y-15805476D02*
X6300238Y-15605476D01*
X6281190Y-15634048D01*
X6262143Y-15653095D01*
X6243095Y-15662619D01*
X6443095Y-15786428D02*
X6452619Y-15795952D01*
X6443095Y-15805476D01*
X6433571Y-15795952D01*
X6443095Y-15786428D01*
X6443095Y-15805476D01*
X6624048Y-15605476D02*
X6585952Y-15605476D01*
X6566905Y-15615000D01*
X6557381Y-15624524D01*
X6538333Y-15653095D01*
X6528809Y-15691190D01*
X6528809Y-15767381D01*
X6538333Y-15786428D01*
X6547857Y-15795952D01*
X6566905Y-15805476D01*
X6605000Y-15805476D01*
X6624048Y-15795952D01*
X6633571Y-15786428D01*
X6643095Y-15767381D01*
X6643095Y-15719762D01*
X6633571Y-15700714D01*
X6624048Y-15691190D01*
X6605000Y-15681667D01*
X6566905Y-15681667D01*
X6547857Y-15691190D01*
X6538333Y-15700714D01*
X6528809Y-15719762D01*
X6766905Y-15605476D02*
X6785952Y-15605476D01*
X6805000Y-15615000D01*
X6814524Y-15624524D01*
X6824048Y-15643571D01*
X6833571Y-15681667D01*
X6833571Y-15729286D01*
X6824048Y-15767381D01*
X6814524Y-15786428D01*
X6805000Y-15795952D01*
X6785952Y-15805476D01*
X6766905Y-15805476D01*
X6747857Y-15795952D01*
X6738333Y-15786428D01*
X6728809Y-15767381D01*
X6719286Y-15729286D01*
X6719286Y-15681667D01*
X6728809Y-15643571D01*
X6738333Y-15624524D01*
X6747857Y-15615000D01*
X6766905Y-15605476D01*
X6957381Y-15605476D02*
X6976428Y-15605476D01*
X6995476Y-15615000D01*
X7005000Y-15624524D01*
X7014524Y-15643571D01*
X7024048Y-15681667D01*
X7024048Y-15729286D01*
X7014524Y-15767381D01*
X7005000Y-15786428D01*
X6995476Y-15795952D01*
X6976428Y-15805476D01*
X6957381Y-15805476D01*
X6938333Y-15795952D01*
X6928809Y-15786428D01*
X6919286Y-15767381D01*
X6909762Y-15729286D01*
X6909762Y-15681667D01*
X6919286Y-15643571D01*
X6928809Y-15624524D01*
X6938333Y-15615000D01*
X6957381Y-15605476D01*
X7109762Y-15805476D02*
X7109762Y-15672143D01*
X7109762Y-15691190D02*
X7119286Y-15681667D01*
X7138333Y-15672143D01*
X7166905Y-15672143D01*
X7185952Y-15681667D01*
X7195476Y-15700714D01*
X7195476Y-15805476D01*
X7195476Y-15700714D02*
X7205000Y-15681667D01*
X7224048Y-15672143D01*
X7252619Y-15672143D01*
X7271667Y-15681667D01*
X7281190Y-15700714D01*
X7281190Y-15805476D01*
X7376428Y-15805476D02*
X7376428Y-15672143D01*
X7376428Y-15691190D02*
X7385952Y-15681667D01*
X7405000Y-15672143D01*
X7433571Y-15672143D01*
X7452619Y-15681667D01*
X7462143Y-15700714D01*
X7462143Y-15805476D01*
X7462143Y-15700714D02*
X7471667Y-15681667D01*
X7490714Y-15672143D01*
X7519286Y-15672143D01*
X7538333Y-15681667D01*
X7547857Y-15700714D01*
X7547857Y-15805476D01*
X7938333Y-15595952D02*
X7766905Y-15853095D01*
X8195476Y-15605476D02*
X8214524Y-15605476D01*
X8233571Y-15615000D01*
X8243095Y-15624524D01*
X8252619Y-15643571D01*
X8262143Y-15681667D01*
X8262143Y-15729286D01*
X8252619Y-15767381D01*
X8243095Y-15786428D01*
X8233571Y-15795952D01*
X8214524Y-15805476D01*
X8195476Y-15805476D01*
X8176428Y-15795952D01*
X8166905Y-15786428D01*
X8157381Y-15767381D01*
X8147857Y-15729286D01*
X8147857Y-15681667D01*
X8157381Y-15643571D01*
X8166905Y-15624524D01*
X8176428Y-15615000D01*
X8195476Y-15605476D01*
X8347857Y-15786428D02*
X8357381Y-15795952D01*
X8347857Y-15805476D01*
X8338333Y-15795952D01*
X8347857Y-15786428D01*
X8347857Y-15805476D01*
X8481190Y-15605476D02*
X8500238Y-15605476D01*
X8519286Y-15615000D01*
X8528810Y-15624524D01*
X8538333Y-15643571D01*
X8547857Y-15681667D01*
X8547857Y-15729286D01*
X8538333Y-15767381D01*
X8528810Y-15786428D01*
X8519286Y-15795952D01*
X8500238Y-15805476D01*
X8481190Y-15805476D01*
X8462143Y-15795952D01*
X8452619Y-15786428D01*
X8443095Y-15767381D01*
X8433571Y-15729286D01*
X8433571Y-15681667D01*
X8443095Y-15643571D01*
X8452619Y-15624524D01*
X8462143Y-15615000D01*
X8481190Y-15605476D01*
X8719286Y-15605476D02*
X8681190Y-15605476D01*
X8662143Y-15615000D01*
X8652619Y-15624524D01*
X8633571Y-15653095D01*
X8624048Y-15691190D01*
X8624048Y-15767381D01*
X8633571Y-15786428D01*
X8643095Y-15795952D01*
X8662143Y-15805476D01*
X8700238Y-15805476D01*
X8719286Y-15795952D01*
X8728810Y-15786428D01*
X8738333Y-15767381D01*
X8738333Y-15719762D01*
X8728810Y-15700714D01*
X8719286Y-15691190D01*
X8700238Y-15681667D01*
X8662143Y-15681667D01*
X8643095Y-15691190D01*
X8633571Y-15700714D01*
X8624048Y-15719762D01*
X8805000Y-15605476D02*
X8928810Y-15605476D01*
X8862143Y-15681667D01*
X8890714Y-15681667D01*
X8909762Y-15691190D01*
X8919286Y-15700714D01*
X8928810Y-15719762D01*
X8928810Y-15767381D01*
X8919286Y-15786428D01*
X8909762Y-15795952D01*
X8890714Y-15805476D01*
X8833571Y-15805476D01*
X8814524Y-15795952D01*
X8805000Y-15786428D01*
X9052619Y-15605476D02*
X9071667Y-15605476D01*
X9090714Y-15615000D01*
X9100238Y-15624524D01*
X9109762Y-15643571D01*
X9119286Y-15681667D01*
X9119286Y-15729286D01*
X9109762Y-15767381D01*
X9100238Y-15786428D01*
X9090714Y-15795952D01*
X9071667Y-15805476D01*
X9052619Y-15805476D01*
X9033571Y-15795952D01*
X9024048Y-15786428D01*
X9014524Y-15767381D01*
X9005000Y-15729286D01*
X9005000Y-15681667D01*
X9014524Y-15643571D01*
X9024048Y-15624524D01*
X9033571Y-15615000D01*
X9052619Y-15605476D01*
X9195476Y-15605476D02*
X9195476Y-15643571D01*
X9271667Y-15605476D02*
X9271667Y-15643571D01*
X9566905Y-15881667D02*
X9557381Y-15872143D01*
X9538333Y-15843571D01*
X9528810Y-15824524D01*
X9519286Y-15795952D01*
X9509762Y-15748333D01*
X9509762Y-15710238D01*
X9519286Y-15662619D01*
X9528810Y-15634048D01*
X9538333Y-15615000D01*
X9557381Y-15586428D01*
X9566905Y-15576905D01*
X9747857Y-15805476D02*
X9633571Y-15805476D01*
X9690714Y-15805476D02*
X9690714Y-15605476D01*
X9671667Y-15634048D01*
X9652619Y-15653095D01*
X9633571Y-15662619D01*
X9985952Y-15805476D02*
X9985952Y-15605476D01*
X10071667Y-15805476D02*
X10071667Y-15700714D01*
X10062143Y-15681667D01*
X10043095Y-15672143D01*
X10014524Y-15672143D01*
X9995476Y-15681667D01*
X9985952Y-15691190D01*
X10195476Y-15805476D02*
X10176429Y-15795952D01*
X10166905Y-15786428D01*
X10157381Y-15767381D01*
X10157381Y-15710238D01*
X10166905Y-15691190D01*
X10176429Y-15681667D01*
X10195476Y-15672143D01*
X10224048Y-15672143D01*
X10243095Y-15681667D01*
X10252619Y-15691190D01*
X10262143Y-15710238D01*
X10262143Y-15767381D01*
X10252619Y-15786428D01*
X10243095Y-15795952D01*
X10224048Y-15805476D01*
X10195476Y-15805476D01*
X10376429Y-15805476D02*
X10357381Y-15795952D01*
X10347857Y-15776905D01*
X10347857Y-15605476D01*
X10528810Y-15795952D02*
X10509762Y-15805476D01*
X10471667Y-15805476D01*
X10452619Y-15795952D01*
X10443095Y-15776905D01*
X10443095Y-15700714D01*
X10452619Y-15681667D01*
X10471667Y-15672143D01*
X10509762Y-15672143D01*
X10528810Y-15681667D01*
X10538333Y-15700714D01*
X10538333Y-15719762D01*
X10443095Y-15738809D01*
X10605000Y-15881667D02*
X10614524Y-15872143D01*
X10633571Y-15843571D01*
X10643095Y-15824524D01*
X10652619Y-15795952D01*
X10662143Y-15748333D01*
X10662143Y-15710238D01*
X10652619Y-15662619D01*
X10643095Y-15634048D01*
X10633571Y-15615000D01*
X10614524Y-15586428D01*
X10605000Y-15576905D01*
X10966905Y-15881667D02*
X10957381Y-15872143D01*
X10938333Y-15843571D01*
X10928810Y-15824524D01*
X10919286Y-15795952D01*
X10909762Y-15748333D01*
X10909762Y-15710238D01*
X10919286Y-15662619D01*
X10928810Y-15634048D01*
X10938333Y-15615000D01*
X10957381Y-15586428D01*
X10966905Y-15576905D01*
X11043095Y-15672143D02*
X11043095Y-15805476D01*
X11043095Y-15691190D02*
X11052619Y-15681667D01*
X11071667Y-15672143D01*
X11100238Y-15672143D01*
X11119286Y-15681667D01*
X11128810Y-15700714D01*
X11128810Y-15805476D01*
X11252619Y-15805476D02*
X11233571Y-15795952D01*
X11224048Y-15786428D01*
X11214524Y-15767381D01*
X11214524Y-15710238D01*
X11224048Y-15691190D01*
X11233571Y-15681667D01*
X11252619Y-15672143D01*
X11281190Y-15672143D01*
X11300238Y-15681667D01*
X11309762Y-15691190D01*
X11319286Y-15710238D01*
X11319286Y-15767381D01*
X11309762Y-15786428D01*
X11300238Y-15795952D01*
X11281190Y-15805476D01*
X11252619Y-15805476D01*
X11376428Y-15672143D02*
X11452619Y-15672143D01*
X11405000Y-15605476D02*
X11405000Y-15776905D01*
X11414524Y-15795952D01*
X11433571Y-15805476D01*
X11452619Y-15805476D01*
X11671667Y-15672143D02*
X11671667Y-15872143D01*
X11671667Y-15681667D02*
X11690714Y-15672143D01*
X11728809Y-15672143D01*
X11747857Y-15681667D01*
X11757381Y-15691190D01*
X11766905Y-15710238D01*
X11766905Y-15767381D01*
X11757381Y-15786428D01*
X11747857Y-15795952D01*
X11728809Y-15805476D01*
X11690714Y-15805476D01*
X11671667Y-15795952D01*
X11881190Y-15805476D02*
X11862143Y-15795952D01*
X11852619Y-15776905D01*
X11852619Y-15605476D01*
X12043095Y-15805476D02*
X12043095Y-15700714D01*
X12033571Y-15681667D01*
X12014524Y-15672143D01*
X11976428Y-15672143D01*
X11957381Y-15681667D01*
X12043095Y-15795952D02*
X12024048Y-15805476D01*
X11976428Y-15805476D01*
X11957381Y-15795952D01*
X11947857Y-15776905D01*
X11947857Y-15757857D01*
X11957381Y-15738809D01*
X11976428Y-15729286D01*
X12024048Y-15729286D01*
X12043095Y-15719762D01*
X12109762Y-15672143D02*
X12185952Y-15672143D01*
X12138333Y-15605476D02*
X12138333Y-15776905D01*
X12147857Y-15795952D01*
X12166905Y-15805476D01*
X12185952Y-15805476D01*
X12328809Y-15795952D02*
X12309762Y-15805476D01*
X12271667Y-15805476D01*
X12252619Y-15795952D01*
X12243095Y-15776905D01*
X12243095Y-15700714D01*
X12252619Y-15681667D01*
X12271667Y-15672143D01*
X12309762Y-15672143D01*
X12328809Y-15681667D01*
X12338333Y-15700714D01*
X12338333Y-15719762D01*
X12243095Y-15738809D01*
X12509762Y-15805476D02*
X12509762Y-15605476D01*
X12509762Y-15795952D02*
X12490714Y-15805476D01*
X12452619Y-15805476D01*
X12433571Y-15795952D01*
X12424048Y-15786428D01*
X12414524Y-15767381D01*
X12414524Y-15710238D01*
X12424048Y-15691190D01*
X12433571Y-15681667D01*
X12452619Y-15672143D01*
X12490714Y-15672143D01*
X12509762Y-15681667D01*
X12585952Y-15881667D02*
X12595476Y-15872143D01*
X12614524Y-15843571D01*
X12624048Y-15824524D01*
X12633571Y-15795952D01*
X12643095Y-15748333D01*
X12643095Y-15710238D01*
X12633571Y-15662619D01*
X12624048Y-15634048D01*
X12614524Y-15615000D01*
X12595476Y-15586428D01*
X12585952Y-15576905D01*
D14*
X5905000Y-15905000D02*
X5905000Y-16085000D01*
X5815000Y-15995000D02*
X5995000Y-15995000D01*
D11*
X6357381Y-16085476D02*
X6243095Y-16085476D01*
X6300238Y-16085476D02*
X6300238Y-15885476D01*
X6281190Y-15914048D01*
X6262143Y-15933095D01*
X6243095Y-15942619D01*
X6443095Y-16066428D02*
X6452619Y-16075952D01*
X6443095Y-16085476D01*
X6433571Y-16075952D01*
X6443095Y-16066428D01*
X6443095Y-16085476D01*
X6566905Y-15971190D02*
X6547857Y-15961667D01*
X6538333Y-15952143D01*
X6528809Y-15933095D01*
X6528809Y-15923571D01*
X6538333Y-15904524D01*
X6547857Y-15895000D01*
X6566905Y-15885476D01*
X6605000Y-15885476D01*
X6624048Y-15895000D01*
X6633571Y-15904524D01*
X6643095Y-15923571D01*
X6643095Y-15933095D01*
X6633571Y-15952143D01*
X6624048Y-15961667D01*
X6605000Y-15971190D01*
X6566905Y-15971190D01*
X6547857Y-15980714D01*
X6538333Y-15990238D01*
X6528809Y-16009286D01*
X6528809Y-16047381D01*
X6538333Y-16066428D01*
X6547857Y-16075952D01*
X6566905Y-16085476D01*
X6605000Y-16085476D01*
X6624048Y-16075952D01*
X6633571Y-16066428D01*
X6643095Y-16047381D01*
X6643095Y-16009286D01*
X6633571Y-15990238D01*
X6624048Y-15980714D01*
X6605000Y-15971190D01*
X6766905Y-15885476D02*
X6785952Y-15885476D01*
X6805000Y-15895000D01*
X6814524Y-15904524D01*
X6824048Y-15923571D01*
X6833571Y-15961667D01*
X6833571Y-16009286D01*
X6824048Y-16047381D01*
X6814524Y-16066428D01*
X6805000Y-16075952D01*
X6785952Y-16085476D01*
X6766905Y-16085476D01*
X6747857Y-16075952D01*
X6738333Y-16066428D01*
X6728809Y-16047381D01*
X6719286Y-16009286D01*
X6719286Y-15961667D01*
X6728809Y-15923571D01*
X6738333Y-15904524D01*
X6747857Y-15895000D01*
X6766905Y-15885476D01*
X6957381Y-15885476D02*
X6976428Y-15885476D01*
X6995476Y-15895000D01*
X7005000Y-15904524D01*
X7014524Y-15923571D01*
X7024048Y-15961667D01*
X7024048Y-16009286D01*
X7014524Y-16047381D01*
X7005000Y-16066428D01*
X6995476Y-16075952D01*
X6976428Y-16085476D01*
X6957381Y-16085476D01*
X6938333Y-16075952D01*
X6928809Y-16066428D01*
X6919286Y-16047381D01*
X6909762Y-16009286D01*
X6909762Y-15961667D01*
X6919286Y-15923571D01*
X6928809Y-15904524D01*
X6938333Y-15895000D01*
X6957381Y-15885476D01*
X7109762Y-16085476D02*
X7109762Y-15952143D01*
X7109762Y-15971190D02*
X7119286Y-15961667D01*
X7138333Y-15952143D01*
X7166905Y-15952143D01*
X7185952Y-15961667D01*
X7195476Y-15980714D01*
X7195476Y-16085476D01*
X7195476Y-15980714D02*
X7205000Y-15961667D01*
X7224048Y-15952143D01*
X7252619Y-15952143D01*
X7271667Y-15961667D01*
X7281190Y-15980714D01*
X7281190Y-16085476D01*
X7376428Y-16085476D02*
X7376428Y-15952143D01*
X7376428Y-15971190D02*
X7385952Y-15961667D01*
X7405000Y-15952143D01*
X7433571Y-15952143D01*
X7452619Y-15961667D01*
X7462143Y-15980714D01*
X7462143Y-16085476D01*
X7462143Y-15980714D02*
X7471667Y-15961667D01*
X7490714Y-15952143D01*
X7519286Y-15952143D01*
X7538333Y-15961667D01*
X7547857Y-15980714D01*
X7547857Y-16085476D01*
X7938333Y-15875952D02*
X7766905Y-16133095D01*
X8195476Y-15885476D02*
X8214524Y-15885476D01*
X8233571Y-15895000D01*
X8243095Y-15904524D01*
X8252619Y-15923571D01*
X8262143Y-15961667D01*
X8262143Y-16009286D01*
X8252619Y-16047381D01*
X8243095Y-16066428D01*
X8233571Y-16075952D01*
X8214524Y-16085476D01*
X8195476Y-16085476D01*
X8176428Y-16075952D01*
X8166905Y-16066428D01*
X8157381Y-16047381D01*
X8147857Y-16009286D01*
X8147857Y-15961667D01*
X8157381Y-15923571D01*
X8166905Y-15904524D01*
X8176428Y-15895000D01*
X8195476Y-15885476D01*
X8347857Y-16066428D02*
X8357381Y-16075952D01*
X8347857Y-16085476D01*
X8338333Y-16075952D01*
X8347857Y-16066428D01*
X8347857Y-16085476D01*
X8481190Y-15885476D02*
X8500238Y-15885476D01*
X8519286Y-15895000D01*
X8528810Y-15904524D01*
X8538333Y-15923571D01*
X8547857Y-15961667D01*
X8547857Y-16009286D01*
X8538333Y-16047381D01*
X8528810Y-16066428D01*
X8519286Y-16075952D01*
X8500238Y-16085476D01*
X8481190Y-16085476D01*
X8462143Y-16075952D01*
X8452619Y-16066428D01*
X8443095Y-16047381D01*
X8433571Y-16009286D01*
X8433571Y-15961667D01*
X8443095Y-15923571D01*
X8452619Y-15904524D01*
X8462143Y-15895000D01*
X8481190Y-15885476D01*
X8614524Y-15885476D02*
X8747857Y-15885476D01*
X8662143Y-16085476D01*
X8862143Y-15885476D02*
X8881190Y-15885476D01*
X8900238Y-15895000D01*
X8909762Y-15904524D01*
X8919286Y-15923571D01*
X8928810Y-15961667D01*
X8928810Y-16009286D01*
X8919286Y-16047381D01*
X8909762Y-16066428D01*
X8900238Y-16075952D01*
X8881190Y-16085476D01*
X8862143Y-16085476D01*
X8843095Y-16075952D01*
X8833571Y-16066428D01*
X8824048Y-16047381D01*
X8814524Y-16009286D01*
X8814524Y-15961667D01*
X8824048Y-15923571D01*
X8833571Y-15904524D01*
X8843095Y-15895000D01*
X8862143Y-15885476D01*
X9024048Y-16085476D02*
X9062143Y-16085476D01*
X9081190Y-16075952D01*
X9090714Y-16066428D01*
X9109762Y-16037857D01*
X9119286Y-15999762D01*
X9119286Y-15923571D01*
X9109762Y-15904524D01*
X9100238Y-15895000D01*
X9081190Y-15885476D01*
X9043095Y-15885476D01*
X9024048Y-15895000D01*
X9014524Y-15904524D01*
X9005000Y-15923571D01*
X9005000Y-15971190D01*
X9014524Y-15990238D01*
X9024048Y-15999762D01*
X9043095Y-16009286D01*
X9081190Y-16009286D01*
X9100238Y-15999762D01*
X9109762Y-15990238D01*
X9119286Y-15971190D01*
X9195476Y-15885476D02*
X9195476Y-15923571D01*
X9271667Y-15885476D02*
X9271667Y-15923571D01*
X9566905Y-16161667D02*
X9557381Y-16152143D01*
X9538333Y-16123571D01*
X9528810Y-16104524D01*
X9519286Y-16075952D01*
X9509762Y-16028333D01*
X9509762Y-15990238D01*
X9519286Y-15942619D01*
X9528810Y-15914048D01*
X9538333Y-15895000D01*
X9557381Y-15866428D01*
X9566905Y-15856905D01*
X9633571Y-15904524D02*
X9643095Y-15895000D01*
X9662143Y-15885476D01*
X9709762Y-15885476D01*
X9728810Y-15895000D01*
X9738333Y-15904524D01*
X9747857Y-15923571D01*
X9747857Y-15942619D01*
X9738333Y-15971190D01*
X9624048Y-16085476D01*
X9747857Y-16085476D01*
X9985952Y-16085476D02*
X9985952Y-15885476D01*
X10071667Y-16085476D02*
X10071667Y-15980714D01*
X10062143Y-15961667D01*
X10043095Y-15952143D01*
X10014524Y-15952143D01*
X9995476Y-15961667D01*
X9985952Y-15971190D01*
X10195476Y-16085476D02*
X10176429Y-16075952D01*
X10166905Y-16066428D01*
X10157381Y-16047381D01*
X10157381Y-15990238D01*
X10166905Y-15971190D01*
X10176429Y-15961667D01*
X10195476Y-15952143D01*
X10224048Y-15952143D01*
X10243095Y-15961667D01*
X10252619Y-15971190D01*
X10262143Y-15990238D01*
X10262143Y-16047381D01*
X10252619Y-16066428D01*
X10243095Y-16075952D01*
X10224048Y-16085476D01*
X10195476Y-16085476D01*
X10376429Y-16085476D02*
X10357381Y-16075952D01*
X10347857Y-16056905D01*
X10347857Y-15885476D01*
X10528810Y-16075952D02*
X10509762Y-16085476D01*
X10471667Y-16085476D01*
X10452619Y-16075952D01*
X10443095Y-16056905D01*
X10443095Y-15980714D01*
X10452619Y-15961667D01*
X10471667Y-15952143D01*
X10509762Y-15952143D01*
X10528810Y-15961667D01*
X10538333Y-15980714D01*
X10538333Y-15999762D01*
X10443095Y-16018809D01*
X10614524Y-16075952D02*
X10633571Y-16085476D01*
X10671667Y-16085476D01*
X10690714Y-16075952D01*
X10700238Y-16056905D01*
X10700238Y-16047381D01*
X10690714Y-16028333D01*
X10671667Y-16018809D01*
X10643095Y-16018809D01*
X10624048Y-16009286D01*
X10614524Y-15990238D01*
X10614524Y-15980714D01*
X10624048Y-15961667D01*
X10643095Y-15952143D01*
X10671667Y-15952143D01*
X10690714Y-15961667D01*
X10766905Y-16161667D02*
X10776429Y-16152143D01*
X10795476Y-16123571D01*
X10805000Y-16104524D01*
X10814524Y-16075952D01*
X10824048Y-16028333D01*
X10824048Y-15990238D01*
X10814524Y-15942619D01*
X10805000Y-15914048D01*
X10795476Y-15895000D01*
X10776429Y-15866428D01*
X10766905Y-15856905D01*
X11128810Y-16161667D02*
X11119286Y-16152143D01*
X11100238Y-16123571D01*
X11090714Y-16104524D01*
X11081190Y-16075952D01*
X11071667Y-16028333D01*
X11071667Y-15990238D01*
X11081190Y-15942619D01*
X11090714Y-15914048D01*
X11100238Y-15895000D01*
X11119286Y-15866428D01*
X11128810Y-15856905D01*
X11205000Y-15952143D02*
X11205000Y-16085476D01*
X11205000Y-15971190D02*
X11214524Y-15961667D01*
X11233571Y-15952143D01*
X11262143Y-15952143D01*
X11281190Y-15961667D01*
X11290714Y-15980714D01*
X11290714Y-16085476D01*
X11414524Y-16085476D02*
X11395476Y-16075952D01*
X11385952Y-16066428D01*
X11376428Y-16047381D01*
X11376428Y-15990238D01*
X11385952Y-15971190D01*
X11395476Y-15961667D01*
X11414524Y-15952143D01*
X11443095Y-15952143D01*
X11462143Y-15961667D01*
X11471667Y-15971190D01*
X11481190Y-15990238D01*
X11481190Y-16047381D01*
X11471667Y-16066428D01*
X11462143Y-16075952D01*
X11443095Y-16085476D01*
X11414524Y-16085476D01*
X11538333Y-15952143D02*
X11614524Y-15952143D01*
X11566905Y-15885476D02*
X11566905Y-16056905D01*
X11576428Y-16075952D01*
X11595476Y-16085476D01*
X11614524Y-16085476D01*
X11833571Y-15952143D02*
X11833571Y-16152143D01*
X11833571Y-15961667D02*
X11852619Y-15952143D01*
X11890714Y-15952143D01*
X11909762Y-15961667D01*
X11919286Y-15971190D01*
X11928809Y-15990238D01*
X11928809Y-16047381D01*
X11919286Y-16066428D01*
X11909762Y-16075952D01*
X11890714Y-16085476D01*
X11852619Y-16085476D01*
X11833571Y-16075952D01*
X12043095Y-16085476D02*
X12024048Y-16075952D01*
X12014524Y-16056905D01*
X12014524Y-15885476D01*
X12205000Y-16085476D02*
X12205000Y-15980714D01*
X12195476Y-15961667D01*
X12176428Y-15952143D01*
X12138333Y-15952143D01*
X12119286Y-15961667D01*
X12205000Y-16075952D02*
X12185952Y-16085476D01*
X12138333Y-16085476D01*
X12119286Y-16075952D01*
X12109762Y-16056905D01*
X12109762Y-16037857D01*
X12119286Y-16018809D01*
X12138333Y-16009286D01*
X12185952Y-16009286D01*
X12205000Y-15999762D01*
X12271667Y-15952143D02*
X12347857Y-15952143D01*
X12300238Y-15885476D02*
X12300238Y-16056905D01*
X12309762Y-16075952D01*
X12328809Y-16085476D01*
X12347857Y-16085476D01*
X12490714Y-16075952D02*
X12471667Y-16085476D01*
X12433571Y-16085476D01*
X12414524Y-16075952D01*
X12405000Y-16056905D01*
X12405000Y-15980714D01*
X12414524Y-15961667D01*
X12433571Y-15952143D01*
X12471667Y-15952143D01*
X12490714Y-15961667D01*
X12500238Y-15980714D01*
X12500238Y-15999762D01*
X12405000Y-16018809D01*
X12671667Y-16085476D02*
X12671667Y-15885476D01*
X12671667Y-16075952D02*
X12652619Y-16085476D01*
X12614524Y-16085476D01*
X12595476Y-16075952D01*
X12585952Y-16066428D01*
X12576428Y-16047381D01*
X12576428Y-15990238D01*
X12585952Y-15971190D01*
X12595476Y-15961667D01*
X12614524Y-15952143D01*
X12652619Y-15952143D01*
X12671667Y-15961667D01*
X12747857Y-16161667D02*
X12757381Y-16152143D01*
X12776428Y-16123571D01*
X12785952Y-16104524D01*
X12795476Y-16075952D01*
X12805000Y-16028333D01*
X12805000Y-15990238D01*
X12795476Y-15942619D01*
X12785952Y-15914048D01*
X12776428Y-15895000D01*
X12757381Y-15866428D01*
X12747857Y-15856905D01*
X5965711Y-16365711D02*
X5965711Y-16224289D01*
X5824289Y-16224289D01*
X5824289Y-16365711D01*
X5965711Y-16365711D01*
X6243095Y-16204524D02*
X6252619Y-16195000D01*
X6271667Y-16185476D01*
X6319286Y-16185476D01*
X6338333Y-16195000D01*
X6347857Y-16204524D01*
X6357381Y-16223571D01*
X6357381Y-16242619D01*
X6347857Y-16271190D01*
X6233571Y-16385476D01*
X6357381Y-16385476D01*
X6443095Y-16366428D02*
X6452619Y-16375952D01*
X6443095Y-16385476D01*
X6433571Y-16375952D01*
X6443095Y-16366428D01*
X6443095Y-16385476D01*
X6519286Y-16185476D02*
X6652619Y-16185476D01*
X6566905Y-16385476D01*
X6766905Y-16185476D02*
X6785952Y-16185476D01*
X6805000Y-16195000D01*
X6814524Y-16204524D01*
X6824048Y-16223571D01*
X6833571Y-16261667D01*
X6833571Y-16309286D01*
X6824048Y-16347381D01*
X6814524Y-16366428D01*
X6805000Y-16375952D01*
X6785952Y-16385476D01*
X6766905Y-16385476D01*
X6747857Y-16375952D01*
X6738333Y-16366428D01*
X6728809Y-16347381D01*
X6719286Y-16309286D01*
X6719286Y-16261667D01*
X6728809Y-16223571D01*
X6738333Y-16204524D01*
X6747857Y-16195000D01*
X6766905Y-16185476D01*
X6957381Y-16185476D02*
X6976428Y-16185476D01*
X6995476Y-16195000D01*
X7005000Y-16204524D01*
X7014524Y-16223571D01*
X7024048Y-16261667D01*
X7024048Y-16309286D01*
X7014524Y-16347381D01*
X7005000Y-16366428D01*
X6995476Y-16375952D01*
X6976428Y-16385476D01*
X6957381Y-16385476D01*
X6938333Y-16375952D01*
X6928809Y-16366428D01*
X6919286Y-16347381D01*
X6909762Y-16309286D01*
X6909762Y-16261667D01*
X6919286Y-16223571D01*
X6928809Y-16204524D01*
X6938333Y-16195000D01*
X6957381Y-16185476D01*
X7109762Y-16385476D02*
X7109762Y-16252143D01*
X7109762Y-16271190D02*
X7119286Y-16261667D01*
X7138333Y-16252143D01*
X7166905Y-16252143D01*
X7185952Y-16261667D01*
X7195476Y-16280714D01*
X7195476Y-16385476D01*
X7195476Y-16280714D02*
X7205000Y-16261667D01*
X7224048Y-16252143D01*
X7252619Y-16252143D01*
X7271667Y-16261667D01*
X7281190Y-16280714D01*
X7281190Y-16385476D01*
X7376428Y-16385476D02*
X7376428Y-16252143D01*
X7376428Y-16271190D02*
X7385952Y-16261667D01*
X7405000Y-16252143D01*
X7433571Y-16252143D01*
X7452619Y-16261667D01*
X7462143Y-16280714D01*
X7462143Y-16385476D01*
X7462143Y-16280714D02*
X7471667Y-16261667D01*
X7490714Y-16252143D01*
X7519286Y-16252143D01*
X7538333Y-16261667D01*
X7547857Y-16280714D01*
X7547857Y-16385476D01*
X7938333Y-16175952D02*
X7766905Y-16433095D01*
X8195476Y-16185476D02*
X8214524Y-16185476D01*
X8233571Y-16195000D01*
X8243095Y-16204524D01*
X8252619Y-16223571D01*
X8262143Y-16261667D01*
X8262143Y-16309286D01*
X8252619Y-16347381D01*
X8243095Y-16366428D01*
X8233571Y-16375952D01*
X8214524Y-16385476D01*
X8195476Y-16385476D01*
X8176428Y-16375952D01*
X8166905Y-16366428D01*
X8157381Y-16347381D01*
X8147857Y-16309286D01*
X8147857Y-16261667D01*
X8157381Y-16223571D01*
X8166905Y-16204524D01*
X8176428Y-16195000D01*
X8195476Y-16185476D01*
X8347857Y-16366428D02*
X8357381Y-16375952D01*
X8347857Y-16385476D01*
X8338333Y-16375952D01*
X8347857Y-16366428D01*
X8347857Y-16385476D01*
X8547857Y-16385476D02*
X8433571Y-16385476D01*
X8490714Y-16385476D02*
X8490714Y-16185476D01*
X8471667Y-16214048D01*
X8452619Y-16233095D01*
X8433571Y-16242619D01*
X8671667Y-16185476D02*
X8690714Y-16185476D01*
X8709762Y-16195000D01*
X8719286Y-16204524D01*
X8728810Y-16223571D01*
X8738333Y-16261667D01*
X8738333Y-16309286D01*
X8728810Y-16347381D01*
X8719286Y-16366428D01*
X8709762Y-16375952D01*
X8690714Y-16385476D01*
X8671667Y-16385476D01*
X8652619Y-16375952D01*
X8643095Y-16366428D01*
X8633571Y-16347381D01*
X8624048Y-16309286D01*
X8624048Y-16261667D01*
X8633571Y-16223571D01*
X8643095Y-16204524D01*
X8652619Y-16195000D01*
X8671667Y-16185476D01*
X8909762Y-16185476D02*
X8871667Y-16185476D01*
X8852619Y-16195000D01*
X8843095Y-16204524D01*
X8824048Y-16233095D01*
X8814524Y-16271190D01*
X8814524Y-16347381D01*
X8824048Y-16366428D01*
X8833571Y-16375952D01*
X8852619Y-16385476D01*
X8890714Y-16385476D01*
X8909762Y-16375952D01*
X8919286Y-16366428D01*
X8928810Y-16347381D01*
X8928810Y-16299762D01*
X8919286Y-16280714D01*
X8909762Y-16271190D01*
X8890714Y-16261667D01*
X8852619Y-16261667D01*
X8833571Y-16271190D01*
X8824048Y-16280714D01*
X8814524Y-16299762D01*
X8995476Y-16185476D02*
X9119286Y-16185476D01*
X9052619Y-16261667D01*
X9081190Y-16261667D01*
X9100238Y-16271190D01*
X9109762Y-16280714D01*
X9119286Y-16299762D01*
X9119286Y-16347381D01*
X9109762Y-16366428D01*
X9100238Y-16375952D01*
X9081190Y-16385476D01*
X9024048Y-16385476D01*
X9005000Y-16375952D01*
X8995476Y-16366428D01*
X9195476Y-16185476D02*
X9195476Y-16223571D01*
X9271667Y-16185476D02*
X9271667Y-16223571D01*
X9566905Y-16461667D02*
X9557381Y-16452143D01*
X9538333Y-16423571D01*
X9528810Y-16404524D01*
X9519286Y-16375952D01*
X9509762Y-16328333D01*
X9509762Y-16290238D01*
X9519286Y-16242619D01*
X9528810Y-16214048D01*
X9538333Y-16195000D01*
X9557381Y-16166428D01*
X9566905Y-16156905D01*
X9728810Y-16252143D02*
X9728810Y-16385476D01*
X9681190Y-16175952D02*
X9633571Y-16318809D01*
X9757381Y-16318809D01*
X9985952Y-16385476D02*
X9985952Y-16185476D01*
X10071667Y-16385476D02*
X10071667Y-16280714D01*
X10062143Y-16261667D01*
X10043095Y-16252143D01*
X10014524Y-16252143D01*
X9995476Y-16261667D01*
X9985952Y-16271190D01*
X10195476Y-16385476D02*
X10176429Y-16375952D01*
X10166905Y-16366428D01*
X10157381Y-16347381D01*
X10157381Y-16290238D01*
X10166905Y-16271190D01*
X10176429Y-16261667D01*
X10195476Y-16252143D01*
X10224048Y-16252143D01*
X10243095Y-16261667D01*
X10252619Y-16271190D01*
X10262143Y-16290238D01*
X10262143Y-16347381D01*
X10252619Y-16366428D01*
X10243095Y-16375952D01*
X10224048Y-16385476D01*
X10195476Y-16385476D01*
X10376429Y-16385476D02*
X10357381Y-16375952D01*
X10347857Y-16356905D01*
X10347857Y-16185476D01*
X10528810Y-16375952D02*
X10509762Y-16385476D01*
X10471667Y-16385476D01*
X10452619Y-16375952D01*
X10443095Y-16356905D01*
X10443095Y-16280714D01*
X10452619Y-16261667D01*
X10471667Y-16252143D01*
X10509762Y-16252143D01*
X10528810Y-16261667D01*
X10538333Y-16280714D01*
X10538333Y-16299762D01*
X10443095Y-16318809D01*
X10614524Y-16375952D02*
X10633571Y-16385476D01*
X10671667Y-16385476D01*
X10690714Y-16375952D01*
X10700238Y-16356905D01*
X10700238Y-16347381D01*
X10690714Y-16328333D01*
X10671667Y-16318809D01*
X10643095Y-16318809D01*
X10624048Y-16309286D01*
X10614524Y-16290238D01*
X10614524Y-16280714D01*
X10624048Y-16261667D01*
X10643095Y-16252143D01*
X10671667Y-16252143D01*
X10690714Y-16261667D01*
X10766905Y-16461667D02*
X10776429Y-16452143D01*
X10795476Y-16423571D01*
X10805000Y-16404524D01*
X10814524Y-16375952D01*
X10824048Y-16328333D01*
X10824048Y-16290238D01*
X10814524Y-16242619D01*
X10805000Y-16214048D01*
X10795476Y-16195000D01*
X10776429Y-16166428D01*
X10766905Y-16156905D01*
X11128810Y-16461667D02*
X11119286Y-16452143D01*
X11100238Y-16423571D01*
X11090714Y-16404524D01*
X11081190Y-16375952D01*
X11071667Y-16328333D01*
X11071667Y-16290238D01*
X11081190Y-16242619D01*
X11090714Y-16214048D01*
X11100238Y-16195000D01*
X11119286Y-16166428D01*
X11128810Y-16156905D01*
X11205000Y-16252143D02*
X11205000Y-16385476D01*
X11205000Y-16271190D02*
X11214524Y-16261667D01*
X11233571Y-16252143D01*
X11262143Y-16252143D01*
X11281190Y-16261667D01*
X11290714Y-16280714D01*
X11290714Y-16385476D01*
X11414524Y-16385476D02*
X11395476Y-16375952D01*
X11385952Y-16366428D01*
X11376428Y-16347381D01*
X11376428Y-16290238D01*
X11385952Y-16271190D01*
X11395476Y-16261667D01*
X11414524Y-16252143D01*
X11443095Y-16252143D01*
X11462143Y-16261667D01*
X11471667Y-16271190D01*
X11481190Y-16290238D01*
X11481190Y-16347381D01*
X11471667Y-16366428D01*
X11462143Y-16375952D01*
X11443095Y-16385476D01*
X11414524Y-16385476D01*
X11538333Y-16252143D02*
X11614524Y-16252143D01*
X11566905Y-16185476D02*
X11566905Y-16356905D01*
X11576428Y-16375952D01*
X11595476Y-16385476D01*
X11614524Y-16385476D01*
X11833571Y-16252143D02*
X11833571Y-16452143D01*
X11833571Y-16261667D02*
X11852619Y-16252143D01*
X11890714Y-16252143D01*
X11909762Y-16261667D01*
X11919286Y-16271190D01*
X11928809Y-16290238D01*
X11928809Y-16347381D01*
X11919286Y-16366428D01*
X11909762Y-16375952D01*
X11890714Y-16385476D01*
X11852619Y-16385476D01*
X11833571Y-16375952D01*
X12043095Y-16385476D02*
X12024048Y-16375952D01*
X12014524Y-16356905D01*
X12014524Y-16185476D01*
X12205000Y-16385476D02*
X12205000Y-16280714D01*
X12195476Y-16261667D01*
X12176428Y-16252143D01*
X12138333Y-16252143D01*
X12119286Y-16261667D01*
X12205000Y-16375952D02*
X12185952Y-16385476D01*
X12138333Y-16385476D01*
X12119286Y-16375952D01*
X12109762Y-16356905D01*
X12109762Y-16337857D01*
X12119286Y-16318809D01*
X12138333Y-16309286D01*
X12185952Y-16309286D01*
X12205000Y-16299762D01*
X12271667Y-16252143D02*
X12347857Y-16252143D01*
X12300238Y-16185476D02*
X12300238Y-16356905D01*
X12309762Y-16375952D01*
X12328809Y-16385476D01*
X12347857Y-16385476D01*
X12490714Y-16375952D02*
X12471667Y-16385476D01*
X12433571Y-16385476D01*
X12414524Y-16375952D01*
X12405000Y-16356905D01*
X12405000Y-16280714D01*
X12414524Y-16261667D01*
X12433571Y-16252143D01*
X12471667Y-16252143D01*
X12490714Y-16261667D01*
X12500238Y-16280714D01*
X12500238Y-16299762D01*
X12405000Y-16318809D01*
X12671667Y-16385476D02*
X12671667Y-16185476D01*
X12671667Y-16375952D02*
X12652619Y-16385476D01*
X12614524Y-16385476D01*
X12595476Y-16375952D01*
X12585952Y-16366428D01*
X12576428Y-16347381D01*
X12576428Y-16290238D01*
X12585952Y-16271190D01*
X12595476Y-16261667D01*
X12614524Y-16252143D01*
X12652619Y-16252143D01*
X12671667Y-16261667D01*
X12747857Y-16461667D02*
X12757381Y-16452143D01*
X12776428Y-16423571D01*
X12785952Y-16404524D01*
X12795476Y-16375952D01*
X12805000Y-16328333D01*
X12805000Y-16290238D01*
X12795476Y-16242619D01*
X12785952Y-16214048D01*
X12776428Y-16195000D01*
X12757381Y-16166428D01*
X12747857Y-16156905D01*
M02*
